<svg width="307" height="189" viewBox="0 0 307 189" fill="none" xmlns="http://www.w3.org/2000/svg">
<g filter="url(#filter0_d)">
<rect x="3" y="3" width="301" height="183" fill="white"/>
</g>
<path d="M49.6406 148L45.3828 137.453H45.3203C45.362 138.099 45.3828 138.76 45.3828 139.438V148H44.6172V136.578H45.8516L49.8984 146.625H49.9453L53.9922 136.578H55.1953V148H54.3906V139.344C54.3906 138.74 54.4219 138.115 54.4844 137.469H54.4219L50.1484 148H49.6406ZM63.3906 148L63.1953 146.656H63.1328C62.7057 147.203 62.2656 147.591 61.8125 147.82C61.3646 148.044 60.8333 148.156 60.2188 148.156C59.3854 148.156 58.737 147.943 58.2734 147.516C57.8099 147.089 57.5781 146.497 57.5781 145.742C57.5781 144.914 57.9219 144.271 58.6094 143.812C59.3021 143.354 60.3021 143.112 61.6094 143.086L63.2266 143.039V142.477C63.2266 141.669 63.0625 141.06 62.7344 140.648C62.4062 140.237 61.8776 140.031 61.1484 140.031C60.362 140.031 59.5469 140.25 58.7031 140.688L58.4141 140.016C59.3464 139.578 60.2682 139.359 61.1797 139.359C62.112 139.359 62.8073 139.602 63.2656 140.086C63.7292 140.57 63.9609 141.326 63.9609 142.352V148H63.3906ZM60.2656 147.453C61.1719 147.453 61.8854 147.195 62.4062 146.68C62.9323 146.159 63.1953 145.438 63.1953 144.516V143.68L61.7109 143.742C60.5182 143.799 59.6667 143.987 59.1562 144.305C58.651 144.617 58.3984 145.107 58.3984 145.773C58.3984 146.305 58.5599 146.719 58.8828 147.016C59.2109 147.307 59.6719 147.453 60.2656 147.453ZM70.3516 148.156C69.0443 148.156 68.0911 147.667 67.4922 146.688H67.4375L67.4609 147.344C67.4818 147.729 67.4922 148.151 67.4922 148.609V151.844H66.7188V139.508H67.375L67.5234 140.719H67.5703C68.1536 139.802 69.0859 139.344 70.3672 139.344C71.513 139.344 72.3854 139.721 72.9844 140.477C73.5885 141.227 73.8906 142.32 73.8906 143.758C73.8906 145.154 73.5729 146.237 72.9375 147.008C72.3073 147.773 71.4453 148.156 70.3516 148.156ZM70.3359 147.469C71.2057 147.469 71.8776 147.146 72.3516 146.5C72.8307 145.854 73.0703 144.951 73.0703 143.789C73.0703 141.294 72.1693 140.047 70.3672 140.047C69.3776 140.047 68.651 140.32 68.1875 140.867C67.724 141.409 67.4922 142.294 67.4922 143.523V143.773C67.4922 145.102 67.7135 146.049 68.1562 146.617C68.6042 147.185 69.3307 147.469 70.3359 147.469ZM78.9844 139.508H79.7812L81.5781 144.273C82.125 145.737 82.4714 146.724 82.6172 147.234H82.6641C82.8828 146.562 83.2396 145.56 83.7344 144.227L85.5312 139.508H86.3281L82.5234 149.375C82.2161 150.177 81.9583 150.719 81.75 151C81.5417 151.281 81.2969 151.492 81.0156 151.633C80.7396 151.773 80.4036 151.844 80.0078 151.844C79.7109 151.844 79.3802 151.789 79.0156 151.68V151.008C79.3177 151.091 79.6432 151.133 79.9922 151.133C80.2578 151.133 80.4922 151.07 80.6953 150.945C80.8984 150.82 81.0807 150.625 81.2422 150.359C81.4089 150.099 81.599 149.682 81.8125 149.109C82.0312 148.542 82.1719 148.172 82.2344 148L78.9844 139.508ZM94.7734 143.742C94.7734 145.128 94.4375 146.211 93.7656 146.992C93.0938 147.768 92.1667 148.156 90.9844 148.156C90.2396 148.156 89.5833 147.977 89.0156 147.617C88.4479 147.258 88.013 146.742 87.7109 146.07C87.4089 145.398 87.2578 144.622 87.2578 143.742C87.2578 142.357 87.5938 141.279 88.2656 140.508C88.9375 139.732 89.8594 139.344 91.0312 139.344C92.1979 139.344 93.112 139.737 93.7734 140.523C94.4401 141.305 94.7734 142.378 94.7734 143.742ZM88.0703 143.742C88.0703 144.909 88.3255 145.82 88.8359 146.477C89.3516 147.128 90.0781 147.453 91.0156 147.453C91.9531 147.453 92.6771 147.128 93.1875 146.477C93.7031 145.82 93.9609 144.909 93.9609 143.742C93.9609 142.57 93.7005 141.661 93.1797 141.016C92.6641 140.37 91.9375 140.047 91 140.047C90.0625 140.047 89.3385 140.37 88.8281 141.016C88.3229 141.656 88.0703 142.565 88.0703 143.742ZM97.7969 139.508V145.008C97.7969 145.862 97.9766 146.484 98.3359 146.875C98.6953 147.26 99.2526 147.453 100.008 147.453C101.018 147.453 101.76 147.198 102.234 146.688C102.714 146.177 102.953 145.346 102.953 144.195V139.508H103.719V148H103.062L102.922 146.828H102.875C102.323 147.714 101.341 148.156 99.9297 148.156C97.9974 148.156 97.0312 147.122 97.0312 145.055V139.508H97.7969ZM109.906 139.344C110.266 139.344 110.651 139.38 111.062 139.453L110.914 140.195C110.56 140.107 110.193 140.062 109.812 140.062C109.089 140.062 108.495 140.37 108.031 140.984C107.568 141.599 107.336 142.375 107.336 143.312V148H106.562V139.508H107.219L107.297 141.039H107.352C107.701 140.414 108.073 139.977 108.469 139.727C108.865 139.471 109.344 139.344 109.906 139.344ZM120.586 148.156C119.279 148.156 118.326 147.667 117.727 146.688H117.672L117.695 147.344C117.716 147.729 117.727 148.151 117.727 148.609V151.844H116.953V139.508H117.609L117.758 140.719H117.805C118.388 139.802 119.32 139.344 120.602 139.344C121.747 139.344 122.62 139.721 123.219 140.477C123.823 141.227 124.125 142.32 124.125 143.758C124.125 145.154 123.807 146.237 123.172 147.008C122.542 147.773 121.68 148.156 120.586 148.156ZM120.57 147.469C121.44 147.469 122.112 147.146 122.586 146.5C123.065 145.854 123.305 144.951 123.305 143.789C123.305 141.294 122.404 140.047 120.602 140.047C119.612 140.047 118.885 140.32 118.422 140.867C117.958 141.409 117.727 142.294 117.727 143.523V143.773C117.727 145.102 117.948 146.049 118.391 146.617C118.839 147.185 119.565 147.469 120.57 147.469ZM131.641 148L131.445 146.656H131.383C130.956 147.203 130.516 147.591 130.062 147.82C129.615 148.044 129.083 148.156 128.469 148.156C127.635 148.156 126.987 147.943 126.523 147.516C126.06 147.089 125.828 146.497 125.828 145.742C125.828 144.914 126.172 144.271 126.859 143.812C127.552 143.354 128.552 143.112 129.859 143.086L131.477 143.039V142.477C131.477 141.669 131.312 141.06 130.984 140.648C130.656 140.237 130.128 140.031 129.398 140.031C128.612 140.031 127.797 140.25 126.953 140.688L126.664 140.016C127.596 139.578 128.518 139.359 129.43 139.359C130.362 139.359 131.057 139.602 131.516 140.086C131.979 140.57 132.211 141.326 132.211 142.352V148H131.641ZM128.516 147.453C129.422 147.453 130.135 147.195 130.656 146.68C131.182 146.159 131.445 145.438 131.445 144.516V143.68L129.961 143.742C128.768 143.799 127.917 143.987 127.406 144.305C126.901 144.617 126.648 145.107 126.648 145.773C126.648 146.305 126.81 146.719 127.133 147.016C127.461 147.307 127.922 147.453 128.516 147.453ZM140.234 145.789C140.234 146.549 139.945 147.135 139.367 147.547C138.789 147.953 137.969 148.156 136.906 148.156C135.771 148.156 134.87 147.982 134.203 147.633V146.797C135.057 147.224 135.958 147.438 136.906 147.438C137.745 147.438 138.38 147.299 138.812 147.023C139.25 146.742 139.469 146.37 139.469 145.906C139.469 145.479 139.294 145.12 138.945 144.828C138.602 144.536 138.034 144.25 137.242 143.969C136.393 143.661 135.797 143.398 135.453 143.18C135.109 142.956 134.849 142.706 134.672 142.43C134.5 142.148 134.414 141.807 134.414 141.406C134.414 140.771 134.68 140.268 135.211 139.898C135.747 139.529 136.495 139.344 137.453 139.344C138.37 139.344 139.24 139.516 140.062 139.859L139.773 140.562C138.94 140.219 138.167 140.047 137.453 140.047C136.76 140.047 136.211 140.161 135.805 140.391C135.398 140.62 135.195 140.938 135.195 141.344C135.195 141.786 135.352 142.141 135.664 142.406C135.982 142.672 136.599 142.969 137.516 143.297C138.281 143.573 138.839 143.823 139.188 144.047C139.536 144.266 139.797 144.516 139.969 144.797C140.146 145.078 140.234 145.409 140.234 145.789ZM147.688 145.789C147.688 146.549 147.398 147.135 146.82 147.547C146.242 147.953 145.422 148.156 144.359 148.156C143.224 148.156 142.323 147.982 141.656 147.633V146.797C142.51 147.224 143.411 147.438 144.359 147.438C145.198 147.438 145.833 147.299 146.266 147.023C146.703 146.742 146.922 146.37 146.922 145.906C146.922 145.479 146.747 145.12 146.398 144.828C146.055 144.536 145.487 144.25 144.695 143.969C143.846 143.661 143.25 143.398 142.906 143.18C142.562 142.956 142.302 142.706 142.125 142.43C141.953 142.148 141.867 141.807 141.867 141.406C141.867 140.771 142.133 140.268 142.664 139.898C143.201 139.529 143.948 139.344 144.906 139.344C145.823 139.344 146.693 139.516 147.516 139.859L147.227 140.562C146.393 140.219 145.62 140.047 144.906 140.047C144.214 140.047 143.664 140.161 143.258 140.391C142.852 140.62 142.648 140.938 142.648 141.344C142.648 141.786 142.805 142.141 143.117 142.406C143.435 142.672 144.052 142.969 144.969 143.297C145.734 143.573 146.292 143.823 146.641 144.047C146.99 144.266 147.25 144.516 147.422 144.797C147.599 145.078 147.688 145.409 147.688 145.789ZM150.648 148H149.875V139.508H150.648V148ZM149.766 137.148C149.766 136.648 149.93 136.398 150.258 136.398C150.419 136.398 150.544 136.464 150.633 136.594C150.727 136.724 150.773 136.909 150.773 137.148C150.773 137.383 150.727 137.568 150.633 137.703C150.544 137.839 150.419 137.906 150.258 137.906C149.93 137.906 149.766 137.654 149.766 137.148ZM160.523 143.742C160.523 145.128 160.188 146.211 159.516 146.992C158.844 147.768 157.917 148.156 156.734 148.156C155.99 148.156 155.333 147.977 154.766 147.617C154.198 147.258 153.763 146.742 153.461 146.07C153.159 145.398 153.008 144.622 153.008 143.742C153.008 142.357 153.344 141.279 154.016 140.508C154.688 139.732 155.609 139.344 156.781 139.344C157.948 139.344 158.862 139.737 159.523 140.523C160.19 141.305 160.523 142.378 160.523 143.742ZM153.82 143.742C153.82 144.909 154.076 145.82 154.586 146.477C155.102 147.128 155.828 147.453 156.766 147.453C157.703 147.453 158.427 147.128 158.938 146.477C159.453 145.82 159.711 144.909 159.711 143.742C159.711 142.57 159.451 141.661 158.93 141.016C158.414 140.37 157.688 140.047 156.75 140.047C155.812 140.047 155.089 140.37 154.578 141.016C154.073 141.656 153.82 142.565 153.82 143.742ZM168.797 148V142.492C168.797 141.638 168.617 141.018 168.258 140.633C167.898 140.242 167.341 140.047 166.586 140.047C165.57 140.047 164.826 140.305 164.352 140.82C163.883 141.331 163.648 142.161 163.648 143.312V148H162.875V139.508H163.531L163.68 140.672H163.727C164.279 139.786 165.26 139.344 166.672 139.344C168.599 139.344 169.562 140.378 169.562 142.445V148H168.797ZM178.711 147.469C179.201 147.469 179.628 147.427 179.992 147.344V147.969C179.617 148.094 179.185 148.156 178.695 148.156C177.945 148.156 177.391 147.956 177.031 147.555C176.677 147.154 176.5 146.523 176.5 145.664V140.18H175.242V139.727L176.5 139.375L176.891 137.453H177.289V139.508H179.781V140.18H177.289V145.555C177.289 146.206 177.404 146.688 177.633 147C177.862 147.312 178.221 147.469 178.711 147.469ZM188.852 143.742C188.852 145.128 188.516 146.211 187.844 146.992C187.172 147.768 186.245 148.156 185.062 148.156C184.318 148.156 183.661 147.977 183.094 147.617C182.526 147.258 182.091 146.742 181.789 146.07C181.487 145.398 181.336 144.622 181.336 143.742C181.336 142.357 181.672 141.279 182.344 140.508C183.016 139.732 183.938 139.344 185.109 139.344C186.276 139.344 187.19 139.737 187.852 140.523C188.518 141.305 188.852 142.378 188.852 143.742ZM182.148 143.742C182.148 144.909 182.404 145.82 182.914 146.477C183.43 147.128 184.156 147.453 185.094 147.453C186.031 147.453 186.755 147.128 187.266 146.477C187.781 145.82 188.039 144.909 188.039 143.742C188.039 142.57 187.779 141.661 187.258 141.016C186.742 140.37 186.016 140.047 185.078 140.047C184.141 140.047 183.417 140.37 182.906 141.016C182.401 141.656 182.148 142.565 182.148 143.742ZM200.516 148L200.32 146.656H200.258C199.831 147.203 199.391 147.591 198.938 147.82C198.49 148.044 197.958 148.156 197.344 148.156C196.51 148.156 195.862 147.943 195.398 147.516C194.935 147.089 194.703 146.497 194.703 145.742C194.703 144.914 195.047 144.271 195.734 143.812C196.427 143.354 197.427 143.112 198.734 143.086L200.352 143.039V142.477C200.352 141.669 200.188 141.06 199.859 140.648C199.531 140.237 199.003 140.031 198.273 140.031C197.487 140.031 196.672 140.25 195.828 140.688L195.539 140.016C196.471 139.578 197.393 139.359 198.305 139.359C199.237 139.359 199.932 139.602 200.391 140.086C200.854 140.57 201.086 141.326 201.086 142.352V148H200.516ZM197.391 147.453C198.297 147.453 199.01 147.195 199.531 146.68C200.057 146.159 200.32 145.438 200.32 144.516V143.68L198.836 143.742C197.643 143.799 196.792 143.987 196.281 144.305C195.776 144.617 195.523 145.107 195.523 145.773C195.523 146.305 195.685 146.719 196.008 147.016C196.336 147.307 196.797 147.453 197.391 147.453ZM211.633 148.156C210.326 148.156 209.372 147.667 208.773 146.688H208.719L208.742 147.344C208.763 147.729 208.773 148.151 208.773 148.609V151.844H208V139.508H208.656L208.805 140.719H208.852C209.435 139.802 210.367 139.344 211.648 139.344C212.794 139.344 213.667 139.721 214.266 140.477C214.87 141.227 215.172 142.32 215.172 143.758C215.172 145.154 214.854 146.237 214.219 147.008C213.589 147.773 212.727 148.156 211.633 148.156ZM211.617 147.469C212.487 147.469 213.159 147.146 213.633 146.5C214.112 145.854 214.352 144.951 214.352 143.789C214.352 141.294 213.451 140.047 211.648 140.047C210.659 140.047 209.932 140.32 209.469 140.867C209.005 141.409 208.773 142.294 208.773 143.523V143.773C208.773 145.102 208.995 146.049 209.438 146.617C209.885 147.185 210.612 147.469 211.617 147.469ZM220.875 139.344C221.234 139.344 221.62 139.38 222.031 139.453L221.883 140.195C221.529 140.107 221.161 140.062 220.781 140.062C220.057 140.062 219.464 140.37 219 140.984C218.536 141.599 218.305 142.375 218.305 143.312V148H217.531V139.508H218.188L218.266 141.039H218.32C218.669 140.414 219.042 139.977 219.438 139.727C219.833 139.471 220.312 139.344 220.875 139.344ZM230.789 143.742C230.789 145.128 230.453 146.211 229.781 146.992C229.109 147.768 228.182 148.156 227 148.156C226.255 148.156 225.599 147.977 225.031 147.617C224.464 147.258 224.029 146.742 223.727 146.07C223.424 145.398 223.273 144.622 223.273 143.742C223.273 142.357 223.609 141.279 224.281 140.508C224.953 139.732 225.875 139.344 227.047 139.344C228.214 139.344 229.128 139.737 229.789 140.523C230.456 141.305 230.789 142.378 230.789 143.742ZM224.086 143.742C224.086 144.909 224.341 145.82 224.852 146.477C225.367 147.128 226.094 147.453 227.031 147.453C227.969 147.453 228.693 147.128 229.203 146.477C229.719 145.82 229.977 144.909 229.977 143.742C229.977 142.57 229.716 141.661 229.195 141.016C228.68 140.37 227.953 140.047 227.016 140.047C226.078 140.047 225.354 140.37 224.844 141.016C224.339 141.656 224.086 142.565 224.086 143.742ZM232.008 151.844C231.591 151.844 231.24 151.779 230.953 151.648V150.977C231.312 151.081 231.648 151.133 231.961 151.133C232.747 151.133 233.141 150.674 233.141 149.758V139.508H233.914V149.648C233.914 150.352 233.747 150.893 233.414 151.273C233.086 151.654 232.617 151.844 232.008 151.844ZM233.031 137.148C233.031 136.648 233.195 136.398 233.523 136.398C233.685 136.398 233.81 136.464 233.898 136.594C233.992 136.724 234.039 136.909 234.039 137.148C234.039 137.383 233.992 137.568 233.898 137.703C233.81 137.839 233.685 137.906 233.523 137.906C233.195 137.906 233.031 137.654 233.031 137.148ZM240.195 148.156C238.961 148.156 237.997 147.776 237.305 147.016C236.617 146.255 236.273 145.19 236.273 143.82C236.273 142.466 236.607 141.383 237.273 140.57C237.94 139.753 238.839 139.344 239.969 139.344C240.969 139.344 241.758 139.693 242.336 140.391C242.914 141.089 243.203 142.036 243.203 143.234V143.859H237.086C237.096 145.026 237.367 145.917 237.898 146.531C238.435 147.146 239.201 147.453 240.195 147.453C240.68 147.453 241.104 147.419 241.469 147.352C241.839 147.284 242.305 147.138 242.867 146.914V147.617C242.388 147.826 241.945 147.966 241.539 148.039C241.133 148.117 240.685 148.156 240.195 148.156ZM239.969 140.031C239.151 140.031 238.495 140.302 238 140.844C237.505 141.38 237.216 142.156 237.133 143.172H242.383C242.383 142.188 242.169 141.419 241.742 140.867C241.315 140.31 240.724 140.031 239.969 140.031ZM248.938 148.156C247.724 148.156 246.773 147.773 246.086 147.008C245.398 146.242 245.055 145.174 245.055 143.805C245.055 142.398 245.411 141.305 246.125 140.523C246.839 139.737 247.815 139.344 249.055 139.344C249.789 139.344 250.492 139.471 251.164 139.727L250.953 140.414C250.219 140.169 249.581 140.047 249.039 140.047C247.997 140.047 247.208 140.37 246.672 141.016C246.135 141.656 245.867 142.581 245.867 143.789C245.867 144.935 246.135 145.833 246.672 146.484C247.208 147.13 247.958 147.453 248.922 147.453C249.693 147.453 250.409 147.315 251.07 147.039V147.758C250.529 148.023 249.818 148.156 248.938 148.156ZM255.398 147.469C255.888 147.469 256.315 147.427 256.68 147.344V147.969C256.305 148.094 255.872 148.156 255.383 148.156C254.633 148.156 254.078 147.956 253.719 147.555C253.365 147.154 253.188 146.523 253.188 145.664V140.18H251.93V139.727L253.188 139.375L253.578 137.453H253.977V139.508H256.469V140.18H253.977V145.555C253.977 146.206 254.091 146.688 254.32 147C254.549 147.312 254.909 147.469 255.398 147.469Z" fill="#263238"/>
<path d="M52.1641 72.3633H58.4805V80.1797C56.8242 80.8828 54.9609 81.2344 52.8906 81.2344C50.1875 81.2344 48.1133 80.4727 46.668 78.9492C45.2305 77.418 44.5117 75.2539 44.5117 72.457C44.5117 70.7148 44.8672 69.1719 45.5781 67.8281C46.2969 66.4766 47.3203 65.4336 48.6484 64.6992C49.9844 63.9648 51.5156 63.5977 53.2422 63.5977C55.1094 63.5977 56.7852 63.9414 58.2695 64.6289L57.7891 65.707C56.3047 65.0195 54.7656 64.6758 53.1719 64.6758C50.9141 64.6758 49.1211 65.375 47.793 66.7734C46.4727 68.1641 45.8125 70.043 45.8125 72.4102C45.8125 74.9883 46.4414 76.9297 47.6992 78.2344C48.957 79.5312 50.8047 80.1797 53.2422 80.1797C54.8203 80.1797 56.1602 79.957 57.2617 79.5117V73.4883H52.1641V72.3633ZM67.6445 81.2344C65.793 81.2344 64.3477 80.6641 63.3086 79.5234C62.2773 78.3828 61.7617 76.7852 61.7617 74.7305C61.7617 72.6992 62.2617 71.0742 63.2617 69.8555C64.2617 68.6289 65.6094 68.0156 67.3047 68.0156C68.8047 68.0156 69.9883 68.5391 70.8555 69.5859C71.7227 70.6328 72.1562 72.0547 72.1562 73.8516V74.7891H62.9805C62.9961 76.5391 63.4023 77.875 64.1992 78.7969C65.0039 79.7188 66.1523 80.1797 67.6445 80.1797C68.3711 80.1797 69.0078 80.1289 69.5547 80.0273C70.1094 79.9258 70.8086 79.707 71.6523 79.3711V80.4258C70.9336 80.7383 70.2695 80.9492 69.6602 81.0586C69.0508 81.1758 68.3789 81.2344 67.6445 81.2344ZM67.3047 69.0469C66.0781 69.0469 65.0938 69.4531 64.3516 70.2656C63.6094 71.0703 63.1758 72.2344 63.0508 73.7578H70.9258C70.9258 72.2812 70.6055 71.1289 69.9648 70.3008C69.3242 69.4648 68.4375 69.0469 67.3047 69.0469ZM79.0352 80.2031C79.7695 80.2031 80.4102 80.1406 80.957 80.0156V80.9531C80.3945 81.1406 79.7461 81.2344 79.0117 81.2344C77.8867 81.2344 77.0547 80.9336 76.5156 80.332C75.9844 79.7305 75.7188 78.7852 75.7188 77.4961V69.2695H73.832V68.5898L75.7188 68.0625L76.3047 65.1797H76.9023V68.2617H80.6406V69.2695H76.9023V77.332C76.9023 78.3086 77.0742 79.0312 77.418 79.5C77.7617 79.9688 78.3008 80.2031 79.0352 80.2031ZM93.3086 80.2031C94.043 80.2031 94.6836 80.1406 95.2305 80.0156V80.9531C94.668 81.1406 94.0195 81.2344 93.2852 81.2344C92.1602 81.2344 91.3281 80.9336 90.7891 80.332C90.2578 79.7305 89.9922 78.7852 89.9922 77.4961V69.2695H88.1055V68.5898L89.9922 68.0625L90.5781 65.1797H91.1758V68.2617H94.9141V69.2695H91.1758V77.332C91.1758 78.3086 91.3477 79.0312 91.6914 79.5C92.0352 79.9688 92.5742 80.2031 93.3086 80.2031ZM106.867 81V72.7383C106.867 71.457 106.598 70.5273 106.059 69.9492C105.52 69.3633 104.684 69.0703 103.551 69.0703C102.027 69.0703 100.91 69.457 100.199 70.2305C99.4961 70.9961 99.1445 72.2422 99.1445 73.9688V81H97.9844V62.7656H99.1445V68.5664L99.0859 70.1953H99.168C99.6445 69.4297 100.246 68.875 100.973 68.5312C101.699 68.1875 102.602 68.0156 103.68 68.0156C106.57 68.0156 108.016 69.5664 108.016 72.668V81H106.867ZM117.285 81.2344C115.434 81.2344 113.988 80.6641 112.949 79.5234C111.918 78.3828 111.402 76.7852 111.402 74.7305C111.402 72.6992 111.902 71.0742 112.902 69.8555C113.902 68.6289 115.25 68.0156 116.945 68.0156C118.445 68.0156 119.629 68.5391 120.496 69.5859C121.363 70.6328 121.797 72.0547 121.797 73.8516V74.7891H112.621C112.637 76.5391 113.043 77.875 113.84 78.7969C114.645 79.7188 115.793 80.1797 117.285 80.1797C118.012 80.1797 118.648 80.1289 119.195 80.0273C119.75 79.9258 120.449 79.707 121.293 79.3711V80.4258C120.574 80.7383 119.91 80.9492 119.301 81.0586C118.691 81.1758 118.02 81.2344 117.285 81.2344ZM116.945 69.0469C115.719 69.0469 114.734 69.4531 113.992 70.2656C113.25 71.0703 112.816 72.2344 112.691 73.7578H120.566C120.566 72.2812 120.246 71.1289 119.605 70.3008C118.965 69.4648 118.078 69.0469 116.945 69.0469ZM136.926 68.0156C138.707 68.0156 140.047 68.5781 140.945 69.7031C141.852 70.8203 142.305 72.457 142.305 74.6133C142.305 76.7305 141.828 78.3633 140.875 79.5117C139.93 80.6602 138.598 81.2344 136.879 81.2344C135.973 81.2344 135.156 81.0469 134.43 80.6719C133.703 80.2969 133.129 79.7656 132.707 79.0781H132.602L132.273 81H131.547V62.7656H132.707V67.3477C132.707 68.0352 132.691 68.668 132.66 69.2461L132.625 70.2422H132.707C133.191 69.4766 133.773 68.9141 134.453 68.5547C135.141 68.1953 135.965 68.0156 136.926 68.0156ZM136.902 69.0703C135.402 69.0703 134.328 69.5 133.68 70.3594C133.031 71.2188 132.707 72.6367 132.707 74.6133V74.8125C132.707 76.7344 133.043 78.1133 133.715 78.9492C134.395 79.7852 135.449 80.2031 136.879 80.2031C138.27 80.2031 139.316 79.7188 140.02 78.75C140.723 77.7734 141.074 76.3867 141.074 74.5898C141.074 70.9102 139.684 69.0703 136.902 69.0703ZM153.578 81L153.285 78.9844H153.191C152.551 79.8047 151.891 80.3867 151.211 80.7305C150.539 81.0664 149.742 81.2344 148.82 81.2344C147.57 81.2344 146.598 80.9141 145.902 80.2734C145.207 79.6328 144.859 78.7461 144.859 77.6133C144.859 76.3711 145.375 75.4062 146.406 74.7188C147.445 74.0312 148.945 73.668 150.906 73.6289L153.332 73.5586V72.7148C153.332 71.5039 153.086 70.5898 152.594 69.9727C152.102 69.3555 151.309 69.0469 150.215 69.0469C149.035 69.0469 147.812 69.375 146.547 70.0312L146.113 69.0234C147.512 68.3672 148.895 68.0391 150.262 68.0391C151.66 68.0391 152.703 68.4023 153.391 69.1289C154.086 69.8555 154.434 70.9883 154.434 72.5273V81H153.578ZM148.891 80.1797C150.25 80.1797 151.32 79.793 152.102 79.0195C152.891 78.2383 153.285 77.1562 153.285 75.7734V74.5195L151.059 74.6133C149.27 74.6992 147.992 74.9805 147.227 75.457C146.469 75.9258 146.09 76.6602 146.09 77.6602C146.09 78.457 146.332 79.0781 146.816 79.5234C147.309 79.9609 148 80.1797 148.891 80.1797ZM159.73 81H158.57V62.7656H159.73V81ZM165.168 81H164.008V62.7656H165.168V81ZM46.6211 106.535V114H45.4258V96.8672H49.5039C51.6289 96.8672 53.1992 97.2617 54.2148 98.0508C55.2305 98.832 55.7383 100.012 55.7383 101.59C55.7383 102.738 55.4336 103.707 54.8242 104.496C54.2227 105.285 53.3047 105.852 52.0703 106.195L56.7227 114H55.293L50.875 106.535H46.6211ZM46.6211 105.504H49.8906C51.3359 105.504 52.457 105.184 53.2539 104.543C54.0508 103.895 54.4492 102.941 54.4492 101.684C54.4492 100.379 54.0586 99.4297 53.2773 98.8359C52.4961 98.2422 51.2227 97.9453 49.457 97.9453H46.6211V105.504ZM69.9414 107.613C69.9414 109.691 69.4375 111.316 68.4297 112.488C67.4219 113.652 66.0312 114.234 64.2578 114.234C63.1406 114.234 62.1562 113.965 61.3047 113.426C60.4531 112.887 59.8008 112.113 59.3477 111.105C58.8945 110.098 58.668 108.934 58.668 107.613C58.668 105.535 59.1719 103.918 60.1797 102.762C61.1875 101.598 62.5703 101.016 64.3281 101.016C66.0781 101.016 67.4492 101.605 68.4414 102.785C69.4414 103.957 69.9414 105.566 69.9414 107.613ZM59.8867 107.613C59.8867 109.363 60.2695 110.73 61.0352 111.715C61.8086 112.691 62.8984 113.18 64.3047 113.18C65.7109 113.18 66.7969 112.691 67.5625 111.715C68.3359 110.73 68.7227 109.363 68.7227 107.613C68.7227 105.855 68.332 104.492 67.5508 103.523C66.7773 102.555 65.6875 102.07 64.2812 102.07C62.875 102.07 61.7891 102.555 61.0234 103.523C60.2656 104.484 59.8867 105.848 59.8867 107.613ZM74.6289 114H73.4688V95.7656H74.6289V114ZM80.0664 114H78.9062V95.7656H80.0664V114ZM85.5039 114H84.3438V101.262H85.5039V114ZM84.1797 97.7227C84.1797 96.9727 84.4258 96.5977 84.918 96.5977C85.1602 96.5977 85.3477 96.6953 85.4805 96.8906C85.6211 97.0859 85.6914 97.3633 85.6914 97.7227C85.6914 98.0742 85.6211 98.3516 85.4805 98.5547C85.3477 98.7578 85.1602 98.8594 84.918 98.8594C84.4258 98.8594 84.1797 98.4805 84.1797 97.7227ZM98.6641 114V105.738C98.6641 104.457 98.3945 103.527 97.8555 102.949C97.3164 102.363 96.4805 102.07 95.3477 102.07C93.8242 102.07 92.707 102.457 91.9961 103.23C91.293 103.996 90.9414 105.242 90.9414 106.969V114H89.7812V101.262H90.7656L90.9883 103.008H91.0586C91.8867 101.68 93.3594 101.016 95.4766 101.016C98.3672 101.016 99.8125 102.566 99.8125 105.668V114H98.6641ZM113.875 101.262V102.07L111.238 102.234C111.941 103.109 112.293 104.07 112.293 105.117C112.293 106.344 111.883 107.34 111.062 108.105C110.25 108.863 109.156 109.242 107.781 109.242C107.203 109.242 106.797 109.219 106.562 109.172C106.102 109.414 105.75 109.699 105.508 110.027C105.266 110.355 105.145 110.703 105.145 111.07C105.145 111.477 105.297 111.773 105.602 111.961C105.914 112.148 106.434 112.242 107.16 112.242H109.387C110.77 112.242 111.828 112.523 112.562 113.086C113.297 113.641 113.664 114.465 113.664 115.559C113.664 116.902 113.117 117.938 112.023 118.664C110.938 119.398 109.387 119.766 107.371 119.766C105.77 119.766 104.527 119.457 103.645 118.84C102.77 118.223 102.332 117.363 102.332 116.262C102.332 115.387 102.602 114.66 103.141 114.082C103.688 113.504 104.426 113.109 105.355 112.898C104.973 112.734 104.664 112.504 104.43 112.207C104.203 111.902 104.09 111.555 104.09 111.164C104.09 110.312 104.633 109.562 105.719 108.914C104.977 108.609 104.398 108.133 103.984 107.484C103.57 106.828 103.363 106.078 103.363 105.234C103.363 103.961 103.766 102.941 104.57 102.176C105.383 101.402 106.477 101.016 107.852 101.016C108.688 101.016 109.336 101.098 109.797 101.262H113.875ZM103.562 116.156C103.562 117.906 104.863 118.781 107.465 118.781C110.809 118.781 112.48 117.715 112.48 115.582C112.48 114.816 112.219 114.262 111.695 113.918C111.172 113.574 110.324 113.402 109.152 113.402H107.066C104.73 113.402 103.562 114.32 103.562 116.156ZM104.535 105.234C104.535 106.219 104.832 106.984 105.426 107.531C106.027 108.07 106.828 108.34 107.828 108.34C108.891 108.34 109.703 108.07 110.266 107.531C110.836 106.992 111.121 106.211 111.121 105.188C111.121 104.102 110.828 103.289 110.242 102.75C109.664 102.203 108.852 101.93 107.805 101.93C106.789 101.93 105.988 102.223 105.402 102.809C104.824 103.387 104.535 104.195 104.535 105.234Z" fill="#263238"/>
<path d="M251.201 61L243.134 53C245.554 43.8 255.571 37.5 260.277 35.5L268.344 44C265.52 54.4 255.739 59.6667 251.201 61Z" fill="#FFC062"/>
<path d="M250.283 53.9129C249.944 53.5769 249.395 53.5769 249.056 53.9129C248.718 54.2481 248.718 54.792 249.056 55.1281C249.395 55.4632 249.944 55.4632 250.283 55.1281C250.621 54.792 250.621 54.2481 250.283 53.9129Z" fill="black"/>
<path d="M261.311 42.9747C259.618 41.2956 256.876 41.2955 255.183 42.9747C253.494 44.6495 253.494 47.3755 255.183 49.0517C256.873 50.7261 259.622 50.7268 261.311 49.0515C263.004 47.3725 263.005 44.654 261.311 42.9747ZM260.085 47.8361C259.072 48.841 257.422 48.841 256.409 47.8363C255.395 46.8306 255.395 45.1949 256.408 44.19C257.424 43.1826 259.069 43.1824 260.085 44.19C261.101 45.1974 261.102 46.8286 260.085 47.8361Z" fill="black"/>
<path d="M271.115 33.2517C270.945 33.083 270.712 32.9916 270.471 33.0006C270.275 33.0076 265.61 33.1935 260.064 35.1374C255.62 36.6933 251.916 38.9211 249.055 41.7587C248.414 42.3946 247.79 43.0689 247.193 43.7693C244.364 42.1178 242.097 42.6356 240.663 43.3963C237.363 45.1477 235.321 49.9031 235.321 53.3045C235.321 53.652 235.532 53.9654 235.856 54.0984C235.963 54.1425 236.076 54.1639 236.187 54.1639C236.413 54.1639 236.635 54.0765 236.8 53.9122C238.541 52.1863 240.687 52.2942 241.389 52.3857L241.692 52.6866C241.095 54.096 240.614 55.4974 240.261 56.8605C240.133 57.3538 240.176 57.8758 240.366 58.3532C239.531 58.7345 238.726 59.2944 238.026 59.9895C235.795 62.2017 235.342 67.5929 235.324 67.8213C235.304 68.072 235.395 68.3188 235.575 68.4966C235.738 68.6583 235.959 68.7483 236.187 68.7483C236.21 68.7483 236.233 68.7474 236.256 68.7456C236.486 68.7277 241.923 68.2785 244.153 66.0664C244.854 65.3716 245.418 64.5734 245.803 63.7461C246.313 63.9449 246.837 63.9694 247.309 63.8495C248.683 63.4997 250.096 63.0227 251.517 62.4304L251.821 62.7313C251.913 63.4268 252.022 65.5555 250.281 67.2813C250.034 67.527 249.96 67.8967 250.094 68.2177C250.228 68.5389 250.544 68.7482 250.894 68.7482C254.324 68.7482 259.119 66.7226 260.885 63.45C261.652 62.0289 262.175 59.7806 260.509 56.9748C261.215 56.383 261.895 55.7643 262.537 55.1282C265.398 52.2905 267.644 48.6173 269.213 44.2108C271.174 38.711 271.361 34.0845 271.368 33.8902C271.377 33.6518 271.285 33.4205 271.115 33.2517ZM237.258 51.4561C237.797 48.8725 239.36 46.0376 241.482 44.9116C242.899 44.1593 244.449 44.233 246.096 45.1274C244.693 46.958 243.472 48.9303 242.455 51.013C242.442 51.0051 242.286 50.8106 241.997 50.7458C241.877 50.7191 239.585 50.23 237.258 51.4561ZM242.928 64.851C241.736 66.0326 238.941 66.6558 237.174 66.9103C237.431 65.1582 238.06 62.3864 239.251 61.2048C239.918 60.5431 240.692 60.0414 241.47 59.7588L244.386 62.6508C244.101 63.422 243.595 64.1892 242.928 64.851ZM246.878 62.1846C246.628 62.2483 246.337 62.1548 246.121 61.9409C245 60.8292 244.562 60.3942 244.424 60.2579C244.172 60.0076 243.553 59.3939 242.186 58.0384C241.97 57.8236 241.876 57.5356 241.94 57.2873C242.217 56.2154 242.58 55.1155 243.022 54.0051L250.188 61.1117C249.068 61.5496 247.959 61.9095 246.878 62.1846ZM259.358 62.639C258.222 64.7427 255.363 66.2933 252.758 66.8271C253.589 65.277 253.772 63.3038 253.469 62.1073C253.398 61.8294 253.215 61.6897 253.205 61.6732C255.305 60.6646 257.294 59.4545 259.14 58.0626C260.042 59.6966 260.116 61.2334 259.358 62.639ZM261.311 53.9128C260.53 54.6871 259.69 55.4352 258.812 56.1362C256.703 57.8206 254.381 59.2473 251.904 60.3831L243.756 52.3034C244.902 49.8468 246.34 47.5444 248.039 45.4528C248.746 44.5819 249.5 43.748 250.281 42.9741C252.848 40.4281 256.161 38.4019 260.131 36.9433L267.393 44.1442C265.922 48.0811 263.879 51.3668 261.311 53.9128ZM268.016 42.3317L261.959 36.325C265.259 35.3085 268.13 34.9279 269.563 34.7911C269.425 36.2124 269.041 39.0594 268.016 42.3317Z" fill="black"/>
<path d="M235.575 56.3433C235.237 56.0077 234.688 56.0077 234.35 56.3432L231.898 58.7735C231.559 59.109 231.559 59.6531 231.898 59.9888C232.236 60.3243 232.785 60.3246 233.123 59.989L235.575 57.5587C235.914 57.2232 235.914 56.679 235.575 56.3433Z" fill="black"/>
<path d="M234.349 62.4196C234.01 62.0841 233.462 62.0841 233.123 62.4197L227.254 68.241C226.915 68.5767 226.915 69.1208 227.254 69.4565C227.592 69.792 228.141 69.792 228.479 69.4564L234.349 63.635C234.687 63.2993 234.687 62.7553 234.349 62.4196Z" fill="black"/>
<path d="M253.958 50.2663C253.62 49.9308 253.071 49.9308 252.733 50.2663L251.508 51.4815C251.169 51.8171 251.169 52.3612 251.508 52.6969C251.846 53.0325 252.395 53.0325 252.733 52.6969L253.958 51.4818C254.296 51.1462 254.296 50.602 253.958 50.2663Z" fill="black"/>
<ellipse cx="258.26" cy="46" rx="3.02539" ry="3" fill="white"/>
<defs>
<filter id="filter0_d" x="0" y="0" width="307" height="189" filterUnits="userSpaceOnUse" color-interpolation-filters="sRGB">
<feFlood flood-opacity="0" result="BackgroundImageFix"/>
<feColorMatrix in="SourceAlpha" type="matrix" values="0 0 0 0 0 0 0 0 0 0 0 0 0 0 0 0 0 0 127 0"/>
<feOffset/>
<feGaussianBlur stdDeviation="1.5"/>
<feColorMatrix type="matrix" values="0 0 0 0 0 0 0 0 0 0 0 0 0 0 0 0 0 0 0.25 0"/>
<feBlend mode="normal" in2="BackgroundImageFix" result="effect1_dropShadow"/>
<feBlend mode="normal" in="SourceGraphic" in2="effect1_dropShadow" result="shape"/>
</filter>
</defs>
</svg>
