<svg width="307" height="189" viewBox="0 0 307 189" fill="none" xmlns="http://www.w3.org/2000/svg">
<g filter="url(#filter0_d)">
<rect x="3" y="3" width="301" height="183" fill="white"/>
</g>
<path d="M52.8906 148H52.0859V142.383H45.4141V148H44.6172V136.578H45.4141V141.648H52.0859V136.578H52.8906V148ZM59.3672 148.156C58.1328 148.156 57.1693 147.776 56.4766 147.016C55.7891 146.255 55.4453 145.19 55.4453 143.82C55.4453 142.466 55.7786 141.383 56.4453 140.57C57.112 139.753 58.0104 139.344 59.1406 139.344C60.1406 139.344 60.9297 139.693 61.5078 140.391C62.0859 141.089 62.375 142.036 62.375 143.234V143.859H56.2578C56.2682 145.026 56.5391 145.917 57.0703 146.531C57.6068 147.146 58.3724 147.453 59.3672 147.453C59.8516 147.453 60.276 147.419 60.6406 147.352C61.0104 147.284 61.4766 147.138 62.0391 146.914V147.617C61.5599 147.826 61.1172 147.966 60.7109 148.039C60.3047 148.117 59.8568 148.156 59.3672 148.156ZM59.1406 140.031C58.3229 140.031 57.6667 140.302 57.1719 140.844C56.6771 141.38 56.388 142.156 56.3047 143.172H61.5547C61.5547 142.188 61.3411 141.419 60.9141 140.867C60.487 140.31 59.8958 140.031 59.1406 140.031ZM65.4922 148H64.7188V135.844H65.4922V148ZM71.9766 148.156C70.6693 148.156 69.7161 147.667 69.1172 146.688H69.0625L69.0859 147.344C69.1068 147.729 69.1172 148.151 69.1172 148.609V151.844H68.3438V139.508H69L69.1484 140.719H69.1953C69.7786 139.802 70.7109 139.344 71.9922 139.344C73.138 139.344 74.0104 139.721 74.6094 140.477C75.2135 141.227 75.5156 142.32 75.5156 143.758C75.5156 145.154 75.1979 146.237 74.5625 147.008C73.9323 147.773 73.0703 148.156 71.9766 148.156ZM71.9609 147.469C72.8307 147.469 73.5026 147.146 73.9766 146.5C74.4557 145.854 74.6953 144.951 74.6953 143.789C74.6953 141.294 73.7943 140.047 71.9922 140.047C71.0026 140.047 70.276 140.32 69.8125 140.867C69.349 141.409 69.1172 142.294 69.1172 143.523V143.773C69.1172 145.102 69.3385 146.049 69.7812 146.617C70.2292 147.185 70.9557 147.469 71.9609 147.469ZM82.7031 139.508V145.008C82.7031 145.862 82.8828 146.484 83.2422 146.875C83.6016 147.26 84.1589 147.453 84.9141 147.453C85.9245 147.453 86.6667 147.198 87.1406 146.688C87.6198 146.177 87.8594 145.346 87.8594 144.195V139.508H88.625V148H87.9688L87.8281 146.828H87.7812C87.2292 147.714 86.2474 148.156 84.8359 148.156C82.9036 148.156 81.9375 147.122 81.9375 145.055V139.508H82.7031ZM96.7344 145.789C96.7344 146.549 96.4453 147.135 95.8672 147.547C95.2891 147.953 94.4688 148.156 93.4062 148.156C92.2708 148.156 91.3698 147.982 90.7031 147.633V146.797C91.5573 147.224 92.4583 147.438 93.4062 147.438C94.2448 147.438 94.8802 147.299 95.3125 147.023C95.75 146.742 95.9688 146.37 95.9688 145.906C95.9688 145.479 95.7943 145.12 95.4453 144.828C95.1016 144.536 94.5339 144.25 93.7422 143.969C92.8932 143.661 92.2969 143.398 91.9531 143.18C91.6094 142.956 91.349 142.706 91.1719 142.43C91 142.148 90.9141 141.807 90.9141 141.406C90.9141 140.771 91.1797 140.268 91.7109 139.898C92.2474 139.529 92.9948 139.344 93.9531 139.344C94.8698 139.344 95.7396 139.516 96.5625 139.859L96.2734 140.562C95.4401 140.219 94.6667 140.047 93.9531 140.047C93.2604 140.047 92.7109 140.161 92.3047 140.391C91.8984 140.62 91.6953 140.938 91.6953 141.344C91.6953 141.786 91.8516 142.141 92.1641 142.406C92.4818 142.672 93.099 142.969 94.0156 143.297C94.7812 143.573 95.3385 143.823 95.6875 144.047C96.0365 144.266 96.2969 144.516 96.4688 144.797C96.6458 145.078 96.7344 145.409 96.7344 145.789ZM103.75 139.508V145.008C103.75 145.862 103.93 146.484 104.289 146.875C104.648 147.26 105.206 147.453 105.961 147.453C106.971 147.453 107.714 147.198 108.188 146.688C108.667 146.177 108.906 145.346 108.906 144.195V139.508H109.672V148H109.016L108.875 146.828H108.828C108.276 147.714 107.294 148.156 105.883 148.156C103.951 148.156 102.984 147.122 102.984 145.055V139.508H103.75ZM118.438 148V142.492C118.438 141.638 118.258 141.018 117.898 140.633C117.539 140.242 116.982 140.047 116.227 140.047C115.211 140.047 114.466 140.305 113.992 140.82C113.523 141.331 113.289 142.161 113.289 143.312V148H112.516V139.508H113.172L113.32 140.672H113.367C113.919 139.786 114.901 139.344 116.312 139.344C118.24 139.344 119.203 140.378 119.203 142.445V148H118.438ZM125.062 139.344C125.677 139.344 126.208 139.456 126.656 139.68C127.104 139.904 127.505 140.286 127.859 140.828H127.906C127.875 140.172 127.859 139.529 127.859 138.898V135.844H128.625V148H128.117L127.922 146.703H127.859C127.214 147.672 126.286 148.156 125.078 148.156C123.906 148.156 123.01 147.792 122.391 147.062C121.771 146.333 121.461 145.271 121.461 143.875C121.461 142.406 121.768 141.284 122.383 140.508C122.997 139.732 123.891 139.344 125.062 139.344ZM125.062 140.047C124.135 140.047 123.438 140.372 122.969 141.023C122.505 141.674 122.273 142.62 122.273 143.859C122.273 146.266 123.208 147.469 125.078 147.469C126.036 147.469 126.74 147.19 127.188 146.633C127.635 146.076 127.859 145.156 127.859 143.875V143.742C127.859 142.43 127.638 141.487 127.195 140.914C126.758 140.336 126.047 140.047 125.062 140.047ZM134.914 148.156C133.68 148.156 132.716 147.776 132.023 147.016C131.336 146.255 130.992 145.19 130.992 143.82C130.992 142.466 131.326 141.383 131.992 140.57C132.659 139.753 133.557 139.344 134.688 139.344C135.688 139.344 136.477 139.693 137.055 140.391C137.633 141.089 137.922 142.036 137.922 143.234V143.859H131.805C131.815 145.026 132.086 145.917 132.617 146.531C133.154 147.146 133.919 147.453 134.914 147.453C135.398 147.453 135.823 147.419 136.188 147.352C136.557 147.284 137.023 147.138 137.586 146.914V147.617C137.107 147.826 136.664 147.966 136.258 148.039C135.852 148.117 135.404 148.156 134.914 148.156ZM134.688 140.031C133.87 140.031 133.214 140.302 132.719 140.844C132.224 141.38 131.935 142.156 131.852 143.172H137.102C137.102 142.188 136.888 141.419 136.461 140.867C136.034 140.31 135.443 140.031 134.688 140.031ZM143.609 139.344C143.969 139.344 144.354 139.38 144.766 139.453L144.617 140.195C144.263 140.107 143.896 140.062 143.516 140.062C142.792 140.062 142.198 140.37 141.734 140.984C141.271 141.599 141.039 142.375 141.039 143.312V148H140.266V139.508H140.922L141 141.039H141.055C141.404 140.414 141.776 139.977 142.172 139.727C142.568 139.471 143.047 139.344 143.609 139.344ZM151.766 145.789C151.766 146.549 151.477 147.135 150.898 147.547C150.32 147.953 149.5 148.156 148.438 148.156C147.302 148.156 146.401 147.982 145.734 147.633V146.797C146.589 147.224 147.49 147.438 148.438 147.438C149.276 147.438 149.911 147.299 150.344 147.023C150.781 146.742 151 146.37 151 145.906C151 145.479 150.826 145.12 150.477 144.828C150.133 144.536 149.565 144.25 148.773 143.969C147.924 143.661 147.328 143.398 146.984 143.18C146.641 142.956 146.38 142.706 146.203 142.43C146.031 142.148 145.945 141.807 145.945 141.406C145.945 140.771 146.211 140.268 146.742 139.898C147.279 139.529 148.026 139.344 148.984 139.344C149.901 139.344 150.771 139.516 151.594 139.859L151.305 140.562C150.471 140.219 149.698 140.047 148.984 140.047C148.292 140.047 147.742 140.161 147.336 140.391C146.93 140.62 146.727 140.938 146.727 141.344C146.727 141.786 146.883 142.141 147.195 142.406C147.513 142.672 148.13 142.969 149.047 143.297C149.812 143.573 150.37 143.823 150.719 144.047C151.068 144.266 151.328 144.516 151.5 144.797C151.677 145.078 151.766 145.409 151.766 145.789ZM156.195 147.469C156.685 147.469 157.112 147.427 157.477 147.344V147.969C157.102 148.094 156.669 148.156 156.18 148.156C155.43 148.156 154.875 147.956 154.516 147.555C154.161 147.154 153.984 146.523 153.984 145.664V140.18H152.727V139.727L153.984 139.375L154.375 137.453H154.773V139.508H157.266V140.18H154.773V145.555C154.773 146.206 154.888 146.688 155.117 147C155.346 147.312 155.706 147.469 156.195 147.469ZM164.469 148L164.273 146.656H164.211C163.784 147.203 163.344 147.591 162.891 147.82C162.443 148.044 161.911 148.156 161.297 148.156C160.464 148.156 159.815 147.943 159.352 147.516C158.888 147.089 158.656 146.497 158.656 145.742C158.656 144.914 159 144.271 159.688 143.812C160.38 143.354 161.38 143.112 162.688 143.086L164.305 143.039V142.477C164.305 141.669 164.141 141.06 163.812 140.648C163.484 140.237 162.956 140.031 162.227 140.031C161.44 140.031 160.625 140.25 159.781 140.688L159.492 140.016C160.424 139.578 161.346 139.359 162.258 139.359C163.19 139.359 163.885 139.602 164.344 140.086C164.807 140.57 165.039 141.326 165.039 142.352V148H164.469ZM161.344 147.453C162.25 147.453 162.964 147.195 163.484 146.68C164.01 146.159 164.273 145.438 164.273 144.516V143.68L162.789 143.742C161.596 143.799 160.745 143.987 160.234 144.305C159.729 144.617 159.477 145.107 159.477 145.773C159.477 146.305 159.638 146.719 159.961 147.016C160.289 147.307 160.75 147.453 161.344 147.453ZM173.719 148V142.492C173.719 141.638 173.539 141.018 173.18 140.633C172.82 140.242 172.263 140.047 171.508 140.047C170.492 140.047 169.747 140.305 169.273 140.82C168.805 141.331 168.57 142.161 168.57 143.312V148H167.797V139.508H168.453L168.602 140.672H168.648C169.201 139.786 170.182 139.344 171.594 139.344C173.521 139.344 174.484 140.378 174.484 142.445V148H173.719ZM180.344 139.344C180.958 139.344 181.49 139.456 181.938 139.68C182.385 139.904 182.786 140.286 183.141 140.828H183.188C183.156 140.172 183.141 139.529 183.141 138.898V135.844H183.906V148H183.398L183.203 146.703H183.141C182.495 147.672 181.568 148.156 180.359 148.156C179.188 148.156 178.292 147.792 177.672 147.062C177.052 146.333 176.742 145.271 176.742 143.875C176.742 142.406 177.049 141.284 177.664 140.508C178.279 139.732 179.172 139.344 180.344 139.344ZM180.344 140.047C179.417 140.047 178.719 140.372 178.25 141.023C177.786 141.674 177.555 142.62 177.555 143.859C177.555 146.266 178.49 147.469 180.359 147.469C181.318 147.469 182.021 147.19 182.469 146.633C182.917 146.076 183.141 145.156 183.141 143.875V143.742C183.141 142.43 182.919 141.487 182.477 140.914C182.039 140.336 181.328 140.047 180.344 140.047ZM189.5 139.508H190.297L192.094 144.273C192.641 145.737 192.987 146.724 193.133 147.234H193.18C193.398 146.562 193.755 145.56 194.25 144.227L196.047 139.508H196.844L193.039 149.375C192.732 150.177 192.474 150.719 192.266 151C192.057 151.281 191.812 151.492 191.531 151.633C191.255 151.773 190.919 151.844 190.523 151.844C190.227 151.844 189.896 151.789 189.531 151.68V151.008C189.833 151.091 190.159 151.133 190.508 151.133C190.773 151.133 191.008 151.07 191.211 150.945C191.414 150.82 191.596 150.625 191.758 150.359C191.924 150.099 192.115 149.682 192.328 149.109C192.547 148.542 192.688 148.172 192.75 148L189.5 139.508ZM205.289 143.742C205.289 145.128 204.953 146.211 204.281 146.992C203.609 147.768 202.682 148.156 201.5 148.156C200.755 148.156 200.099 147.977 199.531 147.617C198.964 147.258 198.529 146.742 198.227 146.07C197.924 145.398 197.773 144.622 197.773 143.742C197.773 142.357 198.109 141.279 198.781 140.508C199.453 139.732 200.375 139.344 201.547 139.344C202.714 139.344 203.628 139.737 204.289 140.523C204.956 141.305 205.289 142.378 205.289 143.742ZM198.586 143.742C198.586 144.909 198.841 145.82 199.352 146.477C199.867 147.128 200.594 147.453 201.531 147.453C202.469 147.453 203.193 147.128 203.703 146.477C204.219 145.82 204.477 144.909 204.477 143.742C204.477 142.57 204.216 141.661 203.695 141.016C203.18 140.37 202.453 140.047 201.516 140.047C200.578 140.047 199.854 140.37 199.344 141.016C198.839 141.656 198.586 142.565 198.586 143.742ZM208.312 139.508V145.008C208.312 145.862 208.492 146.484 208.852 146.875C209.211 147.26 209.768 147.453 210.523 147.453C211.534 147.453 212.276 147.198 212.75 146.688C213.229 146.177 213.469 145.346 213.469 144.195V139.508H214.234V148H213.578L213.438 146.828H213.391C212.839 147.714 211.857 148.156 210.445 148.156C208.513 148.156 207.547 147.122 207.547 145.055V139.508H208.312ZM224.82 139.344C226.008 139.344 226.901 139.719 227.5 140.469C228.104 141.214 228.406 142.305 228.406 143.742C228.406 145.154 228.089 146.242 227.453 147.008C226.823 147.773 225.935 148.156 224.789 148.156C224.185 148.156 223.641 148.031 223.156 147.781C222.672 147.531 222.289 147.177 222.008 146.719H221.938L221.719 148H221.234V135.844H222.008V138.898C222.008 139.357 221.997 139.779 221.977 140.164L221.953 140.828H222.008C222.331 140.318 222.719 139.943 223.172 139.703C223.63 139.464 224.18 139.344 224.82 139.344ZM224.805 140.047C223.805 140.047 223.089 140.333 222.656 140.906C222.224 141.479 222.008 142.424 222.008 143.742V143.875C222.008 145.156 222.232 146.076 222.68 146.633C223.133 147.19 223.836 147.469 224.789 147.469C225.716 147.469 226.414 147.146 226.883 146.5C227.352 145.849 227.586 144.924 227.586 143.727C227.586 141.273 226.659 140.047 224.805 140.047ZM234.195 148.156C232.961 148.156 231.997 147.776 231.305 147.016C230.617 146.255 230.273 145.19 230.273 143.82C230.273 142.466 230.607 141.383 231.273 140.57C231.94 139.753 232.839 139.344 233.969 139.344C234.969 139.344 235.758 139.693 236.336 140.391C236.914 141.089 237.203 142.036 237.203 143.234V143.859H231.086C231.096 145.026 231.367 145.917 231.898 146.531C232.435 147.146 233.201 147.453 234.195 147.453C234.68 147.453 235.104 147.419 235.469 147.352C235.839 147.284 236.305 147.138 236.867 146.914V147.617C236.388 147.826 235.945 147.966 235.539 148.039C235.133 148.117 234.685 148.156 234.195 148.156ZM233.969 140.031C233.151 140.031 232.495 140.302 232 140.844C231.505 141.38 231.216 142.156 231.133 143.172H236.383C236.383 142.188 236.169 141.419 235.742 140.867C235.315 140.31 234.724 140.031 233.969 140.031ZM241.789 147.469C242.279 147.469 242.706 147.427 243.07 147.344V147.969C242.695 148.094 242.263 148.156 241.773 148.156C241.023 148.156 240.469 147.956 240.109 147.555C239.755 147.154 239.578 146.523 239.578 145.664V140.18H238.32V139.727L239.578 139.375L239.969 137.453H240.367V139.508H242.859V140.18H240.367V145.555C240.367 146.206 240.482 146.688 240.711 147C240.94 147.312 241.299 147.469 241.789 147.469ZM247.148 147.469C247.638 147.469 248.065 147.427 248.43 147.344V147.969C248.055 148.094 247.622 148.156 247.133 148.156C246.383 148.156 245.828 147.956 245.469 147.555C245.115 147.154 244.938 146.523 244.938 145.664V140.18H243.68V139.727L244.938 139.375L245.328 137.453H245.727V139.508H248.219V140.18H245.727V145.555C245.727 146.206 245.841 146.688 246.07 147C246.299 147.312 246.659 147.469 247.148 147.469ZM253.695 148.156C252.461 148.156 251.497 147.776 250.805 147.016C250.117 146.255 249.773 145.19 249.773 143.82C249.773 142.466 250.107 141.383 250.773 140.57C251.44 139.753 252.339 139.344 253.469 139.344C254.469 139.344 255.258 139.693 255.836 140.391C256.414 141.089 256.703 142.036 256.703 143.234V143.859H250.586C250.596 145.026 250.867 145.917 251.398 146.531C251.935 147.146 252.701 147.453 253.695 147.453C254.18 147.453 254.604 147.419 254.969 147.352C255.339 147.284 255.805 147.138 256.367 146.914V147.617C255.888 147.826 255.445 147.966 255.039 148.039C254.633 148.117 254.185 148.156 253.695 148.156ZM253.469 140.031C252.651 140.031 251.995 140.302 251.5 140.844C251.005 141.38 250.716 142.156 250.633 143.172H255.883C255.883 142.188 255.669 141.419 255.242 140.867C254.815 140.31 254.224 140.031 253.469 140.031ZM262.391 139.344C262.75 139.344 263.135 139.38 263.547 139.453L263.398 140.195C263.044 140.107 262.677 140.062 262.297 140.062C261.573 140.062 260.979 140.37 260.516 140.984C260.052 141.599 259.82 142.375 259.82 143.312V148H259.047V139.508H259.703L259.781 141.039H259.836C260.185 140.414 260.557 139.977 260.953 139.727C261.349 139.471 261.828 139.344 262.391 139.344ZM265.125 147.391C265.125 146.88 265.333 146.625 265.75 146.625C266.177 146.625 266.391 146.88 266.391 147.391C266.391 147.901 266.177 148.156 265.75 148.156C265.333 148.156 265.125 147.901 265.125 147.391Z" fill="#263238"/>
<path d="M54.8828 76.582C54.8828 78.0117 54.3555 79.1445 53.3008 79.9805C52.2539 80.8164 50.8594 81.2344 49.1172 81.2344C47.0234 81.2344 45.418 81.0039 44.3008 80.543V79.3477C45.5352 79.8711 47.1094 80.1328 49.0234 80.1328C50.4297 80.1328 51.543 79.8125 52.3633 79.1719C53.1914 78.5234 53.6055 77.6758 53.6055 76.6289C53.6055 75.9805 53.4688 75.4453 53.1953 75.0234C52.9219 74.5938 52.4766 74.2031 51.8594 73.8516C51.2422 73.5 50.3359 73.1211 49.1406 72.7148C47.3906 72.1133 46.1797 71.4648 45.5078 70.7695C44.8438 70.0664 44.5117 69.1328 44.5117 67.9688C44.5117 66.6875 45.0117 65.6445 46.0117 64.8398C47.0195 64.0273 48.3125 63.6211 49.8906 63.6211C51.5 63.6211 53.0117 63.9258 54.4258 64.5352L53.9922 65.5664C52.5703 64.9727 51.2109 64.6758 49.9141 64.6758C48.6484 64.6758 47.6406 64.9688 46.8906 65.5547C46.1406 66.1406 45.7656 66.9375 45.7656 67.9453C45.7656 68.5781 45.8789 69.0977 46.1055 69.5039C46.3398 69.9102 46.7188 70.2773 47.2422 70.6055C47.7656 70.9258 48.6641 71.3125 49.9375 71.7656C51.2734 72.2266 52.2773 72.6758 52.9492 73.1133C53.6211 73.543 54.1094 74.0352 54.4141 74.5898C54.7266 75.1367 54.8828 75.8008 54.8828 76.582ZM63.2969 81.2344C61.4766 81.2344 60.0508 80.6602 59.0195 79.5117C57.9883 78.3633 57.4727 76.7617 57.4727 74.707C57.4727 72.5977 58.0078 70.957 59.0781 69.7852C60.1484 68.6055 61.6133 68.0156 63.4727 68.0156C64.5742 68.0156 65.6289 68.207 66.6367 68.5898L66.3203 69.6211C65.2188 69.2539 64.2617 69.0703 63.4492 69.0703C61.8867 69.0703 60.7031 69.5547 59.8984 70.5234C59.0938 71.4844 58.6914 72.8711 58.6914 74.6836C58.6914 76.4023 59.0938 77.75 59.8984 78.7266C60.7031 79.6953 61.8281 80.1797 63.2734 80.1797C64.4297 80.1797 65.5039 79.9727 66.4961 79.5586V80.6367C65.6836 81.0352 64.6172 81.2344 63.2969 81.2344ZM78.5078 81V72.7383C78.5078 71.457 78.2383 70.5273 77.6992 69.9492C77.1602 69.3633 76.3242 69.0703 75.1914 69.0703C73.668 69.0703 72.5508 69.457 71.8398 70.2305C71.1367 70.9961 70.7852 72.2422 70.7852 73.9688V81H69.625V62.7656H70.7852V68.5664L70.7266 70.1953H70.8086C71.2852 69.4297 71.8867 68.875 72.6133 68.5312C73.3398 68.1875 74.2422 68.0156 75.3203 68.0156C78.2109 68.0156 79.6562 69.5664 79.6562 72.668V81H78.5078ZM88.9258 81.2344C87.0742 81.2344 85.6289 80.6641 84.5898 79.5234C83.5586 78.3828 83.043 76.7852 83.043 74.7305C83.043 72.6992 83.543 71.0742 84.543 69.8555C85.543 68.6289 86.8906 68.0156 88.5859 68.0156C90.0859 68.0156 91.2695 68.5391 92.1367 69.5859C93.0039 70.6328 93.4375 72.0547 93.4375 73.8516V74.7891H84.2617C84.2773 76.5391 84.6836 77.875 85.4805 78.7969C86.2852 79.7188 87.4336 80.1797 88.9258 80.1797C89.6523 80.1797 90.2891 80.1289 90.8359 80.0273C91.3906 79.9258 92.0898 79.707 92.9336 79.3711V80.4258C92.2148 80.7383 91.5508 80.9492 90.9414 81.0586C90.332 81.1758 89.6602 81.2344 88.9258 81.2344ZM88.5859 69.0469C87.3594 69.0469 86.375 69.4531 85.6328 70.2656C84.8906 71.0703 84.457 72.2344 84.332 73.7578H92.207C92.207 72.2812 91.8867 71.1289 91.2461 70.3008C90.6055 69.4648 89.7188 69.0469 88.5859 69.0469ZM101.617 68.0156C102.539 68.0156 103.336 68.1836 104.008 68.5195C104.68 68.8555 105.281 69.4297 105.812 70.2422H105.883C105.836 69.2578 105.812 68.293 105.812 67.3477V62.7656H106.961V81H106.199L105.906 79.0547H105.812C104.844 80.5078 103.453 81.2344 101.641 81.2344C99.8828 81.2344 98.5391 80.6875 97.6094 79.5938C96.6797 78.5 96.2148 76.9062 96.2148 74.8125C96.2148 72.6094 96.6758 70.9258 97.5977 69.7617C98.5195 68.5977 99.8594 68.0156 101.617 68.0156ZM101.617 69.0703C100.227 69.0703 99.1797 69.5586 98.4766 70.5352C97.7812 71.5117 97.4336 72.9297 97.4336 74.7891C97.4336 78.3984 98.8359 80.2031 101.641 80.2031C103.078 80.2031 104.133 79.7852 104.805 78.9492C105.477 78.1133 105.812 76.7344 105.812 74.8125V74.6133C105.812 72.6445 105.48 71.2305 104.816 70.3711C104.16 69.5039 103.094 69.0703 101.617 69.0703ZM112.258 68.2617V76.5117C112.258 77.793 112.527 78.7266 113.066 79.3125C113.605 79.8906 114.441 80.1797 115.574 80.1797C117.09 80.1797 118.203 79.7969 118.914 79.0312C119.633 78.2656 119.992 77.0195 119.992 75.293V68.2617H121.141V81H120.156L119.945 79.2422H119.875C119.047 80.5703 117.574 81.2344 115.457 81.2344C112.559 81.2344 111.109 79.6836 111.109 76.582V68.2617H112.258ZM126.566 81H125.406V62.7656H126.566V81ZM135.988 81.2344C134.137 81.2344 132.691 80.6641 131.652 79.5234C130.621 78.3828 130.105 76.7852 130.105 74.7305C130.105 72.6992 130.605 71.0742 131.605 69.8555C132.605 68.6289 133.953 68.0156 135.648 68.0156C137.148 68.0156 138.332 68.5391 139.199 69.5859C140.066 70.6328 140.5 72.0547 140.5 73.8516V74.7891H131.324C131.34 76.5391 131.746 77.875 132.543 78.7969C133.348 79.7188 134.496 80.1797 135.988 80.1797C136.715 80.1797 137.352 80.1289 137.898 80.0273C138.453 79.9258 139.152 79.707 139.996 79.3711V80.4258C139.277 80.7383 138.613 80.9492 138.004 81.0586C137.395 81.1758 136.723 81.2344 135.988 81.2344ZM135.648 69.0469C134.422 69.0469 133.438 69.4531 132.695 70.2656C131.953 71.0703 131.52 72.2344 131.395 73.7578H139.27C139.27 72.2812 138.949 71.1289 138.309 70.3008C137.668 69.4648 136.781 69.0469 135.648 69.0469ZM157.984 81L157.691 78.9844H157.598C156.957 79.8047 156.297 80.3867 155.617 80.7305C154.945 81.0664 154.148 81.2344 153.227 81.2344C151.977 81.2344 151.004 80.9141 150.309 80.2734C149.613 79.6328 149.266 78.7461 149.266 77.6133C149.266 76.3711 149.781 75.4062 150.812 74.7188C151.852 74.0312 153.352 73.668 155.312 73.6289L157.738 73.5586V72.7148C157.738 71.5039 157.492 70.5898 157 69.9727C156.508 69.3555 155.715 69.0469 154.621 69.0469C153.441 69.0469 152.219 69.375 150.953 70.0312L150.52 69.0234C151.918 68.3672 153.301 68.0391 154.668 68.0391C156.066 68.0391 157.109 68.4023 157.797 69.1289C158.492 69.8555 158.84 70.9883 158.84 72.5273V81H157.984ZM153.297 80.1797C154.656 80.1797 155.727 79.793 156.508 79.0195C157.297 78.2383 157.691 77.1562 157.691 75.7734V74.5195L155.465 74.6133C153.676 74.6992 152.398 74.9805 151.633 75.457C150.875 75.9258 150.496 76.6602 150.496 77.6602C150.496 78.457 150.738 79.0781 151.223 79.5234C151.715 79.9609 152.406 80.1797 153.297 80.1797ZM171.859 81V72.7383C171.859 71.457 171.59 70.5273 171.051 69.9492C170.512 69.3633 169.676 69.0703 168.543 69.0703C167.02 69.0703 165.902 69.457 165.191 70.2305C164.488 70.9961 164.137 72.2422 164.137 73.9688V81H162.977V68.2617H163.961L164.184 70.0078H164.254C165.082 68.6797 166.555 68.0156 168.672 68.0156C171.562 68.0156 173.008 69.5664 173.008 72.668V81H171.859ZM45.4258 114V96.8672H46.6211V114H45.4258ZM60.0625 114V105.738C60.0625 104.457 59.793 103.527 59.2539 102.949C58.7148 102.363 57.8789 102.07 56.7461 102.07C55.2227 102.07 54.1055 102.457 53.3945 103.23C52.6914 103.996 52.3398 105.242 52.3398 106.969V114H51.1797V101.262H52.1641L52.3867 103.008H52.457C53.2852 101.68 54.7578 101.016 56.875 101.016C59.7656 101.016 61.2109 102.566 61.2109 105.668V114H60.0625ZM68.6992 113.203C69.4336 113.203 70.0742 113.141 70.6211 113.016V113.953C70.0586 114.141 69.4102 114.234 68.6758 114.234C67.5508 114.234 66.7188 113.934 66.1797 113.332C65.6484 112.73 65.3828 111.785 65.3828 110.496V102.27H63.4961V101.59L65.3828 101.062L65.9688 98.1797H66.5664V101.262H70.3047V102.27H66.5664V110.332C66.5664 111.309 66.7383 112.031 67.082 112.5C67.4258 112.969 67.9648 113.203 68.6992 113.203ZM78.5195 114.234C76.668 114.234 75.2227 113.664 74.1836 112.523C73.1523 111.383 72.6367 109.785 72.6367 107.73C72.6367 105.699 73.1367 104.074 74.1367 102.855C75.1367 101.629 76.4844 101.016 78.1797 101.016C79.6797 101.016 80.8633 101.539 81.7305 102.586C82.5977 103.633 83.0312 105.055 83.0312 106.852V107.789H73.8555C73.8711 109.539 74.2773 110.875 75.0742 111.797C75.8789 112.719 77.0273 113.18 78.5195 113.18C79.2461 113.18 79.8828 113.129 80.4297 113.027C80.9844 112.926 81.6836 112.707 82.5273 112.371V113.426C81.8086 113.738 81.1445 113.949 80.5352 114.059C79.9258 114.176 79.2539 114.234 78.5195 114.234ZM78.1797 102.047C76.9531 102.047 75.9688 102.453 75.2266 103.266C74.4844 104.07 74.0508 105.234 73.9258 106.758H81.8008C81.8008 105.281 81.4805 104.129 80.8398 103.301C80.1992 102.465 79.3125 102.047 78.1797 102.047ZM91.5625 101.016C92.1016 101.016 92.6797 101.07 93.2969 101.18L93.0742 102.293C92.543 102.16 91.9922 102.094 91.4219 102.094C90.3359 102.094 89.4453 102.555 88.75 103.477C88.0547 104.398 87.707 105.562 87.707 106.969V114H86.5469V101.262H87.5312L87.6484 103.559H87.7305C88.2539 102.621 88.8125 101.965 89.4062 101.59C90 101.207 90.7188 101.016 91.5625 101.016ZM98.6875 114L93.7656 101.262H94.9609L98.2539 109.922C98.6914 111.031 99.0195 112 99.2383 112.828H99.3086C99.6289 111.766 99.957 110.789 100.293 109.898L103.586 101.262H104.781L99.8594 114H98.6875ZM108.074 114H106.914V101.262H108.074V114ZM106.75 97.7227C106.75 96.9727 106.996 96.5977 107.488 96.5977C107.73 96.5977 107.918 96.6953 108.051 96.8906C108.191 97.0859 108.262 97.3633 108.262 97.7227C108.262 98.0742 108.191 98.3516 108.051 98.5547C107.918 98.7578 107.73 98.8594 107.488 98.8594C106.996 98.8594 106.75 98.4805 106.75 97.7227ZM117.496 114.234C115.645 114.234 114.199 113.664 113.16 112.523C112.129 111.383 111.613 109.785 111.613 107.73C111.613 105.699 112.113 104.074 113.113 102.855C114.113 101.629 115.461 101.016 117.156 101.016C118.656 101.016 119.84 101.539 120.707 102.586C121.574 103.633 122.008 105.055 122.008 106.852V107.789H112.832C112.848 109.539 113.254 110.875 114.051 111.797C114.855 112.719 116.004 113.18 117.496 113.18C118.223 113.18 118.859 113.129 119.406 113.027C119.961 112.926 120.66 112.707 121.504 112.371V113.426C120.785 113.738 120.121 113.949 119.512 114.059C118.902 114.176 118.23 114.234 117.496 114.234ZM117.156 102.047C115.93 102.047 114.945 102.453 114.203 103.266C113.461 104.07 113.027 105.234 112.902 106.758H120.777C120.777 105.281 120.457 104.129 119.816 103.301C119.176 102.465 118.289 102.047 117.156 102.047ZM135.707 114L132.918 105.48C132.738 104.902 132.508 104.055 132.227 102.938H132.156L131.91 103.805L131.383 105.504L128.547 114H127.398L123.754 101.262H124.996L127.035 108.645C127.512 110.473 127.824 111.816 127.973 112.676H128.043C128.504 110.848 128.84 109.633 129.051 109.031L131.676 101.262H132.73L135.227 109.008C135.789 110.844 136.133 112.059 136.258 112.652H136.328C136.391 112.145 136.703 110.785 137.266 108.574L139.211 101.262H140.383L136.926 114H135.707Z" fill="#263238"/>
<rect x="240.109" y="39.4124" width="30.2515" height="22" rx="3" fill="#FFC062"/>
<path d="M266.831 68.9124L260.276 61.4124L267.335 59.9124V68.9124H266.831Z" fill="#FFC062"/>
<path d="M265.524 44.8386H244.9C244.541 44.8386 244.25 45.1272 244.25 45.4832C244.25 45.8391 244.541 46.1277 244.9 46.1277H265.524C265.883 46.1277 266.174 45.8391 266.174 45.4832C266.174 45.1272 265.883 44.8386 265.524 44.8386Z" fill="black"/>
<path d="M265.524 49.7656H244.9C244.541 49.7656 244.25 50.0542 244.25 50.4102C244.25 50.7661 244.541 51.0547 244.9 51.0547H265.524C265.883 51.0547 266.174 50.7661 266.174 50.4102C266.174 50.0542 265.883 49.7656 265.524 49.7656Z" fill="black"/>
<path d="M265.524 54.6926H244.9C244.541 54.6926 244.25 54.9812 244.25 55.3372C244.25 55.6931 244.541 55.9817 244.9 55.9817H265.524C265.883 55.9817 266.174 55.6931 266.174 55.3372C266.174 54.9812 265.883 54.6926 265.524 54.6926Z" fill="black"/>
<path d="M267.588 39.2017H242.835C240.751 39.2017 239.055 40.8833 239.055 42.9504V58.3863C239.055 60.4533 240.75 62.135 242.835 62.135H260.185C260.37 62.135 260.543 62.2178 260.658 62.3622L266.261 69.3965C266.481 69.6737 266.804 69.8248 267.141 69.8248C267.266 69.8248 267.394 69.8039 267.519 69.7608C267.981 69.6018 268.279 69.1859 268.279 68.7013V62.071C270.032 61.7463 271.369 60.2097 271.369 58.3863V42.9503C271.369 40.8833 269.673 39.2017 267.588 39.2017ZM270.069 58.3863C270.069 59.7249 268.971 60.8279 267.621 60.8449C267.265 60.8495 266.979 61.1367 266.979 61.4895V68.2188L261.678 61.5632C261.315 61.1073 260.771 60.8459 260.185 60.8459H242.835C241.467 60.8459 240.355 59.7424 240.355 58.3862V42.9503C240.355 41.5941 241.467 40.4906 242.835 40.4906H267.588C268.956 40.4906 270.069 41.5941 270.069 42.9503V58.3863Z" fill="black"/>
<path d="M236.575 49.8591C236.131 49.9216 235.732 50.1486 235.454 50.498L230.989 56.1034V50.4855C230.989 50.1328 230.703 49.8456 230.348 49.841C229.219 49.8267 228.3 48.904 228.3 47.7841V34.3468C228.3 33.2122 229.231 32.2891 230.375 32.2891H251.923C253.068 32.2891 253.998 33.2122 253.998 34.3468V36.8332C253.998 37.1891 254.289 37.4777 254.648 37.4777C255.007 37.4777 255.298 37.1891 255.298 36.8332V34.3468C255.298 32.5014 253.784 31 251.923 31H230.375C228.514 31 227 32.5014 227 34.3468V47.7841C227 49.3883 228.159 50.7436 229.69 51.0604V56.7637C229.69 57.2216 229.971 57.6146 230.408 57.7648C230.526 57.8055 230.646 57.8253 230.765 57.8253C231.084 57.8253 231.388 57.6825 231.597 57.4206L236.474 51.2971C236.545 51.2086 236.645 51.1512 236.758 51.1353C237.113 51.0853 237.361 50.759 237.31 50.4066C237.26 50.0541 236.931 49.8088 236.575 49.8591Z" fill="black"/>
<defs>
<filter id="filter0_d" x="0" y="0" width="307" height="189" filterUnits="userSpaceOnUse" color-interpolation-filters="sRGB">
<feFlood flood-opacity="0" result="BackgroundImageFix"/>
<feColorMatrix in="SourceAlpha" type="matrix" values="0 0 0 0 0 0 0 0 0 0 0 0 0 0 0 0 0 0 127 0"/>
<feOffset/>
<feGaussianBlur stdDeviation="1.5"/>
<feColorMatrix type="matrix" values="0 0 0 0 0 0 0 0 0 0 0 0 0 0 0 0 0 0 0.25 0"/>
<feBlend mode="normal" in2="BackgroundImageFix" result="effect1_dropShadow"/>
<feBlend mode="normal" in="SourceGraphic" in2="effect1_dropShadow" result="shape"/>
</filter>
</defs>
</svg>
