<svg width="307" height="189" viewBox="0 0 307 189" fill="none" xmlns="http://www.w3.org/2000/svg">
<g filter="url(#filter0_d)">
<rect x="3" y="3" width="301" height="183" fill="white"/>
</g>
<path d="M41.6211 81H40.4258V63.8672H49.8125V64.9688H41.6211V72.2344H49.3555V73.3477H41.6211V81ZM53.3398 81H52.1797V68.2617H53.3398V81ZM52.0156 64.7227C52.0156 63.9727 52.2617 63.5977 52.7539 63.5977C52.9961 63.5977 53.1836 63.6953 53.3164 63.8906C53.457 64.0859 53.5273 64.3633 53.5273 64.7227C53.5273 65.0742 53.457 65.3516 53.3164 65.5547C53.1836 65.7578 52.9961 65.8594 52.7539 65.8594C52.2617 65.8594 52.0156 65.4805 52.0156 64.7227ZM60.7461 74.4492L56.3047 68.2617H57.6406L61.4375 73.6289L65.1992 68.2617H66.4766L62.1055 74.4492L66.793 81H65.4453L61.4375 75.3164L57.4062 81H56.1289L60.7461 74.4492ZM83.5391 81L83.2461 78.9844H83.1523C82.5117 79.8047 81.8516 80.3867 81.1719 80.7305C80.5 81.0664 79.7031 81.2344 78.7812 81.2344C77.5312 81.2344 76.5586 80.9141 75.8633 80.2734C75.168 79.6328 74.8203 78.7461 74.8203 77.6133C74.8203 76.3711 75.3359 75.4062 76.3672 74.7188C77.4062 74.0312 78.9062 73.668 80.8672 73.6289L83.293 73.5586V72.7148C83.293 71.5039 83.0469 70.5898 82.5547 69.9727C82.0625 69.3555 81.2695 69.0469 80.1758 69.0469C78.9961 69.0469 77.7734 69.375 76.5078 70.0312L76.0742 69.0234C77.4727 68.3672 78.8555 68.0391 80.2227 68.0391C81.6211 68.0391 82.6641 68.4023 83.3516 69.1289C84.0469 69.8555 84.3945 70.9883 84.3945 72.5273V81H83.5391ZM78.8516 80.1797C80.2109 80.1797 81.2812 79.793 82.0625 79.0195C82.8516 78.2383 83.2461 77.1562 83.2461 75.7734V74.5195L81.0195 74.6133C79.2305 74.6992 77.9531 74.9805 77.1875 75.457C76.4297 75.9258 76.0508 76.6602 76.0508 77.6602C76.0508 78.457 76.293 79.0781 76.7773 79.5234C77.2695 79.9609 77.9609 80.1797 78.8516 80.1797ZM97.4141 81V72.7383C97.4141 71.457 97.1445 70.5273 96.6055 69.9492C96.0664 69.3633 95.2305 69.0703 94.0977 69.0703C92.5742 69.0703 91.457 69.457 90.7461 70.2305C90.043 70.9961 89.6914 72.2422 89.6914 73.9688V81H88.5312V68.2617H89.5156L89.7383 70.0078H89.8086C90.6367 68.6797 92.1094 68.0156 94.2266 68.0156C97.1172 68.0156 98.5625 69.5664 98.5625 72.668V81H97.4141ZM48.6758 107.953H41.7148L39.3242 114H38L44.8906 96.7969H45.6523L52.4023 114H51.0547L48.6758 107.953ZM42.1484 106.875H48.2773L45.9453 100.699C45.75 100.215 45.5156 99.543 45.2422 98.6836C45.0312 99.4336 44.8008 100.113 44.5508 100.723L42.1484 106.875ZM59.9961 114.234C58.0352 114.234 56.6055 113.5 55.707 112.031H55.625L55.6602 113.016C55.6914 113.594 55.707 114.227 55.707 114.914V119.766H54.5469V101.262H55.5312L55.7539 103.078H55.8242C56.6992 101.703 58.0977 101.016 60.0195 101.016C61.7383 101.016 63.0469 101.582 63.9453 102.715C64.8516 103.84 65.3047 105.48 65.3047 107.637C65.3047 109.73 64.8281 111.355 63.875 112.512C62.9297 113.66 61.6367 114.234 59.9961 114.234ZM59.9727 113.203C61.2773 113.203 62.2852 112.719 62.9961 111.75C63.7148 110.781 64.0742 109.426 64.0742 107.684C64.0742 103.941 62.7227 102.07 60.0195 102.07C58.5352 102.07 57.4453 102.48 56.75 103.301C56.0547 104.113 55.707 105.441 55.707 107.285V107.66C55.707 109.652 56.0391 111.074 56.7031 111.926C57.375 112.777 58.4648 113.203 59.9727 113.203ZM74.293 114.234C72.332 114.234 70.9023 113.5 70.0039 112.031H69.9219L69.957 113.016C69.9883 113.594 70.0039 114.227 70.0039 114.914V119.766H68.8438V101.262H69.8281L70.0508 103.078H70.1211C70.9961 101.703 72.3945 101.016 74.3164 101.016C76.0352 101.016 77.3438 101.582 78.2422 102.715C79.1484 103.84 79.6016 105.48 79.6016 107.637C79.6016 109.73 79.125 111.355 78.1719 112.512C77.2266 113.66 75.9336 114.234 74.293 114.234ZM74.2695 113.203C75.5742 113.203 76.582 112.719 77.293 111.75C78.0117 110.781 78.3711 109.426 78.3711 107.684C78.3711 103.941 77.0195 102.07 74.3164 102.07C72.832 102.07 71.7422 102.48 71.0469 103.301C70.3516 104.113 70.0039 105.441 70.0039 107.285V107.66C70.0039 109.652 70.3359 111.074 71 111.926C71.6719 112.777 72.7617 113.203 74.2695 113.203ZM93.6758 107.613C93.6758 109.691 93.1719 111.316 92.1641 112.488C91.1562 113.652 89.7656 114.234 87.9922 114.234C86.875 114.234 85.8906 113.965 85.0391 113.426C84.1875 112.887 83.5352 112.113 83.082 111.105C82.6289 110.098 82.4023 108.934 82.4023 107.613C82.4023 105.535 82.9062 103.918 83.9141 102.762C84.9219 101.598 86.3047 101.016 88.0625 101.016C89.8125 101.016 91.1836 101.605 92.1758 102.785C93.1758 103.957 93.6758 105.566 93.6758 107.613ZM83.6211 107.613C83.6211 109.363 84.0039 110.73 84.7695 111.715C85.543 112.691 86.6328 113.18 88.0391 113.18C89.4453 113.18 90.5312 112.691 91.2969 111.715C92.0703 110.73 92.457 109.363 92.457 107.613C92.457 105.855 92.0664 104.492 91.2852 103.523C90.5117 102.555 89.4219 102.07 88.0156 102.07C86.6094 102.07 85.5234 102.555 84.7578 103.523C84 104.484 83.6211 105.848 83.6211 107.613ZM98.3633 114H97.2031V101.262H98.3633V114ZM97.0391 97.7227C97.0391 96.9727 97.2852 96.5977 97.7773 96.5977C98.0195 96.5977 98.207 96.6953 98.3398 96.8906C98.4805 97.0859 98.5508 97.3633 98.5508 97.7227C98.5508 98.0742 98.4805 98.3516 98.3398 98.5547C98.207 98.7578 98.0195 98.8594 97.7773 98.8594C97.2852 98.8594 97.0391 98.4805 97.0391 97.7227ZM111.523 114V105.738C111.523 104.457 111.254 103.527 110.715 102.949C110.176 102.363 109.34 102.07 108.207 102.07C106.684 102.07 105.566 102.457 104.855 103.23C104.152 103.996 103.801 105.242 103.801 106.969V114H102.641V101.262H103.625L103.848 103.008H103.918C104.746 101.68 106.219 101.016 108.336 101.016C111.227 101.016 112.672 102.566 112.672 105.668V114H111.523ZM120.16 113.203C120.895 113.203 121.535 113.141 122.082 113.016V113.953C121.52 114.141 120.871 114.234 120.137 114.234C119.012 114.234 118.18 113.934 117.641 113.332C117.109 112.73 116.844 111.785 116.844 110.496V102.27H114.957V101.59L116.844 101.062L117.43 98.1797H118.027V101.262H121.766V102.27H118.027V110.332C118.027 111.309 118.199 112.031 118.543 112.5C118.887 112.969 119.426 113.203 120.16 113.203ZM140.75 114V105.645C140.75 104.402 140.508 103.496 140.023 102.926C139.539 102.355 138.797 102.07 137.797 102.07C136.492 102.07 135.527 102.43 134.902 103.148C134.277 103.867 133.965 104.996 133.965 106.535V114H132.781V105.293C132.781 103.145 131.797 102.07 129.828 102.07C128.492 102.07 127.52 102.461 126.91 103.242C126.301 104.016 125.996 105.258 125.996 106.969V114H124.836V101.262H125.797L126.043 103.008H126.113C126.465 102.375 126.965 101.887 127.613 101.543C128.262 101.191 128.977 101.016 129.758 101.016C131.766 101.016 133.055 101.77 133.625 103.277H133.672C134.086 102.551 134.641 101.992 135.336 101.602C136.039 101.211 136.836 101.016 137.727 101.016C139.117 101.016 140.16 101.387 140.855 102.129C141.551 102.871 141.898 104.051 141.898 105.668V114H140.75ZM151.168 114.234C149.316 114.234 147.871 113.664 146.832 112.523C145.801 111.383 145.285 109.785 145.285 107.73C145.285 105.699 145.785 104.074 146.785 102.855C147.785 101.629 149.133 101.016 150.828 101.016C152.328 101.016 153.512 101.539 154.379 102.586C155.246 103.633 155.68 105.055 155.68 106.852V107.789H146.504C146.52 109.539 146.926 110.875 147.723 111.797C148.527 112.719 149.676 113.18 151.168 113.18C151.895 113.18 152.531 113.129 153.078 113.027C153.633 112.926 154.332 112.707 155.176 112.371V113.426C154.457 113.738 153.793 113.949 153.184 114.059C152.574 114.176 151.902 114.234 151.168 114.234ZM150.828 102.047C149.602 102.047 148.617 102.453 147.875 103.266C147.133 104.07 146.699 105.234 146.574 106.758H154.449C154.449 105.281 154.129 104.129 153.488 103.301C152.848 102.465 151.961 102.047 150.828 102.047ZM168.078 114V105.738C168.078 104.457 167.809 103.527 167.27 102.949C166.73 102.363 165.895 102.07 164.762 102.07C163.238 102.07 162.121 102.457 161.41 103.23C160.707 103.996 160.355 105.242 160.355 106.969V114H159.195V101.262H160.18L160.402 103.008H160.473C161.301 101.68 162.773 101.016 164.891 101.016C167.781 101.016 169.227 102.566 169.227 105.668V114H168.078ZM176.715 113.203C177.449 113.203 178.09 113.141 178.637 113.016V113.953C178.074 114.141 177.426 114.234 176.691 114.234C175.566 114.234 174.734 113.934 174.195 113.332C173.664 112.73 173.398 111.785 173.398 110.496V102.27H171.512V101.59L173.398 101.062L173.984 98.1797H174.582V101.262H178.32V102.27H174.582V110.332C174.582 111.309 174.754 112.031 175.098 112.5C175.441 112.969 175.98 113.203 176.715 113.203Z" fill="#263238"/>
<path d="M44.4922 137.133C43.0599 137.133 41.9323 137.591 41.1094 138.508C40.2865 139.424 39.875 140.68 39.875 142.273C39.875 143.904 40.263 145.169 41.0391 146.07C41.8151 146.971 42.9245 147.422 44.3672 147.422C45.3255 147.422 46.2057 147.299 47.0078 147.055V147.758C46.2526 148.023 45.3099 148.156 44.1797 148.156C42.5755 148.156 41.3125 147.638 40.3906 146.602C39.4688 145.565 39.0078 144.117 39.0078 142.258C39.0078 141.096 39.2266 140.073 39.6641 139.188C40.1068 138.302 40.7396 137.62 41.5625 137.141C42.3906 136.656 43.3516 136.414 44.4453 136.414C45.5599 136.414 46.5573 136.622 47.4375 137.039L47.1172 137.758C46.2839 137.341 45.4089 137.133 44.4922 137.133ZM56.3828 143.742C56.3828 145.128 56.0469 146.211 55.375 146.992C54.7031 147.768 53.776 148.156 52.5938 148.156C51.849 148.156 51.1927 147.977 50.625 147.617C50.0573 147.258 49.6224 146.742 49.3203 146.07C49.0182 145.398 48.8672 144.622 48.8672 143.742C48.8672 142.357 49.2031 141.279 49.875 140.508C50.5469 139.732 51.4688 139.344 52.6406 139.344C53.8073 139.344 54.7214 139.737 55.3828 140.523C56.0495 141.305 56.3828 142.378 56.3828 143.742ZM49.6797 143.742C49.6797 144.909 49.9349 145.82 50.4453 146.477C50.9609 147.128 51.6875 147.453 52.625 147.453C53.5625 147.453 54.2865 147.128 54.7969 146.477C55.3125 145.82 55.5703 144.909 55.5703 143.742C55.5703 142.57 55.3099 141.661 54.7891 141.016C54.2734 140.37 53.5469 140.047 52.6094 140.047C51.6719 140.047 50.9479 140.37 50.4375 141.016C49.9323 141.656 49.6797 142.565 49.6797 143.742ZM64.6562 148V142.492C64.6562 141.638 64.4766 141.018 64.1172 140.633C63.7578 140.242 63.2005 140.047 62.4453 140.047C61.4297 140.047 60.6849 140.305 60.2109 140.82C59.7422 141.331 59.5078 142.161 59.5078 143.312V148H58.7344V139.508H59.3906L59.5391 140.672H59.5859C60.138 139.786 61.1198 139.344 62.5312 139.344C64.4583 139.344 65.4219 140.378 65.4219 142.445V148H64.6562ZM70.4141 147.469C70.9036 147.469 71.3307 147.427 71.6953 147.344V147.969C71.3203 148.094 70.888 148.156 70.3984 148.156C69.6484 148.156 69.0938 147.956 68.7344 147.555C68.3802 147.154 68.2031 146.523 68.2031 145.664V140.18H66.9453V139.727L68.2031 139.375L68.5938 137.453H68.9922V139.508H71.4844V140.18H68.9922V145.555C68.9922 146.206 69.1068 146.688 69.3359 147C69.5651 147.312 69.9245 147.469 70.4141 147.469ZM78.6875 148L78.4922 146.656H78.4297C78.0026 147.203 77.5625 147.591 77.1094 147.82C76.6615 148.044 76.1302 148.156 75.5156 148.156C74.6823 148.156 74.0339 147.943 73.5703 147.516C73.1068 147.089 72.875 146.497 72.875 145.742C72.875 144.914 73.2188 144.271 73.9062 143.812C74.599 143.354 75.599 143.112 76.9062 143.086L78.5234 143.039V142.477C78.5234 141.669 78.3594 141.06 78.0312 140.648C77.7031 140.237 77.1745 140.031 76.4453 140.031C75.6589 140.031 74.8438 140.25 74 140.688L73.7109 140.016C74.6432 139.578 75.5651 139.359 76.4766 139.359C77.4089 139.359 78.1042 139.602 78.5625 140.086C79.026 140.57 79.2578 141.326 79.2578 142.352V148H78.6875ZM75.5625 147.453C76.4688 147.453 77.1823 147.195 77.7031 146.68C78.2292 146.159 78.4922 145.438 78.4922 144.516V143.68L77.0078 143.742C75.8151 143.799 74.9635 143.987 74.4531 144.305C73.9479 144.617 73.6953 145.107 73.6953 145.773C73.6953 146.305 73.8568 146.719 74.1797 147.016C74.5078 147.307 74.9688 147.453 75.5625 147.453ZM85.4062 148.156C84.1927 148.156 83.2422 147.773 82.5547 147.008C81.8672 146.242 81.5234 145.174 81.5234 143.805C81.5234 142.398 81.8802 141.305 82.5938 140.523C83.3073 139.737 84.2839 139.344 85.5234 139.344C86.2578 139.344 86.9609 139.471 87.6328 139.727L87.4219 140.414C86.6875 140.169 86.0495 140.047 85.5078 140.047C84.4661 140.047 83.6771 140.37 83.1406 141.016C82.6042 141.656 82.3359 142.581 82.3359 143.789C82.3359 144.935 82.6042 145.833 83.1406 146.484C83.6771 147.13 84.4271 147.453 85.3906 147.453C86.1615 147.453 86.8776 147.315 87.5391 147.039V147.758C86.9974 148.023 86.2865 148.156 85.4062 148.156ZM91.8672 147.469C92.3568 147.469 92.7839 147.427 93.1484 147.344V147.969C92.7734 148.094 92.3411 148.156 91.8516 148.156C91.1016 148.156 90.5469 147.956 90.1875 147.555C89.8333 147.154 89.6562 146.523 89.6562 145.664V140.18H88.3984V139.727L89.6562 139.375L90.0469 137.453H90.4453V139.508H92.9375V140.18H90.4453V145.555C90.4453 146.206 90.5599 146.688 90.7891 147C91.0182 147.312 91.3776 147.469 91.8672 147.469ZM99.8125 139.508V145.008C99.8125 145.862 99.9922 146.484 100.352 146.875C100.711 147.26 101.268 147.453 102.023 147.453C103.034 147.453 103.776 147.198 104.25 146.688C104.729 146.177 104.969 145.346 104.969 144.195V139.508H105.734V148H105.078L104.938 146.828H104.891C104.339 147.714 103.357 148.156 101.945 148.156C100.013 148.156 99.0469 147.122 99.0469 145.055V139.508H99.8125ZM113.844 145.789C113.844 146.549 113.555 147.135 112.977 147.547C112.398 147.953 111.578 148.156 110.516 148.156C109.38 148.156 108.479 147.982 107.812 147.633V146.797C108.667 147.224 109.568 147.438 110.516 147.438C111.354 147.438 111.99 147.299 112.422 147.023C112.859 146.742 113.078 146.37 113.078 145.906C113.078 145.479 112.904 145.12 112.555 144.828C112.211 144.536 111.643 144.25 110.852 143.969C110.003 143.661 109.406 143.398 109.062 143.18C108.719 142.956 108.458 142.706 108.281 142.43C108.109 142.148 108.023 141.807 108.023 141.406C108.023 140.771 108.289 140.268 108.82 139.898C109.357 139.529 110.104 139.344 111.062 139.344C111.979 139.344 112.849 139.516 113.672 139.859L113.383 140.562C112.549 140.219 111.776 140.047 111.062 140.047C110.37 140.047 109.82 140.161 109.414 140.391C109.008 140.62 108.805 140.938 108.805 141.344C108.805 141.786 108.961 142.141 109.273 142.406C109.591 142.672 110.208 142.969 111.125 143.297C111.891 143.573 112.448 143.823 112.797 144.047C113.146 144.266 113.406 144.516 113.578 144.797C113.755 145.078 113.844 145.409 113.844 145.789ZM125.344 148L125.148 146.656H125.086C124.659 147.203 124.219 147.591 123.766 147.82C123.318 148.044 122.786 148.156 122.172 148.156C121.339 148.156 120.69 147.943 120.227 147.516C119.763 147.089 119.531 146.497 119.531 145.742C119.531 144.914 119.875 144.271 120.562 143.812C121.255 143.354 122.255 143.112 123.562 143.086L125.18 143.039V142.477C125.18 141.669 125.016 141.06 124.688 140.648C124.359 140.237 123.831 140.031 123.102 140.031C122.315 140.031 121.5 140.25 120.656 140.688L120.367 140.016C121.299 139.578 122.221 139.359 123.133 139.359C124.065 139.359 124.76 139.602 125.219 140.086C125.682 140.57 125.914 141.326 125.914 142.352V148H125.344ZM122.219 147.453C123.125 147.453 123.839 147.195 124.359 146.68C124.885 146.159 125.148 145.438 125.148 144.516V143.68L123.664 143.742C122.471 143.799 121.62 143.987 121.109 144.305C120.604 144.617 120.352 145.107 120.352 145.773C120.352 146.305 120.513 146.719 120.836 147.016C121.164 147.307 121.625 147.453 122.219 147.453ZM134.594 148V142.492C134.594 141.638 134.414 141.018 134.055 140.633C133.695 140.242 133.138 140.047 132.383 140.047C131.367 140.047 130.622 140.305 130.148 140.82C129.68 141.331 129.445 142.161 129.445 143.312V148H128.672V139.508H129.328L129.477 140.672H129.523C130.076 139.786 131.057 139.344 132.469 139.344C134.396 139.344 135.359 140.378 135.359 142.445V148H134.594ZM141.219 139.344C141.833 139.344 142.365 139.456 142.812 139.68C143.26 139.904 143.661 140.286 144.016 140.828H144.062C144.031 140.172 144.016 139.529 144.016 138.898V135.844H144.781V148H144.273L144.078 146.703H144.016C143.37 147.672 142.443 148.156 141.234 148.156C140.062 148.156 139.167 147.792 138.547 147.062C137.927 146.333 137.617 145.271 137.617 143.875C137.617 142.406 137.924 141.284 138.539 140.508C139.154 139.732 140.047 139.344 141.219 139.344ZM141.219 140.047C140.292 140.047 139.594 140.372 139.125 141.023C138.661 141.674 138.43 142.62 138.43 143.859C138.43 146.266 139.365 147.469 141.234 147.469C142.193 147.469 142.896 147.19 143.344 146.633C143.792 146.076 144.016 145.156 144.016 143.875V143.742C144.016 142.43 143.794 141.487 143.352 140.914C142.914 140.336 142.203 140.047 141.219 140.047ZM158.422 139.508V140.047L156.664 140.156C157.133 140.74 157.367 141.38 157.367 142.078C157.367 142.896 157.094 143.56 156.547 144.07C156.005 144.576 155.276 144.828 154.359 144.828C153.974 144.828 153.703 144.812 153.547 144.781C153.24 144.943 153.005 145.133 152.844 145.352C152.682 145.57 152.602 145.802 152.602 146.047C152.602 146.318 152.703 146.516 152.906 146.641C153.115 146.766 153.461 146.828 153.945 146.828H155.43C156.352 146.828 157.057 147.016 157.547 147.391C158.036 147.76 158.281 148.31 158.281 149.039C158.281 149.935 157.917 150.625 157.188 151.109C156.464 151.599 155.43 151.844 154.086 151.844C153.018 151.844 152.19 151.638 151.602 151.227C151.018 150.815 150.727 150.242 150.727 149.508C150.727 148.924 150.906 148.44 151.266 148.055C151.63 147.669 152.122 147.406 152.742 147.266C152.487 147.156 152.281 147.003 152.125 146.805C151.974 146.602 151.898 146.37 151.898 146.109C151.898 145.542 152.26 145.042 152.984 144.609C152.49 144.406 152.104 144.089 151.828 143.656C151.552 143.219 151.414 142.719 151.414 142.156C151.414 141.307 151.682 140.628 152.219 140.117C152.76 139.602 153.49 139.344 154.406 139.344C154.964 139.344 155.396 139.398 155.703 139.508H158.422ZM151.547 149.438C151.547 150.604 152.414 151.188 154.148 151.188C156.378 151.188 157.492 150.477 157.492 149.055C157.492 148.544 157.318 148.174 156.969 147.945C156.62 147.716 156.055 147.602 155.273 147.602H153.883C152.326 147.602 151.547 148.214 151.547 149.438ZM152.195 142.156C152.195 142.812 152.393 143.323 152.789 143.688C153.19 144.047 153.724 144.227 154.391 144.227C155.099 144.227 155.641 144.047 156.016 143.688C156.396 143.328 156.586 142.807 156.586 142.125C156.586 141.401 156.391 140.859 156 140.5C155.615 140.135 155.073 139.953 154.375 139.953C153.698 139.953 153.164 140.148 152.773 140.539C152.388 140.924 152.195 141.464 152.195 142.156ZM163.602 148.156C162.367 148.156 161.404 147.776 160.711 147.016C160.023 146.255 159.68 145.19 159.68 143.82C159.68 142.466 160.013 141.383 160.68 140.57C161.346 139.753 162.245 139.344 163.375 139.344C164.375 139.344 165.164 139.693 165.742 140.391C166.32 141.089 166.609 142.036 166.609 143.234V143.859H160.492C160.503 145.026 160.773 145.917 161.305 146.531C161.841 147.146 162.607 147.453 163.602 147.453C164.086 147.453 164.51 147.419 164.875 147.352C165.245 147.284 165.711 147.138 166.273 146.914V147.617C165.794 147.826 165.352 147.966 164.945 148.039C164.539 148.117 164.091 148.156 163.602 148.156ZM163.375 140.031C162.557 140.031 161.901 140.302 161.406 140.844C160.911 141.38 160.622 142.156 160.539 143.172H165.789C165.789 142.188 165.576 141.419 165.148 140.867C164.721 140.31 164.13 140.031 163.375 140.031ZM171.195 147.469C171.685 147.469 172.112 147.427 172.477 147.344V147.969C172.102 148.094 171.669 148.156 171.18 148.156C170.43 148.156 169.875 147.956 169.516 147.555C169.161 147.154 168.984 146.523 168.984 145.664V140.18H167.727V139.727L168.984 139.375L169.375 137.453H169.773V139.508H172.266V140.18H169.773V145.555C169.773 146.206 169.888 146.688 170.117 147C170.346 147.312 170.706 147.469 171.195 147.469ZM183.734 145.789C183.734 146.549 183.445 147.135 182.867 147.547C182.289 147.953 181.469 148.156 180.406 148.156C179.271 148.156 178.37 147.982 177.703 147.633V146.797C178.557 147.224 179.458 147.438 180.406 147.438C181.245 147.438 181.88 147.299 182.312 147.023C182.75 146.742 182.969 146.37 182.969 145.906C182.969 145.479 182.794 145.12 182.445 144.828C182.102 144.536 181.534 144.25 180.742 143.969C179.893 143.661 179.297 143.398 178.953 143.18C178.609 142.956 178.349 142.706 178.172 142.43C178 142.148 177.914 141.807 177.914 141.406C177.914 140.771 178.18 140.268 178.711 139.898C179.247 139.529 179.995 139.344 180.953 139.344C181.87 139.344 182.74 139.516 183.562 139.859L183.273 140.562C182.44 140.219 181.667 140.047 180.953 140.047C180.26 140.047 179.711 140.161 179.305 140.391C178.898 140.62 178.695 140.938 178.695 141.344C178.695 141.786 178.852 142.141 179.164 142.406C179.482 142.672 180.099 142.969 181.016 143.297C181.781 143.573 182.339 143.823 182.688 144.047C183.036 144.266 183.297 144.516 183.469 144.797C183.646 145.078 183.734 145.409 183.734 145.789ZM188.164 147.469C188.654 147.469 189.081 147.427 189.445 147.344V147.969C189.07 148.094 188.638 148.156 188.148 148.156C187.398 148.156 186.844 147.956 186.484 147.555C186.13 147.154 185.953 146.523 185.953 145.664V140.18H184.695V139.727L185.953 139.375L186.344 137.453H186.742V139.508H189.234V140.18H186.742V145.555C186.742 146.206 186.857 146.688 187.086 147C187.315 147.312 187.674 147.469 188.164 147.469ZM196.438 148L196.242 146.656H196.18C195.753 147.203 195.312 147.591 194.859 147.82C194.411 148.044 193.88 148.156 193.266 148.156C192.432 148.156 191.784 147.943 191.32 147.516C190.857 147.089 190.625 146.497 190.625 145.742C190.625 144.914 190.969 144.271 191.656 143.812C192.349 143.354 193.349 143.112 194.656 143.086L196.273 143.039V142.477C196.273 141.669 196.109 141.06 195.781 140.648C195.453 140.237 194.924 140.031 194.195 140.031C193.409 140.031 192.594 140.25 191.75 140.688L191.461 140.016C192.393 139.578 193.315 139.359 194.227 139.359C195.159 139.359 195.854 139.602 196.312 140.086C196.776 140.57 197.008 141.326 197.008 142.352V148H196.438ZM193.312 147.453C194.219 147.453 194.932 147.195 195.453 146.68C195.979 146.159 196.242 145.438 196.242 144.516V143.68L194.758 143.742C193.565 143.799 192.714 143.987 192.203 144.305C191.698 144.617 191.445 145.107 191.445 145.773C191.445 146.305 191.607 146.719 191.93 147.016C192.258 147.307 192.719 147.453 193.312 147.453ZM203.109 139.344C203.469 139.344 203.854 139.38 204.266 139.453L204.117 140.195C203.763 140.107 203.396 140.062 203.016 140.062C202.292 140.062 201.698 140.37 201.234 140.984C200.771 141.599 200.539 142.375 200.539 143.312V148H199.766V139.508H200.422L200.5 141.039H200.555C200.904 140.414 201.276 139.977 201.672 139.727C202.068 139.471 202.547 139.344 203.109 139.344ZM208.242 147.469C208.732 147.469 209.159 147.427 209.523 147.344V147.969C209.148 148.094 208.716 148.156 208.227 148.156C207.477 148.156 206.922 147.956 206.562 147.555C206.208 147.154 206.031 146.523 206.031 145.664V140.18H204.773V139.727L206.031 139.375L206.422 137.453H206.82V139.508H209.312V140.18H206.82V145.555C206.82 146.206 206.935 146.688 207.164 147C207.393 147.312 207.753 147.469 208.242 147.469ZM214.789 148.156C213.555 148.156 212.591 147.776 211.898 147.016C211.211 146.255 210.867 145.19 210.867 143.82C210.867 142.466 211.201 141.383 211.867 140.57C212.534 139.753 213.432 139.344 214.562 139.344C215.562 139.344 216.352 139.693 216.93 140.391C217.508 141.089 217.797 142.036 217.797 143.234V143.859H211.68C211.69 145.026 211.961 145.917 212.492 146.531C213.029 147.146 213.794 147.453 214.789 147.453C215.273 147.453 215.698 147.419 216.062 147.352C216.432 147.284 216.898 147.138 217.461 146.914V147.617C216.982 147.826 216.539 147.966 216.133 148.039C215.727 148.117 215.279 148.156 214.789 148.156ZM214.562 140.031C213.745 140.031 213.089 140.302 212.594 140.844C212.099 141.38 211.81 142.156 211.727 143.172H216.977C216.977 142.188 216.763 141.419 216.336 140.867C215.909 140.31 215.318 140.031 214.562 140.031ZM223.25 139.344C223.865 139.344 224.396 139.456 224.844 139.68C225.292 139.904 225.693 140.286 226.047 140.828H226.094C226.062 140.172 226.047 139.529 226.047 138.898V135.844H226.812V148H226.305L226.109 146.703H226.047C225.401 147.672 224.474 148.156 223.266 148.156C222.094 148.156 221.198 147.792 220.578 147.062C219.958 146.333 219.648 145.271 219.648 143.875C219.648 142.406 219.956 141.284 220.57 140.508C221.185 139.732 222.078 139.344 223.25 139.344ZM223.25 140.047C222.323 140.047 221.625 140.372 221.156 141.023C220.693 141.674 220.461 142.62 220.461 143.859C220.461 146.266 221.396 147.469 223.266 147.469C224.224 147.469 224.927 147.19 225.375 146.633C225.823 146.076 226.047 145.156 226.047 143.875V143.742C226.047 142.43 225.826 141.487 225.383 140.914C224.945 140.336 224.234 140.047 223.25 140.047Z" fill="#263238"/>
<path d="M255.64 69.4939C260.586 69.4939 264.595 65.5181 264.595 60.6137C264.595 55.7092 260.586 51.7334 255.64 51.7334C250.695 51.7334 246.686 55.7092 246.686 60.6137C246.686 65.5181 250.695 69.4939 255.64 69.4939Z" fill="#FFC062"/>
<path d="M246.403 34.2064H234.62C234.23 34.2064 233.913 33.8925 233.913 33.5053C233.913 33.1181 234.23 32.8042 234.62 32.8042H246.403C246.793 32.8042 247.11 33.1181 247.11 33.5053C247.11 33.8925 246.793 34.2064 246.403 34.2064Z" fill="#241F20"/>
<path d="M249.985 37.0107C249.594 37.0107 249.278 36.6968 249.278 36.3096V30.7011C249.278 30.3139 249.594 30 249.985 30C250.375 30 250.692 30.3139 250.692 30.7011V36.3097C250.692 36.6969 250.375 37.0107 249.985 37.0107Z" fill="#241F20"/>
<path d="M231.132 37.0107C230.742 37.0107 230.425 36.6968 230.425 36.3096V30.7011C230.425 30.3139 230.742 30 231.132 30C231.523 30 231.839 30.3139 231.839 30.7011V36.3097C231.839 36.6969 231.523 37.0107 231.132 37.0107Z" fill="#241F20"/>
<path d="M254.698 43.0868H226.42C226.029 43.0868 225.713 42.7728 225.713 42.3857C225.713 41.9985 226.029 41.6846 226.42 41.6846H254.698C255.088 41.6846 255.405 41.9985 255.405 42.3857C255.405 42.7728 255.088 43.0868 254.698 43.0868Z" fill="#241F20"/>
<path d="M248.099 48.6954H226.42C226.029 48.6954 225.713 48.3815 225.713 47.9943C225.713 47.6071 226.029 47.2932 226.42 47.2932H248.099C248.49 47.2932 248.806 47.6071 248.806 47.9943C248.806 48.3815 248.49 48.6954 248.099 48.6954Z" fill="#241F20"/>
<path d="M238.674 54.304H226.42C226.029 54.304 225.713 53.9901 225.713 53.603C225.713 53.2158 226.029 52.9019 226.42 52.9019H238.674C239.064 52.9019 239.381 53.2158 239.381 53.603C239.381 53.9902 239.064 54.304 238.674 54.304Z" fill="#241F20"/>
<path d="M260.118 52.154V33.5054C260.118 33.1182 259.801 32.8043 259.411 32.8043H252.813C252.422 32.8043 252.106 33.1182 252.106 33.5054C252.106 33.8926 252.422 34.2065 252.813 34.2065H258.704V51.5465C257.719 51.2056 256.683 51.0319 255.64 51.0323C250.304 51.0323 245.979 55.322 245.979 60.6137C245.978 61.648 246.154 62.6751 246.497 63.6517H222.414V34.2064H227.362C227.753 34.2064 228.069 33.8925 228.069 33.5053C228.069 33.1181 227.753 32.8042 227.362 32.8042H221.707C221.317 32.8043 221 33.1182 221 33.5054V64.3527C221 64.7399 221.317 65.0538 221.707 65.0538H247.11C249.547 69.7613 255.371 71.6181 260.118 69.2012C264.865 66.7842 266.737 61.0088 264.3 56.3014C263.377 54.5193 261.915 53.0689 260.118 52.154ZM255.64 68.7929C251.085 68.7929 247.393 65.1309 247.393 60.6136C247.393 56.0963 251.085 52.4344 255.64 52.4344C260.196 52.4344 263.888 56.0963 263.888 60.6136C263.862 65.1203 260.185 68.7673 255.64 68.7929Z" fill="#241F20"/>
<path d="M260.023 61.7821H255.64C255.25 61.7821 254.933 61.4682 254.933 61.081V55.4723C254.933 55.0852 255.25 54.7712 255.64 54.7712C256.031 54.7712 256.347 55.0852 256.347 55.4723V60.3799H260.023C260.414 60.3799 260.73 60.6938 260.73 61.081C260.73 61.4682 260.414 61.7821 260.023 61.7821Z" fill="#241F20"/>
<defs>
<filter id="filter0_d" x="0" y="0" width="307" height="189" filterUnits="userSpaceOnUse" color-interpolation-filters="sRGB">
<feFlood flood-opacity="0" result="BackgroundImageFix"/>
<feColorMatrix in="SourceAlpha" type="matrix" values="0 0 0 0 0 0 0 0 0 0 0 0 0 0 0 0 0 0 127 0"/>
<feOffset/>
<feGaussianBlur stdDeviation="1.5"/>
<feColorMatrix type="matrix" values="0 0 0 0 0 0 0 0 0 0 0 0 0 0 0 0 0 0 0.25 0"/>
<feBlend mode="normal" in2="BackgroundImageFix" result="effect1_dropShadow"/>
<feBlend mode="normal" in="SourceGraphic" in2="effect1_dropShadow" result="shape"/>
</filter>
</defs>
</svg>
