<svg width="255" height="40" viewBox="0 0 255 40" fill="none" xmlns="http://www.w3.org/2000/svg">
<rect width="255" height="40" rx="5" fill="#FF9900"/>
<path d="M88.6816 20.3896H92.3218V25.5972C91.7554 25.7778 91.1792 25.9146 90.5933 26.0073C90.0073 26.1001 89.3286 26.1465 88.5571 26.1465C86.936 26.1465 85.6738 25.6655 84.7705 24.7036C83.8672 23.7368 83.4155 22.3843 83.4155 20.646C83.4155 19.5327 83.6377 18.5586 84.082 17.7236C84.5312 16.8838 85.1758 16.2441 86.0156 15.8047C86.8555 15.3604 87.8394 15.1382 88.9673 15.1382C90.1099 15.1382 91.1743 15.3481 92.1606 15.7681L91.6772 16.8667C90.7104 16.4565 89.7803 16.2515 88.8867 16.2515C87.583 16.2515 86.5649 16.6396 85.8325 17.416C85.1001 18.1924 84.7339 19.269 84.7339 20.646C84.7339 22.0913 85.0854 23.1875 85.7886 23.9346C86.4966 24.6816 87.5342 25.0552 88.9014 25.0552C89.6436 25.0552 90.3687 24.9697 91.0767 24.7988V21.5029H88.6816V20.3896ZM98.1079 26.1465C96.9214 26.1465 95.9839 25.7852 95.2954 25.0625C94.6118 24.3398 94.27 23.3364 94.27 22.0522C94.27 20.7583 94.5874 19.7305 95.2222 18.9688C95.8618 18.207 96.7188 17.8262 97.793 17.8262C98.7988 17.8262 99.5947 18.1582 100.181 18.8223C100.767 19.4814 101.06 20.353 101.06 21.437V22.2061H95.5298C95.5542 23.1484 95.791 23.8638 96.2402 24.3521C96.6943 24.8403 97.3315 25.0845 98.1519 25.0845C99.0161 25.0845 99.8706 24.9038 100.715 24.5425V25.6265C100.286 25.812 99.8779 25.9438 99.4922 26.022C99.1113 26.105 98.6499 26.1465 98.1079 26.1465ZM97.7783 18.8442C97.1338 18.8442 96.6187 19.0542 96.2329 19.4741C95.8521 19.894 95.6274 20.4751 95.5591 21.2173H99.7559C99.7559 20.4507 99.585 19.8647 99.2432 19.4595C98.9014 19.0493 98.4131 18.8442 97.7783 18.8442ZM105.732 25.1431C105.947 25.1431 106.155 25.1284 106.355 25.0991C106.555 25.0649 106.714 25.0308 106.831 24.9966V25.9268C106.699 25.9902 106.504 26.0415 106.245 26.0806C105.991 26.1245 105.762 26.1465 105.557 26.1465C104.004 26.1465 103.228 25.3286 103.228 23.6929V18.9175H102.078V18.3315L103.228 17.8262L103.74 16.1123H104.443V17.9727H106.772V18.9175H104.443V23.6416C104.443 24.125 104.558 24.4961 104.788 24.7549C105.017 25.0137 105.332 25.1431 105.732 25.1431ZM113.555 26H112.339V17.9727H113.555V26ZM112.236 15.7974C112.236 15.519 112.305 15.3164 112.441 15.1895C112.578 15.0576 112.749 14.9917 112.954 14.9917C113.149 14.9917 113.318 15.0576 113.459 15.1895C113.601 15.3213 113.672 15.5239 113.672 15.7974C113.672 16.0708 113.601 16.2759 113.459 16.4126C113.318 16.5444 113.149 16.6104 112.954 16.6104C112.749 16.6104 112.578 16.5444 112.441 16.4126C112.305 16.2759 112.236 16.0708 112.236 15.7974ZM121.626 26V20.8071C121.626 20.1528 121.477 19.6646 121.179 19.3423C120.881 19.02 120.415 18.8589 119.78 18.8589C118.94 18.8589 118.325 19.0859 117.935 19.54C117.544 19.9941 117.349 20.7437 117.349 21.7886V26H116.133V17.9727H117.122L117.319 19.0713H117.378C117.627 18.6758 117.976 18.3706 118.425 18.1558C118.875 17.936 119.375 17.8262 119.927 17.8262C120.894 17.8262 121.621 18.0605 122.109 18.5293C122.598 18.9932 122.842 19.7378 122.842 20.7632V26H121.626ZM131.836 25.1431C132.051 25.1431 132.258 25.1284 132.458 25.0991C132.659 25.0649 132.817 25.0308 132.935 24.9966V25.9268C132.803 25.9902 132.607 26.0415 132.349 26.0806C132.095 26.1245 131.865 26.1465 131.66 26.1465C130.107 26.1465 129.331 25.3286 129.331 23.6929V18.9175H128.181V18.3315L129.331 17.8262L129.844 16.1123H130.547V17.9727H132.876V18.9175H130.547V23.6416C130.547 24.125 130.662 24.4961 130.891 24.7549C131.121 25.0137 131.436 25.1431 131.836 25.1431ZM141.475 21.979C141.475 23.2876 141.145 24.3105 140.486 25.0479C139.827 25.7803 138.916 26.1465 137.754 26.1465C137.036 26.1465 136.399 25.978 135.842 25.6411C135.286 25.3042 134.856 24.8208 134.553 24.1909C134.25 23.561 134.099 22.8237 134.099 21.979C134.099 20.6704 134.426 19.6523 135.081 18.9248C135.735 18.1924 136.643 17.8262 137.805 17.8262C138.928 17.8262 139.819 18.1997 140.479 18.9468C141.143 19.6938 141.475 20.7046 141.475 21.979ZM135.359 21.979C135.359 23.0044 135.564 23.7856 135.974 24.3228C136.384 24.8599 136.987 25.1284 137.783 25.1284C138.579 25.1284 139.182 24.8623 139.592 24.3301C140.007 23.793 140.215 23.0093 140.215 21.979C140.215 20.9585 140.007 20.1846 139.592 19.6572C139.182 19.125 138.574 18.8589 137.769 18.8589C136.973 18.8589 136.372 19.1201 135.967 19.6426C135.562 20.165 135.359 20.9438 135.359 21.979ZM144.756 17.9727V23.1802C144.756 23.8345 144.905 24.3228 145.203 24.645C145.5 24.9673 145.967 25.1284 146.602 25.1284C147.441 25.1284 148.054 24.8989 148.44 24.4399C148.831 23.981 149.026 23.2314 149.026 22.1914V17.9727H150.242V26H149.238L149.062 24.9233H148.997C148.748 25.3188 148.401 25.6216 147.957 25.8315C147.517 26.0415 147.014 26.1465 146.448 26.1465C145.471 26.1465 144.739 25.9146 144.25 25.4507C143.767 24.9868 143.525 24.2446 143.525 23.2241V17.9727H144.756ZM156.035 26.1465C154.873 26.1465 153.972 25.79 153.333 25.0771C152.698 24.3594 152.38 23.3462 152.38 22.0376C152.38 20.6948 152.703 19.6572 153.347 18.9248C153.997 18.1924 154.919 17.8262 156.116 17.8262C156.501 17.8262 156.887 17.8677 157.273 17.9507C157.659 18.0337 157.961 18.1313 158.181 18.2437L157.808 19.2764C157.539 19.1689 157.246 19.0811 156.929 19.0127C156.611 18.9395 156.331 18.9028 156.086 18.9028C154.456 18.9028 153.64 19.9429 153.64 22.0229C153.64 23.0093 153.838 23.7661 154.233 24.2935C154.634 24.8208 155.225 25.0845 156.006 25.0845C156.675 25.0845 157.361 24.9404 158.064 24.6523V25.729C157.527 26.0073 156.851 26.1465 156.035 26.1465ZM165.469 26V20.8071C165.469 20.1528 165.32 19.6646 165.022 19.3423C164.724 19.02 164.258 18.8589 163.623 18.8589C162.778 18.8589 162.161 19.0884 161.77 19.5474C161.384 20.0063 161.191 20.7583 161.191 21.8032V26H159.976V14.6035H161.191V18.0532C161.191 18.4683 161.172 18.8125 161.133 19.0859H161.206C161.445 18.7002 161.785 18.3975 162.224 18.1777C162.668 17.9531 163.174 17.8408 163.74 17.8408C164.722 17.8408 165.457 18.0752 165.945 18.5439C166.438 19.0078 166.685 19.7476 166.685 20.7632V26H165.469ZM170.288 23.0483H169.519L169.146 15.292H170.662L170.288 23.0483ZM169.014 25.2236C169.014 24.5596 169.307 24.2275 169.893 24.2275C170.176 24.2275 170.393 24.313 170.544 24.4839C170.701 24.6548 170.779 24.9014 170.779 25.2236C170.779 25.5361 170.701 25.7803 170.544 25.9561C170.388 26.127 170.171 26.2124 169.893 26.2124C169.639 26.2124 169.429 26.1367 169.263 25.9854C169.097 25.8291 169.014 25.5752 169.014 25.2236Z" fill="white"/>
</svg>
