<svg width="308" height="189" viewBox="0 0 308 189" fill="none" xmlns="http://www.w3.org/2000/svg">
<g filter="url(#filter0_d)">
<rect x="3.12695" y="3" width="301" height="183" fill="white"/>
</g>
<path d="M45.4258 62V44.8672H46.6211V60.875H54.7891V62H45.4258ZM62.6055 62.2344C60.7539 62.2344 59.3086 61.6641 58.2695 60.5234C57.2383 59.3828 56.7227 57.7852 56.7227 55.7305C56.7227 53.6992 57.2227 52.0742 58.2227 50.8555C59.2227 49.6289 60.5703 49.0156 62.2656 49.0156C63.7656 49.0156 64.9492 49.5391 65.8164 50.5859C66.6836 51.6328 67.1172 53.0547 67.1172 54.8516V55.7891H57.9414C57.957 57.5391 58.3633 58.875 59.1602 59.7969C59.9648 60.7188 61.1133 61.1797 62.6055 61.1797C63.332 61.1797 63.9688 61.1289 64.5156 61.0273C65.0703 60.9258 65.7695 60.707 66.6133 60.3711V61.4258C65.8945 61.7383 65.2305 61.9492 64.6211 62.0586C64.0117 62.1758 63.3398 62.2344 62.6055 62.2344ZM62.2656 50.0469C61.0391 50.0469 60.0547 50.4531 59.3125 51.2656C58.5703 52.0703 58.1367 53.2344 58.0117 54.7578H65.8867C65.8867 53.2812 65.5664 52.1289 64.9258 51.3008C64.2852 50.4648 63.3984 50.0469 62.2656 50.0469ZM73.9961 61.2031C74.7305 61.2031 75.3711 61.1406 75.918 61.0156V61.9531C75.3555 62.1406 74.707 62.2344 73.9727 62.2344C72.8477 62.2344 72.0156 61.9336 71.4766 61.332C70.9453 60.7305 70.6797 59.7852 70.6797 58.4961V50.2695H68.793V49.5898L70.6797 49.0625L71.2656 46.1797H71.8633V49.2617H75.6016V50.2695H71.8633V58.332C71.8633 59.3086 72.0352 60.0312 72.3789 60.5C72.7227 60.9688 73.2617 61.2031 73.9961 61.2031ZM79.5391 44.8672L79.6797 45.1016C79.0938 47.1719 78.4141 49.0508 77.6406 50.7383H76.8789C77.1055 49.9883 77.3438 49.0469 77.5938 47.9141C77.8438 46.7734 78.0352 45.7578 78.168 44.8672H79.5391ZM90.0625 58.6836C90.0625 59.8242 89.6289 60.7031 88.7617 61.3203C87.8945 61.9297 86.6641 62.2344 85.0703 62.2344C83.3672 62.2344 82.0156 61.9727 81.0156 61.4492V60.1953C82.2969 60.8359 83.6484 61.1562 85.0703 61.1562C86.3281 61.1562 87.2812 60.9492 87.9297 60.5352C88.5859 60.1133 88.9141 59.5547 88.9141 58.8594C88.9141 58.2188 88.6523 57.6797 88.1289 57.2422C87.6133 56.8047 86.7617 56.375 85.5742 55.9531C84.3008 55.4922 83.4062 55.0977 82.8906 54.7695C82.375 54.4336 81.9844 54.0586 81.7188 53.6445C81.4609 53.2227 81.332 52.7109 81.332 52.1094C81.332 51.1562 81.7305 50.4023 82.5273 49.8477C83.332 49.293 84.4531 49.0156 85.8906 49.0156C87.2656 49.0156 88.5703 49.2734 89.8047 49.7891L89.3711 50.8438C88.1211 50.3281 86.9609 50.0703 85.8906 50.0703C84.8516 50.0703 84.0273 50.2422 83.418 50.5859C82.8086 50.9297 82.5039 51.4062 82.5039 52.0156C82.5039 52.6797 82.7383 53.2109 83.207 53.6094C83.6836 54.0078 84.6094 54.4531 85.9844 54.9453C87.1328 55.3594 87.9688 55.7344 88.4922 56.0703C89.0156 56.3984 89.4062 56.7734 89.6641 57.1953C89.9297 57.6172 90.0625 58.1133 90.0625 58.6836ZM106.609 53.3633H112.926V61.1797C111.27 61.8828 109.406 62.2344 107.336 62.2344C104.633 62.2344 102.559 61.4727 101.113 59.9492C99.6758 58.418 98.957 56.2539 98.957 53.457C98.957 51.7148 99.3125 50.1719 100.023 48.8281C100.742 47.4766 101.766 46.4336 103.094 45.6992C104.43 44.9648 105.961 44.5977 107.688 44.5977C109.555 44.5977 111.23 44.9414 112.715 45.6289L112.234 46.707C110.75 46.0195 109.211 45.6758 107.617 45.6758C105.359 45.6758 103.566 46.375 102.238 47.7734C100.918 49.1641 100.258 51.043 100.258 53.4102C100.258 55.9883 100.887 57.9297 102.145 59.2344C103.402 60.5312 105.25 61.1797 107.688 61.1797C109.266 61.1797 110.605 60.957 111.707 60.5117V54.4883H106.609V53.3633ZM122.09 62.2344C120.238 62.2344 118.793 61.6641 117.754 60.5234C116.723 59.3828 116.207 57.7852 116.207 55.7305C116.207 53.6992 116.707 52.0742 117.707 50.8555C118.707 49.6289 120.055 49.0156 121.75 49.0156C123.25 49.0156 124.434 49.5391 125.301 50.5859C126.168 51.6328 126.602 53.0547 126.602 54.8516V55.7891H117.426C117.441 57.5391 117.848 58.875 118.645 59.7969C119.449 60.7188 120.598 61.1797 122.09 61.1797C122.816 61.1797 123.453 61.1289 124 61.0273C124.555 60.9258 125.254 60.707 126.098 60.3711V61.4258C125.379 61.7383 124.715 61.9492 124.105 62.0586C123.496 62.1758 122.824 62.2344 122.09 62.2344ZM121.75 50.0469C120.523 50.0469 119.539 50.4531 118.797 51.2656C118.055 52.0703 117.621 53.2344 117.496 54.7578H125.371C125.371 53.2812 125.051 52.1289 124.41 51.3008C123.77 50.4648 122.883 50.0469 121.75 50.0469ZM133.48 61.2031C134.215 61.2031 134.855 61.1406 135.402 61.0156V61.9531C134.84 62.1406 134.191 62.2344 133.457 62.2344C132.332 62.2344 131.5 61.9336 130.961 61.332C130.43 60.7305 130.164 59.7852 130.164 58.4961V50.2695H128.277V49.5898L130.164 49.0625L130.75 46.1797H131.348V49.2617H135.086V50.2695H131.348V58.332C131.348 59.3086 131.52 60.0312 131.863 60.5C132.207 60.9688 132.746 61.2031 133.48 61.2031ZM54.8828 90.582C54.8828 92.0117 54.3555 93.1445 53.3008 93.9805C52.2539 94.8164 50.8594 95.2344 49.1172 95.2344C47.0234 95.2344 45.418 95.0039 44.3008 94.543V93.3477C45.5352 93.8711 47.1094 94.1328 49.0234 94.1328C50.4297 94.1328 51.543 93.8125 52.3633 93.1719C53.1914 92.5234 53.6055 91.6758 53.6055 90.6289C53.6055 89.9805 53.4688 89.4453 53.1953 89.0234C52.9219 88.5938 52.4766 88.2031 51.8594 87.8516C51.2422 87.5 50.3359 87.1211 49.1406 86.7148C47.3906 86.1133 46.1797 85.4648 45.5078 84.7695C44.8438 84.0664 44.5117 83.1328 44.5117 81.9688C44.5117 80.6875 45.0117 79.6445 46.0117 78.8398C47.0195 78.0273 48.3125 77.6211 49.8906 77.6211C51.5 77.6211 53.0117 77.9258 54.4258 78.5352L53.9922 79.5664C52.5703 78.9727 51.2109 78.6758 49.9141 78.6758C48.6484 78.6758 47.6406 78.9688 46.8906 79.5547C46.1406 80.1406 45.7656 80.9375 45.7656 81.9453C45.7656 82.5781 45.8789 83.0977 46.1055 83.5039C46.3398 83.9102 46.7188 84.2773 47.2422 84.6055C47.7656 84.9258 48.6641 85.3125 49.9375 85.7656C51.2734 86.2266 52.2773 86.6758 52.9492 87.1133C53.6211 87.543 54.1094 88.0352 54.4141 88.5898C54.7266 89.1367 54.8828 89.8008 54.8828 90.582ZM61.5742 94.2031C62.3086 94.2031 62.9492 94.1406 63.4961 94.0156V94.9531C62.9336 95.1406 62.2852 95.2344 61.5508 95.2344C60.4258 95.2344 59.5938 94.9336 59.0547 94.332C58.5234 93.7305 58.2578 92.7852 58.2578 91.4961V83.2695H56.3711V82.5898L58.2578 82.0625L58.8438 79.1797H59.4414V82.2617H63.1797V83.2695H59.4414V91.332C59.4414 92.3086 59.6133 93.0312 59.957 93.5C60.3008 93.9688 60.8398 94.2031 61.5742 94.2031ZM73.9844 95L73.6914 92.9844H73.5977C72.957 93.8047 72.2969 94.3867 71.6172 94.7305C70.9453 95.0664 70.1484 95.2344 69.2266 95.2344C67.9766 95.2344 67.0039 94.9141 66.3086 94.2734C65.6133 93.6328 65.2656 92.7461 65.2656 91.6133C65.2656 90.3711 65.7812 89.4062 66.8125 88.7188C67.8516 88.0312 69.3516 87.668 71.3125 87.6289L73.7383 87.5586V86.7148C73.7383 85.5039 73.4922 84.5898 73 83.9727C72.5078 83.3555 71.7148 83.0469 70.6211 83.0469C69.4414 83.0469 68.2188 83.375 66.9531 84.0312L66.5195 83.0234C67.918 82.3672 69.3008 82.0391 70.668 82.0391C72.0664 82.0391 73.1094 82.4023 73.7969 83.1289C74.4922 83.8555 74.8398 84.9883 74.8398 86.5273V95H73.9844ZM69.2969 94.1797C70.6562 94.1797 71.7266 93.793 72.5078 93.0195C73.2969 92.2383 73.6914 91.1562 73.6914 89.7734V88.5195L71.4648 88.6133C69.6758 88.6992 68.3984 88.9805 67.6328 89.457C66.875 89.9258 66.4961 90.6602 66.4961 91.6602C66.4961 92.457 66.7383 93.0781 67.2227 93.5234C67.7148 93.9609 68.4062 94.1797 69.2969 94.1797ZM83.9922 82.0156C84.5312 82.0156 85.1094 82.0703 85.7266 82.1797L85.5039 83.293C84.9727 83.1602 84.4219 83.0938 83.8516 83.0938C82.7656 83.0938 81.875 83.5547 81.1797 84.4766C80.4844 85.3984 80.1367 86.5625 80.1367 87.9688V95H78.9766V82.2617H79.9609L80.0781 84.5586H80.1602C80.6836 83.6211 81.2422 82.9648 81.8359 82.5898C82.4297 82.207 83.1484 82.0156 83.9922 82.0156ZM91.6914 94.2031C92.4258 94.2031 93.0664 94.1406 93.6133 94.0156V94.9531C93.0508 95.1406 92.4023 95.2344 91.668 95.2344C90.543 95.2344 89.7109 94.9336 89.1719 94.332C88.6406 93.7305 88.375 92.7852 88.375 91.4961V83.2695H86.4883V82.5898L88.375 82.0625L88.9609 79.1797H89.5586V82.2617H93.2969V83.2695H89.5586V91.332C89.5586 92.3086 89.7305 93.0312 90.0742 93.5C90.418 93.9688 90.957 94.2031 91.6914 94.2031ZM101.512 95.2344C99.6602 95.2344 98.2148 94.6641 97.1758 93.5234C96.1445 92.3828 95.6289 90.7852 95.6289 88.7305C95.6289 86.6992 96.1289 85.0742 97.1289 83.8555C98.1289 82.6289 99.4766 82.0156 101.172 82.0156C102.672 82.0156 103.855 82.5391 104.723 83.5859C105.59 84.6328 106.023 86.0547 106.023 87.8516V88.7891H96.8477C96.8633 90.5391 97.2695 91.875 98.0664 92.7969C98.8711 93.7188 100.02 94.1797 101.512 94.1797C102.238 94.1797 102.875 94.1289 103.422 94.0273C103.977 93.9258 104.676 93.707 105.52 93.3711V94.4258C104.801 94.7383 104.137 94.9492 103.527 95.0586C102.918 95.1758 102.246 95.2344 101.512 95.2344ZM101.172 83.0469C99.9453 83.0469 98.9609 83.4531 98.2188 84.2656C97.4766 85.0703 97.043 86.2344 96.918 87.7578H104.793C104.793 86.2812 104.473 85.1289 103.832 84.3008C103.191 83.4648 102.305 83.0469 101.172 83.0469ZM114.203 82.0156C115.125 82.0156 115.922 82.1836 116.594 82.5195C117.266 82.8555 117.867 83.4297 118.398 84.2422H118.469C118.422 83.2578 118.398 82.293 118.398 81.3477V76.7656H119.547V95H118.785L118.492 93.0547H118.398C117.43 94.5078 116.039 95.2344 114.227 95.2344C112.469 95.2344 111.125 94.6875 110.195 93.5938C109.266 92.5 108.801 90.9062 108.801 88.8125C108.801 86.6094 109.262 84.9258 110.184 83.7617C111.105 82.5977 112.445 82.0156 114.203 82.0156ZM114.203 83.0703C112.812 83.0703 111.766 83.5586 111.062 84.5352C110.367 85.5117 110.02 86.9297 110.02 88.7891C110.02 92.3984 111.422 94.2031 114.227 94.2031C115.664 94.2031 116.719 93.7852 117.391 92.9492C118.062 92.1133 118.398 90.7344 118.398 88.8125V88.6133C118.398 86.6445 118.066 85.2305 117.402 84.3711C116.746 83.5039 115.68 83.0703 114.203 83.0703Z" fill="#263238"/>
<path d="M259 63L251 55C253.4 45.8 263.333 39.5 268 37.5L276 46C273.2 56.4 263.5 61.6667 259 63Z" fill="#FFC062"/>
<path d="M258.088 55.9129C257.752 55.5769 257.208 55.5769 256.872 55.9129C256.537 56.2481 256.537 56.792 256.872 57.1281C257.208 57.4632 257.752 57.4632 258.088 57.1281C258.424 56.792 258.424 56.2481 258.088 55.9129Z" fill="black"/>
<path d="M269.025 44.9747C267.346 43.2956 264.628 43.2955 262.949 44.9747C261.274 46.6495 261.274 49.3755 262.949 51.0517C264.624 52.7261 267.35 52.7268 269.025 51.0515C270.704 49.3725 270.705 46.654 269.025 44.9747ZM267.81 49.8361C266.805 50.8411 265.169 50.8411 264.164 49.8363C263.159 48.8306 263.159 47.1949 264.164 46.19C265.171 45.1826 266.802 45.1824 267.81 46.19C268.818 47.1974 268.818 48.8286 267.81 49.8361Z" fill="black"/>
<path d="M278.748 35.2517C278.579 35.083 278.349 34.9916 278.11 35.0006C277.915 35.0076 273.289 35.1935 267.789 37.1374C263.382 38.6933 259.709 40.9211 256.872 43.7587C256.236 44.3946 255.617 45.0689 255.025 45.7693C252.219 44.1178 249.971 44.6356 248.55 45.3963C245.277 47.1477 243.251 51.9031 243.251 55.3045C243.252 55.652 243.461 55.9655 243.782 56.0984C243.889 56.1425 244 56.1639 244.111 56.1639C244.335 56.1639 244.554 56.0765 244.719 55.9122C246.445 54.1863 248.573 54.2942 249.269 54.3857L249.57 54.6866C248.977 56.096 248.5 57.4975 248.15 58.8605C248.024 59.3538 248.067 59.8758 248.254 60.3532C247.427 60.7345 246.629 61.2944 245.934 61.9895C243.722 64.2017 243.272 69.5929 243.254 69.8213C243.235 70.072 243.326 70.3188 243.503 70.4966C243.665 70.6583 243.884 70.7483 244.111 70.7483C244.133 70.7483 244.156 70.7474 244.179 70.7456C244.407 70.7277 249.798 70.2785 252.011 68.0664C252.705 67.3716 253.265 66.5734 253.646 65.7462C254.152 65.9449 254.672 65.9694 255.14 65.8495C256.502 65.4997 257.904 65.0227 259.313 64.4304L259.614 64.7313C259.706 65.4268 259.814 67.5556 258.088 69.2813C257.842 69.5271 257.769 69.8967 257.902 70.2177C258.034 70.5389 258.348 70.7482 258.695 70.7482C262.097 70.7482 266.852 68.7226 268.604 65.45C269.364 64.0289 269.882 61.7806 268.231 58.9748C268.931 58.383 269.605 57.7643 270.241 57.1282C273.079 54.2905 275.306 50.6173 276.862 46.2108C278.806 40.711 278.992 36.0845 278.999 35.8902C279.008 35.6518 278.917 35.4205 278.748 35.2517ZM245.173 53.4561C245.707 50.8725 247.257 48.0376 249.361 46.9116C250.767 46.1593 252.304 46.233 253.937 47.1274C252.545 48.958 251.335 50.9303 250.327 53.013C250.314 53.0051 250.159 52.8106 249.872 52.7458C249.754 52.7191 247.48 52.23 245.173 53.4561ZM250.795 66.851C249.614 68.0326 246.842 68.6558 245.09 68.9103C245.344 67.1582 245.968 64.3864 247.149 63.2048C247.811 62.5431 248.578 62.0414 249.349 61.7588L252.241 64.6508C251.959 65.422 251.457 66.1892 250.795 66.851ZM254.713 64.1846C254.464 64.2483 254.176 64.1548 253.962 63.941C252.85 62.8292 252.415 62.3943 252.279 62.2579C252.029 62.0076 251.415 61.3939 250.06 60.0384C249.845 59.8236 249.752 59.5356 249.815 59.2874C250.091 58.2154 250.451 57.1156 250.888 56.0052L257.995 63.1117C256.884 63.5496 255.785 63.9095 254.713 64.1846ZM267.088 64.639C265.962 66.7427 263.128 68.2933 260.544 68.8271C261.368 67.277 261.549 65.3038 261.248 64.1073C261.179 63.8294 260.997 63.6897 260.987 63.6733C263.07 62.6646 265.042 61.4545 266.873 60.0626C267.767 61.6966 267.841 63.2334 267.088 64.639ZM269.026 55.9129C268.252 56.6872 267.418 57.4352 266.548 58.1362C264.456 59.8206 262.153 61.2473 259.697 62.3831L251.617 54.3034C252.753 51.8468 254.179 49.5444 255.864 47.4528C256.565 46.582 257.313 45.748 258.087 44.9741C260.633 42.4281 263.919 40.4019 267.856 38.9433L275.057 46.1442C273.598 50.0811 271.572 53.3668 269.026 55.9129ZM275.675 44.3317L269.668 38.325C272.941 37.3085 275.788 36.9279 277.209 36.7911C277.072 38.2124 276.691 41.0595 275.675 44.3317Z" fill="black"/>
<path d="M243.504 58.3433C243.168 58.0077 242.624 58.0077 242.288 58.3432L239.857 60.7735C239.522 61.109 239.522 61.6531 239.857 61.9888C240.192 62.3243 240.737 62.3246 241.072 61.989L243.504 59.5587C243.839 59.2232 243.839 58.679 243.504 58.3433Z" fill="black"/>
<path d="M242.288 64.4196C241.952 64.0841 241.408 64.0841 241.072 64.4197L235.252 70.2411C234.916 70.5767 234.916 71.1208 235.252 71.4565C235.587 71.792 236.132 71.7921 236.467 71.4564L242.288 65.635C242.623 65.2993 242.623 64.7553 242.288 64.4196Z" fill="black"/>
<path d="M261.734 52.2663C261.398 51.9308 260.854 51.9308 260.519 52.2663L259.303 53.4815C258.968 53.8171 258.968 54.3612 259.303 54.6969C259.639 55.0325 260.183 55.0325 260.519 54.6969L261.734 53.4817C262.07 53.1462 262.07 52.602 261.734 52.2663Z" fill="black"/>
<circle cx="266" cy="48" r="3" fill="white"/>
<path d="M45.4141 133H44.6172V121.578H50.875V122.312H45.4141V127.156H50.5703V127.898H45.4141V133ZM53.2266 133H52.4531V124.508H53.2266V133ZM52.3438 122.148C52.3438 121.648 52.5078 121.398 52.8359 121.398C52.9974 121.398 53.1224 121.464 53.2109 121.594C53.3047 121.724 53.3516 121.909 53.3516 122.148C53.3516 122.383 53.3047 122.568 53.2109 122.703C53.1224 122.839 52.9974 122.906 52.8359 122.906C52.5078 122.906 52.3438 122.654 52.3438 122.148ZM62 133V127.492C62 126.638 61.8203 126.018 61.4609 125.633C61.1016 125.242 60.5443 125.047 59.7891 125.047C58.7734 125.047 58.0286 125.305 57.5547 125.82C57.0859 126.331 56.8516 127.161 56.8516 128.312V133H56.0781V124.508H56.7344L56.8828 125.672H56.9297C57.4818 124.786 58.4635 124.344 59.875 124.344C61.8021 124.344 62.7656 125.378 62.7656 127.445V133H62ZM68.625 124.344C69.2396 124.344 69.7708 124.456 70.2188 124.68C70.6667 124.904 71.0677 125.286 71.4219 125.828H71.4688C71.4375 125.172 71.4219 124.529 71.4219 123.898V120.844H72.1875V133H71.6797L71.4844 131.703H71.4219C70.776 132.672 69.849 133.156 68.6406 133.156C67.4688 133.156 66.5729 132.792 65.9531 132.062C65.3333 131.333 65.0234 130.271 65.0234 128.875C65.0234 127.406 65.3307 126.284 65.9453 125.508C66.5599 124.732 67.4531 124.344 68.625 124.344ZM68.625 125.047C67.6979 125.047 67 125.372 66.5312 126.023C66.0677 126.674 65.8359 127.62 65.8359 128.859C65.8359 131.266 66.7708 132.469 68.6406 132.469C69.599 132.469 70.3021 132.19 70.75 131.633C71.1979 131.076 71.4219 130.156 71.4219 128.875V128.742C71.4219 127.43 71.2005 126.487 70.7578 125.914C70.3203 125.336 69.6094 125.047 68.625 125.047ZM81.4453 132.469C81.9349 132.469 82.362 132.427 82.7266 132.344V132.969C82.3516 133.094 81.9193 133.156 81.4297 133.156C80.6797 133.156 80.125 132.956 79.7656 132.555C79.4115 132.154 79.2344 131.523 79.2344 130.664V125.18H77.9766V124.727L79.2344 124.375L79.625 122.453H80.0234V124.508H82.5156V125.18H80.0234V130.555C80.0234 131.206 80.138 131.688 80.3672 132C80.5964 132.312 80.9557 132.469 81.4453 132.469ZM90.4844 133V127.492C90.4844 126.638 90.3047 126.018 89.9453 125.633C89.5859 125.242 89.0286 125.047 88.2734 125.047C87.2578 125.047 86.513 125.305 86.0391 125.82C85.5703 126.331 85.3359 127.161 85.3359 128.312V133H84.5625V120.844H85.3359V124.711L85.2969 125.797H85.3516C85.6693 125.286 86.0703 124.917 86.5547 124.688C87.0391 124.458 87.6406 124.344 88.3594 124.344C90.2865 124.344 91.25 125.378 91.25 127.445V133H90.4844ZM97.4297 133.156C96.1953 133.156 95.2318 132.776 94.5391 132.016C93.8516 131.255 93.5078 130.19 93.5078 128.82C93.5078 127.466 93.8411 126.383 94.5078 125.57C95.1745 124.753 96.0729 124.344 97.2031 124.344C98.2031 124.344 98.9922 124.693 99.5703 125.391C100.148 126.089 100.438 127.036 100.438 128.234V128.859H94.3203C94.3307 130.026 94.6016 130.917 95.1328 131.531C95.6693 132.146 96.4349 132.453 97.4297 132.453C97.9141 132.453 98.3385 132.419 98.7031 132.352C99.0729 132.284 99.5391 132.138 100.102 131.914V132.617C99.6224 132.826 99.1797 132.966 98.7734 133.039C98.3672 133.117 97.9193 133.156 97.4297 133.156ZM97.2031 125.031C96.3854 125.031 95.7292 125.302 95.2344 125.844C94.7396 126.38 94.4505 127.156 94.3672 128.172H99.6172C99.6172 127.188 99.4036 126.419 98.9766 125.867C98.5495 125.31 97.9583 125.031 97.2031 125.031ZM110.281 124.344C110.641 124.344 111.026 124.38 111.438 124.453L111.289 125.195C110.935 125.107 110.568 125.062 110.188 125.062C109.464 125.062 108.87 125.37 108.406 125.984C107.943 126.599 107.711 127.375 107.711 128.312V133H106.938V124.508H107.594L107.672 126.039H107.727C108.076 125.414 108.448 124.977 108.844 124.727C109.24 124.471 109.719 124.344 110.281 124.344ZM113.945 133H113.172V124.508H113.945V133ZM113.062 122.148C113.062 121.648 113.227 121.398 113.555 121.398C113.716 121.398 113.841 121.464 113.93 121.594C114.023 121.724 114.07 121.909 114.07 122.148C114.07 122.383 114.023 122.568 113.93 122.703C113.841 122.839 113.716 122.906 113.555 122.906C113.227 122.906 113.062 122.654 113.062 122.148ZM123.422 124.508V125.047L121.664 125.156C122.133 125.74 122.367 126.38 122.367 127.078C122.367 127.896 122.094 128.56 121.547 129.07C121.005 129.576 120.276 129.828 119.359 129.828C118.974 129.828 118.703 129.812 118.547 129.781C118.24 129.943 118.005 130.133 117.844 130.352C117.682 130.57 117.602 130.802 117.602 131.047C117.602 131.318 117.703 131.516 117.906 131.641C118.115 131.766 118.461 131.828 118.945 131.828H120.43C121.352 131.828 122.057 132.016 122.547 132.391C123.036 132.76 123.281 133.31 123.281 134.039C123.281 134.935 122.917 135.625 122.188 136.109C121.464 136.599 120.43 136.844 119.086 136.844C118.018 136.844 117.19 136.638 116.602 136.227C116.018 135.815 115.727 135.242 115.727 134.508C115.727 133.924 115.906 133.44 116.266 133.055C116.63 132.669 117.122 132.406 117.742 132.266C117.487 132.156 117.281 132.003 117.125 131.805C116.974 131.602 116.898 131.37 116.898 131.109C116.898 130.542 117.26 130.042 117.984 129.609C117.49 129.406 117.104 129.089 116.828 128.656C116.552 128.219 116.414 127.719 116.414 127.156C116.414 126.307 116.682 125.628 117.219 125.117C117.76 124.602 118.49 124.344 119.406 124.344C119.964 124.344 120.396 124.398 120.703 124.508H123.422ZM116.547 134.438C116.547 135.604 117.414 136.188 119.148 136.188C121.378 136.188 122.492 135.477 122.492 134.055C122.492 133.544 122.318 133.174 121.969 132.945C121.62 132.716 121.055 132.602 120.273 132.602H118.883C117.326 132.602 116.547 133.214 116.547 134.438ZM117.195 127.156C117.195 127.812 117.393 128.323 117.789 128.688C118.19 129.047 118.724 129.227 119.391 129.227C120.099 129.227 120.641 129.047 121.016 128.688C121.396 128.328 121.586 127.807 121.586 127.125C121.586 126.401 121.391 125.859 121 125.5C120.615 125.135 120.073 124.953 119.375 124.953C118.698 124.953 118.164 125.148 117.773 125.539C117.388 125.924 117.195 126.464 117.195 127.156ZM131.094 133V127.492C131.094 126.638 130.914 126.018 130.555 125.633C130.195 125.242 129.638 125.047 128.883 125.047C127.867 125.047 127.122 125.305 126.648 125.82C126.18 126.331 125.945 127.161 125.945 128.312V133H125.172V120.844H125.945V124.711L125.906 125.797H125.961C126.279 125.286 126.68 124.917 127.164 124.688C127.648 124.458 128.25 124.344 128.969 124.344C130.896 124.344 131.859 125.378 131.859 127.445V133H131.094ZM136.852 132.469C137.341 132.469 137.768 132.427 138.133 132.344V132.969C137.758 133.094 137.326 133.156 136.836 133.156C136.086 133.156 135.531 132.956 135.172 132.555C134.818 132.154 134.641 131.523 134.641 130.664V125.18H133.383V124.727L134.641 124.375L135.031 122.453H135.43V124.508H137.922V125.18H135.43V130.555C135.43 131.206 135.544 131.688 135.773 132C136.003 132.312 136.362 132.469 136.852 132.469ZM144.898 133H144.125V124.508H144.898V133ZM144.016 122.148C144.016 121.648 144.18 121.398 144.508 121.398C144.669 121.398 144.794 121.464 144.883 121.594C144.977 121.724 145.023 121.909 145.023 122.148C145.023 122.383 144.977 122.568 144.883 122.703C144.794 122.839 144.669 122.906 144.508 122.906C144.18 122.906 144.016 122.654 144.016 122.148ZM153.672 133V127.492C153.672 126.638 153.492 126.018 153.133 125.633C152.773 125.242 152.216 125.047 151.461 125.047C150.445 125.047 149.701 125.305 149.227 125.82C148.758 126.331 148.523 127.161 148.523 128.312V133H147.75V124.508H148.406L148.555 125.672H148.602C149.154 124.786 150.135 124.344 151.547 124.344C153.474 124.344 154.438 125.378 154.438 127.445V133H153.672ZM159.43 132.469C159.919 132.469 160.346 132.427 160.711 132.344V132.969C160.336 133.094 159.904 133.156 159.414 133.156C158.664 133.156 158.109 132.956 157.75 132.555C157.396 132.154 157.219 131.523 157.219 130.664V125.18H155.961V124.727L157.219 124.375L157.609 122.453H158.008V124.508H160.5V125.18H158.008V130.555C158.008 131.206 158.122 131.688 158.352 132C158.581 132.312 158.94 132.469 159.43 132.469ZM165.977 133.156C164.742 133.156 163.779 132.776 163.086 132.016C162.398 131.255 162.055 130.19 162.055 128.82C162.055 127.466 162.388 126.383 163.055 125.57C163.721 124.753 164.62 124.344 165.75 124.344C166.75 124.344 167.539 124.693 168.117 125.391C168.695 126.089 168.984 127.036 168.984 128.234V128.859H162.867C162.878 130.026 163.148 130.917 163.68 131.531C164.216 132.146 164.982 132.453 165.977 132.453C166.461 132.453 166.885 132.419 167.25 132.352C167.62 132.284 168.086 132.138 168.648 131.914V132.617C168.169 132.826 167.727 132.966 167.32 133.039C166.914 133.117 166.466 133.156 165.977 133.156ZM165.75 125.031C164.932 125.031 164.276 125.302 163.781 125.844C163.286 126.38 162.997 127.156 162.914 128.172H168.164C168.164 127.188 167.951 126.419 167.523 125.867C167.096 125.31 166.505 125.031 165.75 125.031ZM174.672 124.344C175.031 124.344 175.417 124.38 175.828 124.453L175.68 125.195C175.326 125.107 174.958 125.062 174.578 125.062C173.854 125.062 173.26 125.37 172.797 125.984C172.333 126.599 172.102 127.375 172.102 128.312V133H171.328V124.508H171.984L172.062 126.039H172.117C172.466 125.414 172.839 124.977 173.234 124.727C173.63 124.471 174.109 124.344 174.672 124.344ZM183.484 133V127.492C183.484 126.638 183.305 126.018 182.945 125.633C182.586 125.242 182.029 125.047 181.273 125.047C180.258 125.047 179.513 125.305 179.039 125.82C178.57 126.331 178.336 127.161 178.336 128.312V133H177.562V124.508H178.219L178.367 125.672H178.414C178.966 124.786 179.948 124.344 181.359 124.344C183.286 124.344 184.25 125.378 184.25 127.445V133H183.484ZM186.219 128.617C186.219 127.237 186.419 125.945 186.82 124.742C187.227 123.539 187.81 122.484 188.57 121.578H189.453C188.682 122.526 188.091 123.602 187.68 124.805C187.268 126.003 187.062 127.268 187.062 128.602C187.062 131.117 187.854 133.427 189.438 135.531H188.57C187.805 134.646 187.221 133.612 186.82 132.43C186.419 131.247 186.219 129.977 186.219 128.617ZM196.625 130.789C196.625 131.549 196.336 132.135 195.758 132.547C195.18 132.953 194.359 133.156 193.297 133.156C192.161 133.156 191.26 132.982 190.594 132.633V131.797C191.448 132.224 192.349 132.438 193.297 132.438C194.135 132.438 194.771 132.299 195.203 132.023C195.641 131.742 195.859 131.37 195.859 130.906C195.859 130.479 195.685 130.12 195.336 129.828C194.992 129.536 194.424 129.25 193.633 128.969C192.784 128.661 192.188 128.398 191.844 128.18C191.5 127.956 191.24 127.706 191.062 127.43C190.891 127.148 190.805 126.807 190.805 126.406C190.805 125.771 191.07 125.268 191.602 124.898C192.138 124.529 192.885 124.344 193.844 124.344C194.76 124.344 195.63 124.516 196.453 124.859L196.164 125.562C195.331 125.219 194.557 125.047 193.844 125.047C193.151 125.047 192.602 125.161 192.195 125.391C191.789 125.62 191.586 125.938 191.586 126.344C191.586 126.786 191.742 127.141 192.055 127.406C192.372 127.672 192.99 127.969 193.906 128.297C194.672 128.573 195.229 128.823 195.578 129.047C195.927 129.266 196.188 129.516 196.359 129.797C196.536 130.078 196.625 130.409 196.625 130.789ZM201.102 128.617C201.102 129.987 200.898 131.263 200.492 132.445C200.091 133.628 199.51 134.656 198.75 135.531H197.883C199.466 133.427 200.258 131.117 200.258 128.602C200.258 127.263 200.052 125.995 199.641 124.797C199.229 123.594 198.638 122.521 197.867 121.578H198.75C199.516 122.49 200.099 123.549 200.5 124.758C200.901 125.961 201.102 127.247 201.102 128.617ZM210.484 125.18H208.484V133H207.711V125.18H206.133V124.727L207.711 124.438V123.781C207.711 122.74 207.901 121.977 208.281 121.492C208.667 121.003 209.294 120.758 210.164 120.758C210.633 120.758 211.102 120.828 211.57 120.969L211.391 121.641C210.974 121.51 210.56 121.445 210.148 121.445C209.544 121.445 209.115 121.625 208.859 121.984C208.609 122.339 208.484 122.917 208.484 123.719V124.508H210.484V125.18ZM219.148 128.742C219.148 130.128 218.812 131.211 218.141 131.992C217.469 132.768 216.542 133.156 215.359 133.156C214.615 133.156 213.958 132.977 213.391 132.617C212.823 132.258 212.388 131.742 212.086 131.07C211.784 130.398 211.633 129.622 211.633 128.742C211.633 127.357 211.969 126.279 212.641 125.508C213.312 124.732 214.234 124.344 215.406 124.344C216.573 124.344 217.487 124.737 218.148 125.523C218.815 126.305 219.148 127.378 219.148 128.742ZM212.445 128.742C212.445 129.909 212.701 130.82 213.211 131.477C213.727 132.128 214.453 132.453 215.391 132.453C216.328 132.453 217.052 132.128 217.562 131.477C218.078 130.82 218.336 129.909 218.336 128.742C218.336 127.57 218.076 126.661 217.555 126.016C217.039 125.37 216.312 125.047 215.375 125.047C214.438 125.047 213.714 125.37 213.203 126.016C212.698 126.656 212.445 127.565 212.445 128.742ZM224.844 124.344C225.203 124.344 225.589 124.38 226 124.453L225.852 125.195C225.497 125.107 225.13 125.062 224.75 125.062C224.026 125.062 223.432 125.37 222.969 125.984C222.505 126.599 222.273 127.375 222.273 128.312V133H221.5V124.508H222.156L222.234 126.039H222.289C222.638 125.414 223.01 124.977 223.406 124.727C223.802 124.471 224.281 124.344 224.844 124.344ZM43 146.508H43.7969L45.5938 151.273C46.1406 152.737 46.487 153.724 46.6328 154.234H46.6797C46.8984 153.562 47.2552 152.56 47.75 151.227L49.5469 146.508H50.3438L46.5391 156.375C46.2318 157.177 45.974 157.719 45.7656 158C45.5573 158.281 45.3125 158.492 45.0312 158.633C44.7552 158.773 44.4193 158.844 44.0234 158.844C43.7266 158.844 43.3958 158.789 43.0312 158.68V158.008C43.3333 158.091 43.6589 158.133 44.0078 158.133C44.2734 158.133 44.5078 158.07 44.7109 157.945C44.9141 157.82 45.0964 157.625 45.2578 157.359C45.4245 157.099 45.6146 156.682 45.8281 156.109C46.0469 155.542 46.1875 155.172 46.25 155L43 146.508ZM58.7891 150.742C58.7891 152.128 58.4531 153.211 57.7812 153.992C57.1094 154.768 56.1823 155.156 55 155.156C54.2552 155.156 53.599 154.977 53.0312 154.617C52.4635 154.258 52.0286 153.742 51.7266 153.07C51.4245 152.398 51.2734 151.622 51.2734 150.742C51.2734 149.357 51.6094 148.279 52.2812 147.508C52.9531 146.732 53.875 146.344 55.0469 146.344C56.2135 146.344 57.1276 146.737 57.7891 147.523C58.4557 148.305 58.7891 149.378 58.7891 150.742ZM52.0859 150.742C52.0859 151.909 52.3411 152.82 52.8516 153.477C53.3672 154.128 54.0938 154.453 55.0312 154.453C55.9688 154.453 56.6927 154.128 57.2031 153.477C57.7188 152.82 57.9766 151.909 57.9766 150.742C57.9766 149.57 57.7161 148.661 57.1953 148.016C56.6797 147.37 55.9531 147.047 55.0156 147.047C54.0781 147.047 53.3542 147.37 52.8438 148.016C52.3385 148.656 52.0859 149.565 52.0859 150.742ZM61.8125 146.508V152.008C61.8125 152.862 61.9922 153.484 62.3516 153.875C62.7109 154.26 63.2682 154.453 64.0234 154.453C65.0339 154.453 65.776 154.198 66.25 153.688C66.7292 153.177 66.9688 152.346 66.9688 151.195V146.508H67.7344V155H67.0781L66.9375 153.828H66.8906C66.3385 154.714 65.3568 155.156 63.9453 155.156C62.013 155.156 61.0469 154.122 61.0469 152.055V146.508H61.8125ZM73.9219 146.344C74.2812 146.344 74.6667 146.38 75.0781 146.453L74.9297 147.195C74.5755 147.107 74.2083 147.062 73.8281 147.062C73.1042 147.062 72.5104 147.37 72.0469 147.984C71.5833 148.599 71.3516 149.375 71.3516 150.312V155H70.5781V146.508H71.2344L71.3125 148.039H71.3672C71.7161 147.414 72.0885 146.977 72.4844 146.727C72.8802 146.471 73.3594 146.344 73.9219 146.344ZM84.6016 155.156C83.2943 155.156 82.3411 154.667 81.7422 153.688H81.6875L81.7109 154.344C81.7318 154.729 81.7422 155.151 81.7422 155.609V158.844H80.9688V146.508H81.625L81.7734 147.719H81.8203C82.4036 146.802 83.3359 146.344 84.6172 146.344C85.763 146.344 86.6354 146.721 87.2344 147.477C87.8385 148.227 88.1406 149.32 88.1406 150.758C88.1406 152.154 87.8229 153.237 87.1875 154.008C86.5573 154.773 85.6953 155.156 84.6016 155.156ZM84.5859 154.469C85.4557 154.469 86.1276 154.146 86.6016 153.5C87.0807 152.854 87.3203 151.951 87.3203 150.789C87.3203 148.294 86.4193 147.047 84.6172 147.047C83.6276 147.047 82.901 147.32 82.4375 147.867C81.974 148.409 81.7422 149.294 81.7422 150.523V150.773C81.7422 152.102 81.9635 153.049 82.4062 153.617C82.8542 154.185 83.5807 154.469 84.5859 154.469ZM93.8438 146.344C94.2031 146.344 94.5885 146.38 95 146.453L94.8516 147.195C94.4974 147.107 94.1302 147.062 93.75 147.062C93.026 147.062 92.4323 147.37 91.9688 147.984C91.5052 148.599 91.2734 149.375 91.2734 150.312V155H90.5V146.508H91.1562L91.2344 148.039H91.2891C91.638 147.414 92.0104 146.977 92.4062 146.727C92.8021 146.471 93.2812 146.344 93.8438 146.344ZM103.758 150.742C103.758 152.128 103.422 153.211 102.75 153.992C102.078 154.768 101.151 155.156 99.9688 155.156C99.224 155.156 98.5677 154.977 98 154.617C97.4323 154.258 96.9974 153.742 96.6953 153.07C96.3932 152.398 96.2422 151.622 96.2422 150.742C96.2422 149.357 96.5781 148.279 97.25 147.508C97.9219 146.732 98.8438 146.344 100.016 146.344C101.182 146.344 102.096 146.737 102.758 147.523C103.424 148.305 103.758 149.378 103.758 150.742ZM97.0547 150.742C97.0547 151.909 97.3099 152.82 97.8203 153.477C98.3359 154.128 99.0625 154.453 100 154.453C100.938 154.453 101.661 154.128 102.172 153.477C102.688 152.82 102.945 151.909 102.945 150.742C102.945 149.57 102.685 148.661 102.164 148.016C101.648 147.37 100.922 147.047 99.9844 147.047C99.0469 147.047 98.3229 147.37 97.8125 148.016C97.3073 148.656 97.0547 149.565 97.0547 150.742ZM104.977 158.844C104.56 158.844 104.208 158.779 103.922 158.648V157.977C104.281 158.081 104.617 158.133 104.93 158.133C105.716 158.133 106.109 157.674 106.109 156.758V146.508H106.883V156.648C106.883 157.352 106.716 157.893 106.383 158.273C106.055 158.654 105.586 158.844 104.977 158.844ZM106 144.148C106 143.648 106.164 143.398 106.492 143.398C106.654 143.398 106.779 143.464 106.867 143.594C106.961 143.724 107.008 143.909 107.008 144.148C107.008 144.383 106.961 144.568 106.867 144.703C106.779 144.839 106.654 144.906 106.492 144.906C106.164 144.906 106 144.654 106 144.148ZM113.164 155.156C111.93 155.156 110.966 154.776 110.273 154.016C109.586 153.255 109.242 152.19 109.242 150.82C109.242 149.466 109.576 148.383 110.242 147.57C110.909 146.753 111.807 146.344 112.938 146.344C113.938 146.344 114.727 146.693 115.305 147.391C115.883 148.089 116.172 149.036 116.172 150.234V150.859H110.055C110.065 152.026 110.336 152.917 110.867 153.531C111.404 154.146 112.169 154.453 113.164 154.453C113.648 154.453 114.073 154.419 114.438 154.352C114.807 154.284 115.273 154.138 115.836 153.914V154.617C115.357 154.826 114.914 154.966 114.508 155.039C114.102 155.117 113.654 155.156 113.164 155.156ZM112.938 147.031C112.12 147.031 111.464 147.302 110.969 147.844C110.474 148.38 110.185 149.156 110.102 150.172H115.352C115.352 149.188 115.138 148.419 114.711 147.867C114.284 147.31 113.693 147.031 112.938 147.031ZM121.906 155.156C120.693 155.156 119.742 154.773 119.055 154.008C118.367 153.242 118.023 152.174 118.023 150.805C118.023 149.398 118.38 148.305 119.094 147.523C119.807 146.737 120.784 146.344 122.023 146.344C122.758 146.344 123.461 146.471 124.133 146.727L123.922 147.414C123.188 147.169 122.549 147.047 122.008 147.047C120.966 147.047 120.177 147.37 119.641 148.016C119.104 148.656 118.836 149.581 118.836 150.789C118.836 151.935 119.104 152.833 119.641 153.484C120.177 154.13 120.927 154.453 121.891 154.453C122.661 154.453 123.378 154.315 124.039 154.039V154.758C123.497 155.023 122.786 155.156 121.906 155.156ZM128.367 154.469C128.857 154.469 129.284 154.427 129.648 154.344V154.969C129.273 155.094 128.841 155.156 128.352 155.156C127.602 155.156 127.047 154.956 126.688 154.555C126.333 154.154 126.156 153.523 126.156 152.664V147.18H124.898V146.727L126.156 146.375L126.547 144.453H126.945V146.508H129.438V147.18H126.945V152.555C126.945 153.206 127.06 153.688 127.289 154C127.518 154.312 127.878 154.469 128.367 154.469Z" fill="#263238"/>
<defs>
<filter id="filter0_d" x="0.126953" y="0" width="307" height="189" filterUnits="userSpaceOnUse" color-interpolation-filters="sRGB">
<feFlood flood-opacity="0" result="BackgroundImageFix"/>
<feColorMatrix in="SourceAlpha" type="matrix" values="0 0 0 0 0 0 0 0 0 0 0 0 0 0 0 0 0 0 127 0"/>
<feOffset/>
<feGaussianBlur stdDeviation="1.5"/>
<feColorMatrix type="matrix" values="0 0 0 0 0 0 0 0 0 0 0 0 0 0 0 0 0 0 0.25 0"/>
<feBlend mode="normal" in2="BackgroundImageFix" result="effect1_dropShadow"/>
<feBlend mode="normal" in="SourceGraphic" in2="effect1_dropShadow" result="shape"/>
</filter>
</defs>
</svg>
