<svg width="308" height="189" viewBox="0 0 308 189" fill="none" xmlns="http://www.w3.org/2000/svg">
<g filter="url(#filter0_d)">
<rect x="3.12695" y="3" width="301" height="183" fill="white"/>
</g>
<path d="M45.5527 62V44.8672H46.748V60.875H54.916V62H45.5527ZM62.7324 62.2344C60.8809 62.2344 59.4355 61.6641 58.3965 60.5234C57.3652 59.3828 56.8496 57.7852 56.8496 55.7305C56.8496 53.6992 57.3496 52.0742 58.3496 50.8555C59.3496 49.6289 60.6973 49.0156 62.3926 49.0156C63.8926 49.0156 65.0762 49.5391 65.9434 50.5859C66.8105 51.6328 67.2441 53.0547 67.2441 54.8516V55.7891H58.0684C58.084 57.5391 58.4902 58.875 59.2871 59.7969C60.0918 60.7188 61.2402 61.1797 62.7324 61.1797C63.459 61.1797 64.0957 61.1289 64.6426 61.0273C65.1973 60.9258 65.8965 60.707 66.7402 60.3711V61.4258C66.0215 61.7383 65.3574 61.9492 64.748 62.0586C64.1387 62.1758 63.4668 62.2344 62.7324 62.2344ZM62.3926 50.0469C61.166 50.0469 60.1816 50.4531 59.4395 51.2656C58.6973 52.0703 58.2637 53.2344 58.1387 54.7578H66.0137C66.0137 53.2812 65.6934 52.1289 65.0527 51.3008C64.4121 50.4648 63.5254 50.0469 62.3926 50.0469ZM74.123 61.2031C74.8574 61.2031 75.498 61.1406 76.0449 61.0156V61.9531C75.4824 62.1406 74.834 62.2344 74.0996 62.2344C72.9746 62.2344 72.1426 61.9336 71.6035 61.332C71.0723 60.7305 70.8066 59.7852 70.8066 58.4961V50.2695H68.9199V49.5898L70.8066 49.0625L71.3926 46.1797H71.9902V49.2617H75.7285V50.2695H71.9902V58.332C71.9902 59.3086 72.1621 60.0312 72.5059 60.5C72.8496 60.9688 73.3887 61.2031 74.123 61.2031ZM79.666 44.8672L79.8066 45.1016C79.2207 47.1719 78.541 49.0508 77.7676 50.7383H77.0059C77.2324 49.9883 77.4707 49.0469 77.7207 47.9141C77.9707 46.7734 78.1621 45.7578 78.2949 44.8672H79.666ZM90.1895 58.6836C90.1895 59.8242 89.7559 60.7031 88.8887 61.3203C88.0215 61.9297 86.791 62.2344 85.1973 62.2344C83.4941 62.2344 82.1426 61.9727 81.1426 61.4492V60.1953C82.4238 60.8359 83.7754 61.1562 85.1973 61.1562C86.4551 61.1562 87.4082 60.9492 88.0566 60.5352C88.7129 60.1133 89.041 59.5547 89.041 58.8594C89.041 58.2188 88.7793 57.6797 88.2559 57.2422C87.7402 56.8047 86.8887 56.375 85.7012 55.9531C84.4277 55.4922 83.5332 55.0977 83.0176 54.7695C82.502 54.4336 82.1113 54.0586 81.8457 53.6445C81.5879 53.2227 81.459 52.7109 81.459 52.1094C81.459 51.1562 81.8574 50.4023 82.6543 49.8477C83.459 49.293 84.5801 49.0156 86.0176 49.0156C87.3926 49.0156 88.6973 49.2734 89.9316 49.7891L89.498 50.8438C88.248 50.3281 87.0879 50.0703 86.0176 50.0703C84.9785 50.0703 84.1543 50.2422 83.5449 50.5859C82.9355 50.9297 82.6309 51.4062 82.6309 52.0156C82.6309 52.6797 82.8652 53.2109 83.334 53.6094C83.8105 54.0078 84.7363 54.4531 86.1113 54.9453C87.2598 55.3594 88.0957 55.7344 88.6191 56.0703C89.1426 56.3984 89.5332 56.7734 89.791 57.1953C90.0566 57.6172 90.1895 58.1133 90.1895 58.6836ZM104.463 62H103.256V45.9922H97.6895V44.8672H110.029V45.9922H104.463V62ZM120.025 62L119.732 59.9844H119.639C118.998 60.8047 118.338 61.3867 117.658 61.7305C116.986 62.0664 116.189 62.2344 115.268 62.2344C114.018 62.2344 113.045 61.9141 112.35 61.2734C111.654 60.6328 111.307 59.7461 111.307 58.6133C111.307 57.3711 111.822 56.4062 112.854 55.7188C113.893 55.0312 115.393 54.668 117.354 54.6289L119.779 54.5586V53.7148C119.779 52.5039 119.533 51.5898 119.041 50.9727C118.549 50.3555 117.756 50.0469 116.662 50.0469C115.482 50.0469 114.26 50.375 112.994 51.0312L112.561 50.0234C113.959 49.3672 115.342 49.0391 116.709 49.0391C118.107 49.0391 119.15 49.4023 119.838 50.1289C120.533 50.8555 120.881 51.9883 120.881 53.5273V62H120.025ZM115.338 61.1797C116.697 61.1797 117.768 60.793 118.549 60.0195C119.338 59.2383 119.732 58.1562 119.732 56.7734V55.5195L117.506 55.6133C115.717 55.6992 114.439 55.9805 113.674 56.457C112.916 56.9258 112.537 57.6602 112.537 58.6602C112.537 59.457 112.779 60.0781 113.264 60.5234C113.756 60.9609 114.447 61.1797 115.338 61.1797ZM126.178 62H125.018V43.7656H126.178V62ZM131.592 56.4102L138.096 49.2617H139.502L134.486 54.6992L139.936 62H138.541L133.701 55.5664L131.615 57.4648V62H130.455V43.7656H131.615V52.9062L131.533 56.4102H131.592ZM45.5527 77.8672H50.252C52.3691 77.8672 53.9238 78.2266 54.916 78.9453C55.9082 79.6641 56.4043 80.75 56.4043 82.2031C56.4043 83.1953 56.0996 84.0234 55.4902 84.6875C54.8887 85.3438 54.0059 85.7656 52.8418 85.9531V86.0234C54.209 86.2266 55.2129 86.6602 55.8535 87.3242C56.502 87.9805 56.8262 88.8984 56.8262 90.0781C56.8262 91.6562 56.3027 92.8711 55.2559 93.7227C54.209 94.5742 52.7246 95 50.8027 95H45.5527V77.8672ZM46.748 85.4961H50.5215C52.1309 85.4961 53.2988 85.2305 54.0254 84.6992C54.7598 84.1602 55.127 83.3203 55.127 82.1797C55.127 81.0391 54.7129 80.2109 53.8848 79.6953C53.0645 79.1797 51.8379 78.9219 50.2051 78.9219H46.748V85.4961ZM46.748 86.5508V93.9453H50.7793C53.9512 93.9453 55.5371 92.6562 55.5371 90.0781C55.5371 87.7266 53.8652 86.5508 50.5215 86.5508H46.748ZM61.3145 82.2617V90.5117C61.3145 91.793 61.584 92.7266 62.123 93.3125C62.6621 93.8906 63.498 94.1797 64.6309 94.1797C66.1465 94.1797 67.2598 93.7969 67.9707 93.0312C68.6895 92.2656 69.0488 91.0195 69.0488 89.293V82.2617H70.1973V95H69.2129L69.002 93.2422H68.9316C68.1035 94.5703 66.6309 95.2344 64.5137 95.2344C61.6152 95.2344 60.166 93.6836 60.166 90.582V82.2617H61.3145ZM82.3613 91.6836C82.3613 92.8242 81.9277 93.7031 81.0605 94.3203C80.1934 94.9297 78.9629 95.2344 77.3691 95.2344C75.666 95.2344 74.3145 94.9727 73.3145 94.4492V93.1953C74.5957 93.8359 75.9473 94.1562 77.3691 94.1562C78.627 94.1562 79.5801 93.9492 80.2285 93.5352C80.8848 93.1133 81.2129 92.5547 81.2129 91.8594C81.2129 91.2188 80.9512 90.6797 80.4277 90.2422C79.9121 89.8047 79.0605 89.375 77.873 88.9531C76.5996 88.4922 75.7051 88.0977 75.1895 87.7695C74.6738 87.4336 74.2832 87.0586 74.0176 86.6445C73.7598 86.2227 73.6309 85.7109 73.6309 85.1094C73.6309 84.1562 74.0293 83.4023 74.8262 82.8477C75.6309 82.293 76.752 82.0156 78.1895 82.0156C79.5645 82.0156 80.8691 82.2734 82.1035 82.7891L81.6699 83.8438C80.4199 83.3281 79.2598 83.0703 78.1895 83.0703C77.1504 83.0703 76.3262 83.2422 75.7168 83.5859C75.1074 83.9297 74.8027 84.4062 74.8027 85.0156C74.8027 85.6797 75.0371 86.2109 75.5059 86.6094C75.9824 87.0078 76.9082 87.4531 78.2832 87.9453C79.4316 88.3594 80.2676 88.7344 80.791 89.0703C81.3145 89.3984 81.7051 89.7734 81.9629 90.1953C82.2285 90.6172 82.3613 91.1133 82.3613 91.6836ZM86.8027 95H85.6426V82.2617H86.8027V95ZM85.4785 78.7227C85.4785 77.9727 85.7246 77.5977 86.2168 77.5977C86.459 77.5977 86.6465 77.6953 86.7793 77.8906C86.9199 78.0859 86.9902 78.3633 86.9902 78.7227C86.9902 79.0742 86.9199 79.3516 86.7793 79.5547C86.6465 79.7578 86.459 79.8594 86.2168 79.8594C85.7246 79.8594 85.4785 79.4805 85.4785 78.7227ZM99.9629 95V86.7383C99.9629 85.457 99.6934 84.5273 99.1543 83.9492C98.6152 83.3633 97.7793 83.0703 96.6465 83.0703C95.123 83.0703 94.0059 83.457 93.2949 84.2305C92.5918 84.9961 92.2402 86.2422 92.2402 87.9688V95H91.0801V82.2617H92.0645L92.2871 84.0078H92.3574C93.1855 82.6797 94.6582 82.0156 96.7754 82.0156C99.666 82.0156 101.111 83.5664 101.111 86.668V95H99.9629ZM110.381 95.2344C108.529 95.2344 107.084 94.6641 106.045 93.5234C105.014 92.3828 104.498 90.7852 104.498 88.7305C104.498 86.6992 104.998 85.0742 105.998 83.8555C106.998 82.6289 108.346 82.0156 110.041 82.0156C111.541 82.0156 112.725 82.5391 113.592 83.5859C114.459 84.6328 114.893 86.0547 114.893 87.8516V88.7891H105.717C105.732 90.5391 106.139 91.875 106.936 92.7969C107.74 93.7188 108.889 94.1797 110.381 94.1797C111.107 94.1797 111.744 94.1289 112.291 94.0273C112.846 93.9258 113.545 93.707 114.389 93.3711V94.4258C113.67 94.7383 113.006 94.9492 112.396 95.0586C111.787 95.1758 111.115 95.2344 110.381 95.2344ZM110.041 83.0469C108.814 83.0469 107.83 83.4531 107.088 84.2656C106.346 85.0703 105.912 86.2344 105.787 87.7578H113.662C113.662 86.2812 113.342 85.1289 112.701 84.3008C112.061 83.4648 111.174 83.0469 110.041 83.0469ZM126.307 91.6836C126.307 92.8242 125.873 93.7031 125.006 94.3203C124.139 94.9297 122.908 95.2344 121.314 95.2344C119.611 95.2344 118.26 94.9727 117.26 94.4492V93.1953C118.541 93.8359 119.893 94.1562 121.314 94.1562C122.572 94.1562 123.525 93.9492 124.174 93.5352C124.83 93.1133 125.158 92.5547 125.158 91.8594C125.158 91.2188 124.896 90.6797 124.373 90.2422C123.857 89.8047 123.006 89.375 121.818 88.9531C120.545 88.4922 119.65 88.0977 119.135 87.7695C118.619 87.4336 118.229 87.0586 117.963 86.6445C117.705 86.2227 117.576 85.7109 117.576 85.1094C117.576 84.1562 117.975 83.4023 118.771 82.8477C119.576 82.293 120.697 82.0156 122.135 82.0156C123.51 82.0156 124.814 82.2734 126.049 82.7891L125.615 83.8438C124.365 83.3281 123.205 83.0703 122.135 83.0703C121.096 83.0703 120.271 83.2422 119.662 83.5859C119.053 83.9297 118.748 84.4062 118.748 85.0156C118.748 85.6797 118.982 86.2109 119.451 86.6094C119.928 87.0078 120.854 87.4531 122.229 87.9453C123.377 88.3594 124.213 88.7344 124.736 89.0703C125.26 89.3984 125.65 89.7734 125.908 90.1953C126.174 90.6172 126.307 91.1133 126.307 91.6836ZM137.486 91.6836C137.486 92.8242 137.053 93.7031 136.186 94.3203C135.318 94.9297 134.088 95.2344 132.494 95.2344C130.791 95.2344 129.439 94.9727 128.439 94.4492V93.1953C129.721 93.8359 131.072 94.1562 132.494 94.1562C133.752 94.1562 134.705 93.9492 135.354 93.5352C136.01 93.1133 136.338 92.5547 136.338 91.8594C136.338 91.2188 136.076 90.6797 135.553 90.2422C135.037 89.8047 134.186 89.375 132.998 88.9531C131.725 88.4922 130.83 88.0977 130.314 87.7695C129.799 87.4336 129.408 87.0586 129.143 86.6445C128.885 86.2227 128.756 85.7109 128.756 85.1094C128.756 84.1562 129.154 83.4023 129.951 82.8477C130.756 82.293 131.877 82.0156 133.314 82.0156C134.689 82.0156 135.994 82.2734 137.229 82.7891L136.795 83.8438C135.545 83.3281 134.385 83.0703 133.314 83.0703C132.275 83.0703 131.451 83.2422 130.842 83.5859C130.232 83.9297 129.928 84.4062 129.928 85.0156C129.928 85.6797 130.162 86.2109 130.631 86.6094C131.107 87.0078 132.033 87.4531 133.408 87.9453C134.557 88.3594 135.393 88.7344 135.916 89.0703C136.439 89.3984 136.83 89.7734 137.088 90.1953C137.354 90.6172 137.486 91.1133 137.486 91.6836Z" fill="#263238"/>
<rect x="248" y="41.4124" width="30" height="22" rx="3" fill="#FFC062"/>
<path d="M274.5 70.9124L268 63.4124L275 61.9124V70.9124H274.5Z" fill="#FFC062"/>
<path d="M273.204 46.8386H252.751C252.395 46.8386 252.106 47.1272 252.106 47.4832C252.106 47.8391 252.395 48.1277 252.751 48.1277H273.204C273.56 48.1277 273.849 47.8391 273.849 47.4832C273.849 47.1272 273.56 46.8386 273.204 46.8386Z" fill="black"/>
<path d="M273.204 51.7656H252.751C252.395 51.7656 252.106 52.0542 252.106 52.4102C252.106 52.7661 252.395 53.0547 252.751 53.0547H273.204C273.56 53.0547 273.849 52.7661 273.849 52.4102C273.849 52.0542 273.56 51.7656 273.204 51.7656Z" fill="black"/>
<path d="M273.204 56.6926H252.751C252.395 56.6926 252.106 56.9812 252.106 57.3372C252.106 57.6931 252.395 57.9817 252.751 57.9817H273.204C273.56 57.9817 273.849 57.6931 273.849 57.3372C273.849 56.9812 273.56 56.6926 273.204 56.6926Z" fill="black"/>
<path d="M275.251 41.2019H250.703C248.636 41.2019 246.955 42.8835 246.955 44.9507V60.3865C246.955 62.4536 248.636 64.1353 250.703 64.1353H267.909C268.093 64.1353 268.264 64.218 268.378 64.3625L273.934 71.3967C274.153 71.674 274.473 71.825 274.807 71.825C274.932 71.825 275.058 71.8042 275.182 71.761C275.64 71.602 275.936 71.1862 275.936 70.7016V64.0712C277.674 63.7466 279 62.2099 279 60.3865V44.9506C279 42.8835 277.318 41.2019 275.251 41.2019ZM277.711 60.3865C277.711 61.7252 276.622 62.8282 275.283 62.8452C274.93 62.8497 274.647 63.1369 274.647 63.4897V70.219L269.39 63.5634C269.03 63.1075 268.49 62.8461 267.909 62.8461H250.703C249.347 62.8461 248.244 61.7427 248.244 60.3864V44.9506C248.244 43.5943 249.347 42.4909 250.703 42.4909H275.251C276.607 42.4909 277.711 43.5943 277.711 44.9506V60.3865Z" fill="black"/>
<path d="M244.496 51.8591C244.055 51.9216 243.66 52.1486 243.384 52.498L238.956 58.1034V52.4856C238.956 52.1328 238.673 51.8456 238.32 51.841C237.2 51.8268 236.289 50.904 236.289 49.7841V36.3468C236.289 35.2122 237.212 34.2891 238.347 34.2891H259.716C260.851 34.2891 261.774 35.2122 261.774 36.3468V38.8332C261.774 39.1891 262.063 39.4777 262.419 39.4777C262.775 39.4777 263.063 39.1891 263.063 38.8332V36.3468C263.063 34.5014 261.562 33 259.716 33H238.347C236.501 33 235 34.5014 235 36.3468V49.7841C235 51.3883 236.149 52.7436 237.667 53.0604V58.7637C237.667 59.2216 237.947 59.6146 238.379 59.7648C238.497 59.8055 238.616 59.8253 238.734 59.8253C239.05 59.8253 239.352 59.6825 239.559 59.4206L244.396 53.2971C244.465 53.2086 244.565 53.1512 244.677 53.1353C245.029 53.0853 245.274 52.759 245.224 52.4066C245.174 52.0541 244.849 51.8088 244.496 51.8591Z" fill="black"/>
<path d="M52.8906 133H52.0859V127.383H45.4141V133H44.6172V121.578H45.4141V126.648H52.0859V121.578H52.8906V133ZM59.3672 133.156C58.1328 133.156 57.1693 132.776 56.4766 132.016C55.7891 131.255 55.4453 130.19 55.4453 128.82C55.4453 127.466 55.7786 126.383 56.4453 125.57C57.112 124.753 58.0104 124.344 59.1406 124.344C60.1406 124.344 60.9297 124.693 61.5078 125.391C62.0859 126.089 62.375 127.036 62.375 128.234V128.859H56.2578C56.2682 130.026 56.5391 130.917 57.0703 131.531C57.6068 132.146 58.3724 132.453 59.3672 132.453C59.8516 132.453 60.276 132.419 60.6406 132.352C61.0104 132.284 61.4766 132.138 62.0391 131.914V132.617C61.5599 132.826 61.1172 132.966 60.7109 133.039C60.3047 133.117 59.8568 133.156 59.3672 133.156ZM59.1406 125.031C58.3229 125.031 57.6667 125.302 57.1719 125.844C56.6771 126.38 56.388 127.156 56.3047 128.172H61.5547C61.5547 127.188 61.3411 126.419 60.9141 125.867C60.487 125.31 59.8958 125.031 59.1406 125.031ZM65.4922 133H64.7188V120.844H65.4922V133ZM71.9766 133.156C70.6693 133.156 69.7161 132.667 69.1172 131.688H69.0625L69.0859 132.344C69.1068 132.729 69.1172 133.151 69.1172 133.609V136.844H68.3438V124.508H69L69.1484 125.719H69.1953C69.7786 124.802 70.7109 124.344 71.9922 124.344C73.138 124.344 74.0104 124.721 74.6094 125.477C75.2135 126.227 75.5156 127.32 75.5156 128.758C75.5156 130.154 75.1979 131.237 74.5625 132.008C73.9323 132.773 73.0703 133.156 71.9766 133.156ZM71.9609 132.469C72.8307 132.469 73.5026 132.146 73.9766 131.5C74.4557 130.854 74.6953 129.951 74.6953 128.789C74.6953 126.294 73.7943 125.047 71.9922 125.047C71.0026 125.047 70.276 125.32 69.8125 125.867C69.349 126.409 69.1172 127.294 69.1172 128.523V128.773C69.1172 130.102 69.3385 131.049 69.7812 131.617C70.2292 132.185 70.9557 132.469 71.9609 132.469ZM82.7031 124.508V130.008C82.7031 130.862 82.8828 131.484 83.2422 131.875C83.6016 132.26 84.1589 132.453 84.9141 132.453C85.9245 132.453 86.6667 132.198 87.1406 131.688C87.6198 131.177 87.8594 130.346 87.8594 129.195V124.508H88.625V133H87.9688L87.8281 131.828H87.7812C87.2292 132.714 86.2474 133.156 84.8359 133.156C82.9036 133.156 81.9375 132.122 81.9375 130.055V124.508H82.7031ZM96.7344 130.789C96.7344 131.549 96.4453 132.135 95.8672 132.547C95.2891 132.953 94.4688 133.156 93.4062 133.156C92.2708 133.156 91.3698 132.982 90.7031 132.633V131.797C91.5573 132.224 92.4583 132.438 93.4062 132.438C94.2448 132.438 94.8802 132.299 95.3125 132.023C95.75 131.742 95.9688 131.37 95.9688 130.906C95.9688 130.479 95.7943 130.12 95.4453 129.828C95.1016 129.536 94.5339 129.25 93.7422 128.969C92.8932 128.661 92.2969 128.398 91.9531 128.18C91.6094 127.956 91.349 127.706 91.1719 127.43C91 127.148 90.9141 126.807 90.9141 126.406C90.9141 125.771 91.1797 125.268 91.7109 124.898C92.2474 124.529 92.9948 124.344 93.9531 124.344C94.8698 124.344 95.7396 124.516 96.5625 124.859L96.2734 125.562C95.4401 125.219 94.6667 125.047 93.9531 125.047C93.2604 125.047 92.7109 125.161 92.3047 125.391C91.8984 125.62 91.6953 125.938 91.6953 126.344C91.6953 126.786 91.8516 127.141 92.1641 127.406C92.4818 127.672 93.099 127.969 94.0156 128.297C94.7812 128.573 95.3385 128.823 95.6875 129.047C96.0365 129.266 96.2969 129.516 96.4688 129.797C96.6458 130.078 96.7344 130.409 96.7344 130.789ZM103.75 124.508V130.008C103.75 130.862 103.93 131.484 104.289 131.875C104.648 132.26 105.206 132.453 105.961 132.453C106.971 132.453 107.714 132.198 108.188 131.688C108.667 131.177 108.906 130.346 108.906 129.195V124.508H109.672V133H109.016L108.875 131.828H108.828C108.276 132.714 107.294 133.156 105.883 133.156C103.951 133.156 102.984 132.122 102.984 130.055V124.508H103.75ZM118.438 133V127.492C118.438 126.638 118.258 126.018 117.898 125.633C117.539 125.242 116.982 125.047 116.227 125.047C115.211 125.047 114.466 125.305 113.992 125.82C113.523 126.331 113.289 127.161 113.289 128.312V133H112.516V124.508H113.172L113.32 125.672H113.367C113.919 124.786 114.901 124.344 116.312 124.344C118.24 124.344 119.203 125.378 119.203 127.445V133H118.438ZM125.062 124.344C125.677 124.344 126.208 124.456 126.656 124.68C127.104 124.904 127.505 125.286 127.859 125.828H127.906C127.875 125.172 127.859 124.529 127.859 123.898V120.844H128.625V133H128.117L127.922 131.703H127.859C127.214 132.672 126.286 133.156 125.078 133.156C123.906 133.156 123.01 132.792 122.391 132.062C121.771 131.333 121.461 130.271 121.461 128.875C121.461 127.406 121.768 126.284 122.383 125.508C122.997 124.732 123.891 124.344 125.062 124.344ZM125.062 125.047C124.135 125.047 123.438 125.372 122.969 126.023C122.505 126.674 122.273 127.62 122.273 128.859C122.273 131.266 123.208 132.469 125.078 132.469C126.036 132.469 126.74 132.19 127.188 131.633C127.635 131.076 127.859 130.156 127.859 128.875V128.742C127.859 127.43 127.638 126.487 127.195 125.914C126.758 125.336 126.047 125.047 125.062 125.047ZM134.914 133.156C133.68 133.156 132.716 132.776 132.023 132.016C131.336 131.255 130.992 130.19 130.992 128.82C130.992 127.466 131.326 126.383 131.992 125.57C132.659 124.753 133.557 124.344 134.688 124.344C135.688 124.344 136.477 124.693 137.055 125.391C137.633 126.089 137.922 127.036 137.922 128.234V128.859H131.805C131.815 130.026 132.086 130.917 132.617 131.531C133.154 132.146 133.919 132.453 134.914 132.453C135.398 132.453 135.823 132.419 136.188 132.352C136.557 132.284 137.023 132.138 137.586 131.914V132.617C137.107 132.826 136.664 132.966 136.258 133.039C135.852 133.117 135.404 133.156 134.914 133.156ZM134.688 125.031C133.87 125.031 133.214 125.302 132.719 125.844C132.224 126.38 131.935 127.156 131.852 128.172H137.102C137.102 127.188 136.888 126.419 136.461 125.867C136.034 125.31 135.443 125.031 134.688 125.031ZM143.609 124.344C143.969 124.344 144.354 124.38 144.766 124.453L144.617 125.195C144.263 125.107 143.896 125.062 143.516 125.062C142.792 125.062 142.198 125.37 141.734 125.984C141.271 126.599 141.039 127.375 141.039 128.312V133H140.266V124.508H140.922L141 126.039H141.055C141.404 125.414 141.776 124.977 142.172 124.727C142.568 124.471 143.047 124.344 143.609 124.344ZM151.766 130.789C151.766 131.549 151.477 132.135 150.898 132.547C150.32 132.953 149.5 133.156 148.438 133.156C147.302 133.156 146.401 132.982 145.734 132.633V131.797C146.589 132.224 147.49 132.438 148.438 132.438C149.276 132.438 149.911 132.299 150.344 132.023C150.781 131.742 151 131.37 151 130.906C151 130.479 150.826 130.12 150.477 129.828C150.133 129.536 149.565 129.25 148.773 128.969C147.924 128.661 147.328 128.398 146.984 128.18C146.641 127.956 146.38 127.706 146.203 127.43C146.031 127.148 145.945 126.807 145.945 126.406C145.945 125.771 146.211 125.268 146.742 124.898C147.279 124.529 148.026 124.344 148.984 124.344C149.901 124.344 150.771 124.516 151.594 124.859L151.305 125.562C150.471 125.219 149.698 125.047 148.984 125.047C148.292 125.047 147.742 125.161 147.336 125.391C146.93 125.62 146.727 125.938 146.727 126.344C146.727 126.786 146.883 127.141 147.195 127.406C147.513 127.672 148.13 127.969 149.047 128.297C149.812 128.573 150.37 128.823 150.719 129.047C151.068 129.266 151.328 129.516 151.5 129.797C151.677 130.078 151.766 130.409 151.766 130.789ZM156.195 132.469C156.685 132.469 157.112 132.427 157.477 132.344V132.969C157.102 133.094 156.669 133.156 156.18 133.156C155.43 133.156 154.875 132.956 154.516 132.555C154.161 132.154 153.984 131.523 153.984 130.664V125.18H152.727V124.727L153.984 124.375L154.375 122.453H154.773V124.508H157.266V125.18H154.773V130.555C154.773 131.206 154.888 131.688 155.117 132C155.346 132.312 155.706 132.469 156.195 132.469ZM164.469 133L164.273 131.656H164.211C163.784 132.203 163.344 132.591 162.891 132.82C162.443 133.044 161.911 133.156 161.297 133.156C160.464 133.156 159.815 132.943 159.352 132.516C158.888 132.089 158.656 131.497 158.656 130.742C158.656 129.914 159 129.271 159.688 128.812C160.38 128.354 161.38 128.112 162.688 128.086L164.305 128.039V127.477C164.305 126.669 164.141 126.06 163.812 125.648C163.484 125.237 162.956 125.031 162.227 125.031C161.44 125.031 160.625 125.25 159.781 125.688L159.492 125.016C160.424 124.578 161.346 124.359 162.258 124.359C163.19 124.359 163.885 124.602 164.344 125.086C164.807 125.57 165.039 126.326 165.039 127.352V133H164.469ZM161.344 132.453C162.25 132.453 162.964 132.195 163.484 131.68C164.01 131.159 164.273 130.438 164.273 129.516V128.68L162.789 128.742C161.596 128.799 160.745 128.987 160.234 129.305C159.729 129.617 159.477 130.107 159.477 130.773C159.477 131.305 159.638 131.719 159.961 132.016C160.289 132.307 160.75 132.453 161.344 132.453ZM173.719 133V127.492C173.719 126.638 173.539 126.018 173.18 125.633C172.82 125.242 172.263 125.047 171.508 125.047C170.492 125.047 169.747 125.305 169.273 125.82C168.805 126.331 168.57 127.161 168.57 128.312V133H167.797V124.508H168.453L168.602 125.672H168.648C169.201 124.786 170.182 124.344 171.594 124.344C173.521 124.344 174.484 125.378 174.484 127.445V133H173.719ZM180.344 124.344C180.958 124.344 181.49 124.456 181.938 124.68C182.385 124.904 182.786 125.286 183.141 125.828H183.188C183.156 125.172 183.141 124.529 183.141 123.898V120.844H183.906V133H183.398L183.203 131.703H183.141C182.495 132.672 181.568 133.156 180.359 133.156C179.188 133.156 178.292 132.792 177.672 132.062C177.052 131.333 176.742 130.271 176.742 128.875C176.742 127.406 177.049 126.284 177.664 125.508C178.279 124.732 179.172 124.344 180.344 124.344ZM180.344 125.047C179.417 125.047 178.719 125.372 178.25 126.023C177.786 126.674 177.555 127.62 177.555 128.859C177.555 131.266 178.49 132.469 180.359 132.469C181.318 132.469 182.021 132.19 182.469 131.633C182.917 131.076 183.141 130.156 183.141 128.875V128.742C183.141 127.43 182.919 126.487 182.477 125.914C182.039 125.336 181.328 125.047 180.344 125.047ZM189.5 124.508H190.297L192.094 129.273C192.641 130.737 192.987 131.724 193.133 132.234H193.18C193.398 131.562 193.755 130.56 194.25 129.227L196.047 124.508H196.844L193.039 134.375C192.732 135.177 192.474 135.719 192.266 136C192.057 136.281 191.812 136.492 191.531 136.633C191.255 136.773 190.919 136.844 190.523 136.844C190.227 136.844 189.896 136.789 189.531 136.68V136.008C189.833 136.091 190.159 136.133 190.508 136.133C190.773 136.133 191.008 136.07 191.211 135.945C191.414 135.82 191.596 135.625 191.758 135.359C191.924 135.099 192.115 134.682 192.328 134.109C192.547 133.542 192.688 133.172 192.75 133L189.5 124.508ZM205.289 128.742C205.289 130.128 204.953 131.211 204.281 131.992C203.609 132.768 202.682 133.156 201.5 133.156C200.755 133.156 200.099 132.977 199.531 132.617C198.964 132.258 198.529 131.742 198.227 131.07C197.924 130.398 197.773 129.622 197.773 128.742C197.773 127.357 198.109 126.279 198.781 125.508C199.453 124.732 200.375 124.344 201.547 124.344C202.714 124.344 203.628 124.737 204.289 125.523C204.956 126.305 205.289 127.378 205.289 128.742ZM198.586 128.742C198.586 129.909 198.841 130.82 199.352 131.477C199.867 132.128 200.594 132.453 201.531 132.453C202.469 132.453 203.193 132.128 203.703 131.477C204.219 130.82 204.477 129.909 204.477 128.742C204.477 127.57 204.216 126.661 203.695 126.016C203.18 125.37 202.453 125.047 201.516 125.047C200.578 125.047 199.854 125.37 199.344 126.016C198.839 126.656 198.586 127.565 198.586 128.742ZM208.312 124.508V130.008C208.312 130.862 208.492 131.484 208.852 131.875C209.211 132.26 209.768 132.453 210.523 132.453C211.534 132.453 212.276 132.198 212.75 131.688C213.229 131.177 213.469 130.346 213.469 129.195V124.508H214.234V133H213.578L213.438 131.828H213.391C212.839 132.714 211.857 133.156 210.445 133.156C208.513 133.156 207.547 132.122 207.547 130.055V124.508H208.312ZM224.82 124.344C226.008 124.344 226.901 124.719 227.5 125.469C228.104 126.214 228.406 127.305 228.406 128.742C228.406 130.154 228.089 131.242 227.453 132.008C226.823 132.773 225.935 133.156 224.789 133.156C224.185 133.156 223.641 133.031 223.156 132.781C222.672 132.531 222.289 132.177 222.008 131.719H221.938L221.719 133H221.234V120.844H222.008V123.898C222.008 124.357 221.997 124.779 221.977 125.164L221.953 125.828H222.008C222.331 125.318 222.719 124.943 223.172 124.703C223.63 124.464 224.18 124.344 224.82 124.344ZM224.805 125.047C223.805 125.047 223.089 125.333 222.656 125.906C222.224 126.479 222.008 127.424 222.008 128.742V128.875C222.008 130.156 222.232 131.076 222.68 131.633C223.133 132.19 223.836 132.469 224.789 132.469C225.716 132.469 226.414 132.146 226.883 131.5C227.352 130.849 227.586 129.924 227.586 128.727C227.586 126.273 226.659 125.047 224.805 125.047ZM234.195 133.156C232.961 133.156 231.997 132.776 231.305 132.016C230.617 131.255 230.273 130.19 230.273 128.82C230.273 127.466 230.607 126.383 231.273 125.57C231.94 124.753 232.839 124.344 233.969 124.344C234.969 124.344 235.758 124.693 236.336 125.391C236.914 126.089 237.203 127.036 237.203 128.234V128.859H231.086C231.096 130.026 231.367 130.917 231.898 131.531C232.435 132.146 233.201 132.453 234.195 132.453C234.68 132.453 235.104 132.419 235.469 132.352C235.839 132.284 236.305 132.138 236.867 131.914V132.617C236.388 132.826 235.945 132.966 235.539 133.039C235.133 133.117 234.685 133.156 234.195 133.156ZM233.969 125.031C233.151 125.031 232.495 125.302 232 125.844C231.505 126.38 231.216 127.156 231.133 128.172H236.383C236.383 127.188 236.169 126.419 235.742 125.867C235.315 125.31 234.724 125.031 233.969 125.031ZM241.789 132.469C242.279 132.469 242.706 132.427 243.07 132.344V132.969C242.695 133.094 242.263 133.156 241.773 133.156C241.023 133.156 240.469 132.956 240.109 132.555C239.755 132.154 239.578 131.523 239.578 130.664V125.18H238.32V124.727L239.578 124.375L239.969 122.453H240.367V124.508H242.859V125.18H240.367V130.555C240.367 131.206 240.482 131.688 240.711 132C240.94 132.312 241.299 132.469 241.789 132.469ZM247.148 132.469C247.638 132.469 248.065 132.427 248.43 132.344V132.969C248.055 133.094 247.622 133.156 247.133 133.156C246.383 133.156 245.828 132.956 245.469 132.555C245.115 132.154 244.938 131.523 244.938 130.664V125.18H243.68V124.727L244.938 124.375L245.328 122.453H245.727V124.508H248.219V125.18H245.727V130.555C245.727 131.206 245.841 131.688 246.07 132C246.299 132.312 246.659 132.469 247.148 132.469ZM253.695 133.156C252.461 133.156 251.497 132.776 250.805 132.016C250.117 131.255 249.773 130.19 249.773 128.82C249.773 127.466 250.107 126.383 250.773 125.57C251.44 124.753 252.339 124.344 253.469 124.344C254.469 124.344 255.258 124.693 255.836 125.391C256.414 126.089 256.703 127.036 256.703 128.234V128.859H250.586C250.596 130.026 250.867 130.917 251.398 131.531C251.935 132.146 252.701 132.453 253.695 132.453C254.18 132.453 254.604 132.419 254.969 132.352C255.339 132.284 255.805 132.138 256.367 131.914V132.617C255.888 132.826 255.445 132.966 255.039 133.039C254.633 133.117 254.185 133.156 253.695 133.156ZM253.469 125.031C252.651 125.031 251.995 125.302 251.5 125.844C251.005 126.38 250.716 127.156 250.633 128.172H255.883C255.883 127.188 255.669 126.419 255.242 125.867C254.815 125.31 254.224 125.031 253.469 125.031ZM262.391 124.344C262.75 124.344 263.135 124.38 263.547 124.453L263.398 125.195C263.044 125.107 262.677 125.062 262.297 125.062C261.573 125.062 260.979 125.37 260.516 125.984C260.052 126.599 259.82 127.375 259.82 128.312V133H259.047V124.508H259.703L259.781 126.039H259.836C260.185 125.414 260.557 124.977 260.953 124.727C261.349 124.471 261.828 124.344 262.391 124.344ZM265.125 132.391C265.125 131.88 265.333 131.625 265.75 131.625C266.177 131.625 266.391 131.88 266.391 132.391C266.391 132.901 266.177 133.156 265.75 133.156C265.333 133.156 265.125 132.901 265.125 132.391Z" fill="#263238"/>
<defs>
<filter id="filter0_d" x="0.126953" y="0" width="307" height="189" filterUnits="userSpaceOnUse" color-interpolation-filters="sRGB">
<feFlood flood-opacity="0" result="BackgroundImageFix"/>
<feColorMatrix in="SourceAlpha" type="matrix" values="0 0 0 0 0 0 0 0 0 0 0 0 0 0 0 0 0 0 127 0"/>
<feOffset/>
<feGaussianBlur stdDeviation="1.5"/>
<feColorMatrix type="matrix" values="0 0 0 0 0 0 0 0 0 0 0 0 0 0 0 0 0 0 0.25 0"/>
<feBlend mode="normal" in2="BackgroundImageFix" result="effect1_dropShadow"/>
<feBlend mode="normal" in="SourceGraphic" in2="effect1_dropShadow" result="shape"/>
</filter>
</defs>
</svg>
