        <svg
          width="18"
          height="18"
          viewBox="0 0 18 18"
          fill="none"
          xmlns="http://www.w3.org/2000/svg"
        >
          <path
            d="M9.56719 17.3672L17.2523 8.5125C17.3109 8.44453 17.3438 8.35781 17.3438 8.26641V6.19219C17.3438 6.01875 17.1281 5.93906 17.0156 6.07031L9.89062 14.2781V0.5625C9.89062 0.459375 9.80625 0.375 9.70312 0.375L8.29688 0.375C8.19375 0.375 8.10938 0.459375 8.10938 0.5625V14.2758L0.984375 6.06797C0.869532 5.93672 0.65625 6.01641 0.65625 6.18984V8.33438C0.65625 8.37891 0.672657 8.42344 0.703125 8.45625L8.43281 17.3672C8.50337 17.4483 8.59051 17.5134 8.68836 17.558C8.7862 17.6025 8.89248 17.6256 9 17.6256C9.10752 17.6256 9.2138 17.6025 9.31164 17.558C9.40949 17.5134 9.49663 17.4483 9.56719 17.3672Z"
            fill="black"
          />
        </svg>