<svg width="308" height="189" viewBox="0 0 308 189" fill="none" xmlns="http://www.w3.org/2000/svg">
<g opacity="0.1">
<g filter="url(#filter0_d)">
<rect x="3.12695" y="3" width="301" height="183" fill="white"/>
</g>
<path d="M41.748 62H40.5527V44.8672H49.9395V45.9688H41.748V53.2344H49.4824V54.3477H41.748V62ZM53.4668 62H52.3066V49.2617H53.4668V62ZM52.1426 45.7227C52.1426 44.9727 52.3887 44.5977 52.8809 44.5977C53.123 44.5977 53.3105 44.6953 53.4434 44.8906C53.584 45.0859 53.6543 45.3633 53.6543 45.7227C53.6543 46.0742 53.584 46.3516 53.4434 46.5547C53.3105 46.7578 53.123 46.8594 52.8809 46.8594C52.3887 46.8594 52.1426 46.4805 52.1426 45.7227ZM60.873 55.4492L56.4316 49.2617H57.7676L61.5645 54.6289L65.3262 49.2617H66.6035L62.2324 55.4492L66.9199 62H65.5723L61.5645 56.3164L57.5332 62H56.2559L60.873 55.4492ZM83.666 62L83.373 59.9844H83.2793C82.6387 60.8047 81.9785 61.3867 81.2988 61.7305C80.627 62.0664 79.8301 62.2344 78.9082 62.2344C77.6582 62.2344 76.6855 61.9141 75.9902 61.2734C75.2949 60.6328 74.9473 59.7461 74.9473 58.6133C74.9473 57.3711 75.4629 56.4062 76.4941 55.7188C77.5332 55.0312 79.0332 54.668 80.9941 54.6289L83.4199 54.5586V53.7148C83.4199 52.5039 83.1738 51.5898 82.6816 50.9727C82.1895 50.3555 81.3965 50.0469 80.3027 50.0469C79.123 50.0469 77.9004 50.375 76.6348 51.0312L76.2012 50.0234C77.5996 49.3672 78.9824 49.0391 80.3496 49.0391C81.748 49.0391 82.791 49.4023 83.4785 50.1289C84.1738 50.8555 84.5215 51.9883 84.5215 53.5273V62H83.666ZM78.9785 61.1797C80.3379 61.1797 81.4082 60.793 82.1895 60.0195C82.9785 59.2383 83.373 58.1562 83.373 56.7734V55.5195L81.1465 55.6133C79.3574 55.6992 78.0801 55.9805 77.3145 56.457C76.5566 56.9258 76.1777 57.6602 76.1777 58.6602C76.1777 59.457 76.4199 60.0781 76.9043 60.5234C77.3965 60.9609 78.0879 61.1797 78.9785 61.1797ZM97.541 62V53.7383C97.541 52.457 97.2715 51.5273 96.7324 50.9492C96.1934 50.3633 95.3574 50.0703 94.2246 50.0703C92.7012 50.0703 91.584 50.457 90.873 51.2305C90.1699 51.9961 89.8184 53.2422 89.8184 54.9688V62H88.6582V49.2617H89.6426L89.8652 51.0078H89.9355C90.7637 49.6797 92.2363 49.0156 94.3535 49.0156C97.2441 49.0156 98.6895 50.5664 98.6895 53.668V62H97.541ZM48.8027 88.9531H41.8418L39.4512 95H38.127L45.0176 77.7969H45.7793L52.5293 95H51.1816L48.8027 88.9531ZM42.2754 87.875H48.4043L46.0723 81.6992C45.877 81.2148 45.6426 80.543 45.3691 79.6836C45.1582 80.4336 44.9277 81.1133 44.6777 81.7227L42.2754 87.875ZM60.123 95.2344C58.1621 95.2344 56.7324 94.5 55.834 93.0312H55.752L55.7871 94.0156C55.8184 94.5938 55.834 95.2266 55.834 95.9141V100.766H54.6738V82.2617H55.6582L55.8809 84.0781H55.9512C56.8262 82.7031 58.2246 82.0156 60.1465 82.0156C61.8652 82.0156 63.1738 82.582 64.0723 83.7148C64.9785 84.8398 65.4316 86.4805 65.4316 88.6367C65.4316 90.7305 64.9551 92.3555 64.002 93.5117C63.0566 94.6602 61.7637 95.2344 60.123 95.2344ZM60.0996 94.2031C61.4043 94.2031 62.4121 93.7188 63.123 92.75C63.8418 91.7812 64.2012 90.4258 64.2012 88.6836C64.2012 84.9414 62.8496 83.0703 60.1465 83.0703C58.6621 83.0703 57.5723 83.4805 56.877 84.3008C56.1816 85.1133 55.834 86.4414 55.834 88.2852V88.6602C55.834 90.6523 56.166 92.0742 56.8301 92.9258C57.502 93.7773 58.5918 94.2031 60.0996 94.2031ZM74.4199 95.2344C72.459 95.2344 71.0293 94.5 70.1309 93.0312H70.0488L70.084 94.0156C70.1152 94.5938 70.1309 95.2266 70.1309 95.9141V100.766H68.9707V82.2617H69.9551L70.1777 84.0781H70.248C71.123 82.7031 72.5215 82.0156 74.4434 82.0156C76.1621 82.0156 77.4707 82.582 78.3691 83.7148C79.2754 84.8398 79.7285 86.4805 79.7285 88.6367C79.7285 90.7305 79.252 92.3555 78.2988 93.5117C77.3535 94.6602 76.0605 95.2344 74.4199 95.2344ZM74.3965 94.2031C75.7012 94.2031 76.709 93.7188 77.4199 92.75C78.1387 91.7812 78.498 90.4258 78.498 88.6836C78.498 84.9414 77.1465 83.0703 74.4434 83.0703C72.959 83.0703 71.8691 83.4805 71.1738 84.3008C70.4785 85.1133 70.1309 86.4414 70.1309 88.2852V88.6602C70.1309 90.6523 70.4629 92.0742 71.127 92.9258C71.7988 93.7773 72.8887 94.2031 74.3965 94.2031ZM93.8027 88.6133C93.8027 90.6914 93.2988 92.3164 92.291 93.4883C91.2832 94.6523 89.8926 95.2344 88.1191 95.2344C87.002 95.2344 86.0176 94.9648 85.166 94.4258C84.3145 93.8867 83.6621 93.1133 83.209 92.1055C82.7559 91.0977 82.5293 89.9336 82.5293 88.6133C82.5293 86.5352 83.0332 84.918 84.041 83.7617C85.0488 82.5977 86.4316 82.0156 88.1895 82.0156C89.9395 82.0156 91.3105 82.6055 92.3027 83.7852C93.3027 84.957 93.8027 86.5664 93.8027 88.6133ZM83.748 88.6133C83.748 90.3633 84.1309 91.7305 84.8965 92.7148C85.6699 93.6914 86.7598 94.1797 88.166 94.1797C89.5723 94.1797 90.6582 93.6914 91.4238 92.7148C92.1973 91.7305 92.584 90.3633 92.584 88.6133C92.584 86.8555 92.1934 85.4922 91.4121 84.5234C90.6387 83.5547 89.5488 83.0703 88.1426 83.0703C86.7363 83.0703 85.6504 83.5547 84.8848 84.5234C84.127 85.4844 83.748 86.8477 83.748 88.6133ZM98.4902 95H97.3301V82.2617H98.4902V95ZM97.166 78.7227C97.166 77.9727 97.4121 77.5977 97.9043 77.5977C98.1465 77.5977 98.334 77.6953 98.4668 77.8906C98.6074 78.0859 98.6777 78.3633 98.6777 78.7227C98.6777 79.0742 98.6074 79.3516 98.4668 79.5547C98.334 79.7578 98.1465 79.8594 97.9043 79.8594C97.4121 79.8594 97.166 79.4805 97.166 78.7227ZM111.65 95V86.7383C111.65 85.457 111.381 84.5273 110.842 83.9492C110.303 83.3633 109.467 83.0703 108.334 83.0703C106.811 83.0703 105.693 83.457 104.982 84.2305C104.279 84.9961 103.928 86.2422 103.928 87.9688V95H102.768V82.2617H103.752L103.975 84.0078H104.045C104.873 82.6797 106.346 82.0156 108.463 82.0156C111.354 82.0156 112.799 83.5664 112.799 86.668V95H111.65ZM120.287 94.2031C121.021 94.2031 121.662 94.1406 122.209 94.0156V94.9531C121.646 95.1406 120.998 95.2344 120.264 95.2344C119.139 95.2344 118.307 94.9336 117.768 94.332C117.236 93.7305 116.971 92.7852 116.971 91.4961V83.2695H115.084V82.5898L116.971 82.0625L117.557 79.1797H118.154V82.2617H121.893V83.2695H118.154V91.332C118.154 92.3086 118.326 93.0312 118.67 93.5C119.014 93.9688 119.553 94.2031 120.287 94.2031ZM140.877 95V86.6445C140.877 85.4023 140.635 84.4961 140.15 83.9258C139.666 83.3555 138.924 83.0703 137.924 83.0703C136.619 83.0703 135.654 83.4297 135.029 84.1484C134.404 84.8672 134.092 85.9961 134.092 87.5352V95H132.908V86.293C132.908 84.1445 131.924 83.0703 129.955 83.0703C128.619 83.0703 127.646 83.4609 127.037 84.2422C126.428 85.0156 126.123 86.2578 126.123 87.9688V95H124.963V82.2617H125.924L126.17 84.0078H126.24C126.592 83.375 127.092 82.8867 127.74 82.543C128.389 82.1914 129.104 82.0156 129.885 82.0156C131.893 82.0156 133.182 82.7695 133.752 84.2773H133.799C134.213 83.5508 134.768 82.9922 135.463 82.6016C136.166 82.2109 136.963 82.0156 137.854 82.0156C139.244 82.0156 140.287 82.3867 140.982 83.1289C141.678 83.8711 142.025 85.0508 142.025 86.668V95H140.877ZM151.295 95.2344C149.443 95.2344 147.998 94.6641 146.959 93.5234C145.928 92.3828 145.412 90.7852 145.412 88.7305C145.412 86.6992 145.912 85.0742 146.912 83.8555C147.912 82.6289 149.26 82.0156 150.955 82.0156C152.455 82.0156 153.639 82.5391 154.506 83.5859C155.373 84.6328 155.807 86.0547 155.807 87.8516V88.7891H146.631C146.646 90.5391 147.053 91.875 147.85 92.7969C148.654 93.7188 149.803 94.1797 151.295 94.1797C152.021 94.1797 152.658 94.1289 153.205 94.0273C153.76 93.9258 154.459 93.707 155.303 93.3711V94.4258C154.584 94.7383 153.92 94.9492 153.311 95.0586C152.701 95.1758 152.029 95.2344 151.295 95.2344ZM150.955 83.0469C149.729 83.0469 148.744 83.4531 148.002 84.2656C147.26 85.0703 146.826 86.2344 146.701 87.7578H154.576C154.576 86.2812 154.256 85.1289 153.615 84.3008C152.975 83.4648 152.088 83.0469 150.955 83.0469ZM168.205 95V86.7383C168.205 85.457 167.936 84.5273 167.396 83.9492C166.857 83.3633 166.021 83.0703 164.889 83.0703C163.365 83.0703 162.248 83.457 161.537 84.2305C160.834 84.9961 160.482 86.2422 160.482 87.9688V95H159.322V82.2617H160.307L160.529 84.0078H160.6C161.428 82.6797 162.9 82.0156 165.018 82.0156C167.908 82.0156 169.354 83.5664 169.354 86.668V95H168.205ZM176.842 94.2031C177.576 94.2031 178.217 94.1406 178.764 94.0156V94.9531C178.201 95.1406 177.553 95.2344 176.818 95.2344C175.693 95.2344 174.861 94.9336 174.322 94.332C173.791 93.7305 173.525 92.7852 173.525 91.4961V83.2695H171.639V82.5898L173.525 82.0625L174.111 79.1797H174.709V82.2617H178.447V83.2695H174.709V91.332C174.709 92.3086 174.881 93.0312 175.225 93.5C175.568 93.9688 176.107 94.2031 176.842 94.2031Z" fill="#263238"/>
<path d="M269.353 71.4939C274.257 71.4939 278.233 67.5181 278.233 62.6137C278.233 57.7092 274.257 53.7334 269.353 53.7334C264.448 53.7334 260.473 57.7092 260.473 62.6137C260.473 67.5181 264.448 71.4939 269.353 71.4939Z" fill="#FFC062"/>
<path d="M260.192 36.2064H248.507C248.12 36.2064 247.806 35.8925 247.806 35.5053C247.806 35.1181 248.12 34.8042 248.507 34.8042H260.192C260.579 34.8042 260.893 35.1181 260.893 35.5053C260.893 35.8925 260.579 36.2064 260.192 36.2064Z" fill="#241F20"/>
<path d="M263.744 39.0107C263.357 39.0107 263.043 38.6968 263.043 38.3096V32.7011C263.043 32.3139 263.357 32 263.744 32C264.131 32 264.445 32.3139 264.445 32.7011V38.3097C264.445 38.6969 264.131 39.0107 263.744 39.0107Z" fill="#241F20"/>
<path d="M245.049 39.0107C244.662 39.0107 244.348 38.6968 244.348 38.3096V32.7011C244.348 32.3139 244.662 32 245.049 32C245.436 32 245.75 32.3139 245.75 32.7011V38.3097C245.75 38.6969 245.436 39.0107 245.049 39.0107Z" fill="#241F20"/>
<path d="M268.418 45.0868H240.375C239.988 45.0868 239.674 44.7729 239.674 44.3857C239.674 43.9985 239.988 43.6846 240.375 43.6846H268.418C268.805 43.6846 269.119 43.9985 269.119 44.3857C269.119 44.7729 268.805 45.0868 268.418 45.0868Z" fill="#241F20"/>
<path d="M261.875 50.6954H240.375C239.988 50.6954 239.674 50.3815 239.674 49.9943C239.674 49.6071 239.988 49.2932 240.375 49.2932H261.875C262.262 49.2932 262.576 49.6071 262.576 49.9943C262.576 50.3815 262.262 50.6954 261.875 50.6954Z" fill="#241F20"/>
<path d="M252.527 56.3038H240.375C239.988 56.3038 239.674 55.9899 239.674 55.6027C239.674 55.2155 239.988 54.9016 240.375 54.9016H252.527C252.914 54.9016 253.228 55.2155 253.228 55.6027C253.228 55.99 252.914 56.3038 252.527 56.3038Z" fill="#241F20"/>
<path d="M273.793 54.154V35.5054C273.793 35.1182 273.479 34.8043 273.092 34.8043H266.548C266.161 34.8043 265.847 35.1182 265.847 35.5054C265.847 35.8926 266.161 36.2065 266.548 36.2065H272.391V53.5465C271.414 53.2056 270.387 53.0319 269.353 53.0323C264.061 53.0323 259.771 57.322 259.771 62.6137C259.771 63.648 259.945 64.6751 260.285 65.6517H236.402V36.2064H241.31C241.697 36.2064 242.011 35.8925 242.011 35.5053C242.011 35.1181 241.697 34.8042 241.31 34.8042H235.701C235.314 34.8043 235 35.1182 235 35.5054V66.3527C235 66.7399 235.314 67.0538 235.701 67.0538H260.893C263.31 71.7613 269.085 73.6181 273.793 71.2012C278.5 68.7842 280.357 63.0088 277.94 58.3014C277.025 56.5193 275.575 55.0689 273.793 54.154ZM269.353 70.7929C264.835 70.7929 261.173 67.1309 261.173 62.6136C261.173 58.0963 264.835 54.4344 269.353 54.4344C273.87 54.4344 277.532 58.0963 277.532 62.6136C277.506 67.1203 273.859 70.7673 269.353 70.7929Z" fill="#241F20"/>
<path d="M273.699 63.7821H269.352C268.965 63.7821 268.651 63.4681 268.651 63.081V57.4723C268.651 57.0852 268.965 56.7712 269.352 56.7712C269.74 56.7712 270.054 57.0852 270.054 57.4723V62.3799H273.699C274.086 62.3799 274.4 62.6938 274.4 63.081C274.4 63.4681 274.086 63.7821 273.699 63.7821Z" fill="#241F20"/>
<path d="M44.4922 122.133C43.0599 122.133 41.9323 122.591 41.1094 123.508C40.2865 124.424 39.875 125.68 39.875 127.273C39.875 128.904 40.263 130.169 41.0391 131.07C41.8151 131.971 42.9245 132.422 44.3672 132.422C45.3255 132.422 46.2057 132.299 47.0078 132.055V132.758C46.2526 133.023 45.3099 133.156 44.1797 133.156C42.5755 133.156 41.3125 132.638 40.3906 131.602C39.4688 130.565 39.0078 129.117 39.0078 127.258C39.0078 126.096 39.2266 125.073 39.6641 124.188C40.1068 123.302 40.7396 122.62 41.5625 122.141C42.3906 121.656 43.3516 121.414 44.4453 121.414C45.5599 121.414 46.5573 121.622 47.4375 122.039L47.1172 122.758C46.2839 122.341 45.4089 122.133 44.4922 122.133ZM56.3828 128.742C56.3828 130.128 56.0469 131.211 55.375 131.992C54.7031 132.768 53.776 133.156 52.5938 133.156C51.849 133.156 51.1927 132.977 50.625 132.617C50.0573 132.258 49.6224 131.742 49.3203 131.07C49.0182 130.398 48.8672 129.622 48.8672 128.742C48.8672 127.357 49.2031 126.279 49.875 125.508C50.5469 124.732 51.4688 124.344 52.6406 124.344C53.8073 124.344 54.7214 124.737 55.3828 125.523C56.0495 126.305 56.3828 127.378 56.3828 128.742ZM49.6797 128.742C49.6797 129.909 49.9349 130.82 50.4453 131.477C50.9609 132.128 51.6875 132.453 52.625 132.453C53.5625 132.453 54.2865 132.128 54.7969 131.477C55.3125 130.82 55.5703 129.909 55.5703 128.742C55.5703 127.57 55.3099 126.661 54.7891 126.016C54.2734 125.37 53.5469 125.047 52.6094 125.047C51.6719 125.047 50.9479 125.37 50.4375 126.016C49.9323 126.656 49.6797 127.565 49.6797 128.742ZM64.6562 133V127.492C64.6562 126.638 64.4766 126.018 64.1172 125.633C63.7578 125.242 63.2005 125.047 62.4453 125.047C61.4297 125.047 60.6849 125.305 60.2109 125.82C59.7422 126.331 59.5078 127.161 59.5078 128.312V133H58.7344V124.508H59.3906L59.5391 125.672H59.5859C60.138 124.786 61.1198 124.344 62.5312 124.344C64.4583 124.344 65.4219 125.378 65.4219 127.445V133H64.6562ZM70.4141 132.469C70.9036 132.469 71.3307 132.427 71.6953 132.344V132.969C71.3203 133.094 70.888 133.156 70.3984 133.156C69.6484 133.156 69.0938 132.956 68.7344 132.555C68.3802 132.154 68.2031 131.523 68.2031 130.664V125.18H66.9453V124.727L68.2031 124.375L68.5938 122.453H68.9922V124.508H71.4844V125.18H68.9922V130.555C68.9922 131.206 69.1068 131.688 69.3359 132C69.5651 132.312 69.9245 132.469 70.4141 132.469ZM78.6875 133L78.4922 131.656H78.4297C78.0026 132.203 77.5625 132.591 77.1094 132.82C76.6615 133.044 76.1302 133.156 75.5156 133.156C74.6823 133.156 74.0339 132.943 73.5703 132.516C73.1068 132.089 72.875 131.497 72.875 130.742C72.875 129.914 73.2188 129.271 73.9062 128.812C74.599 128.354 75.599 128.112 76.9062 128.086L78.5234 128.039V127.477C78.5234 126.669 78.3594 126.06 78.0312 125.648C77.7031 125.237 77.1745 125.031 76.4453 125.031C75.6589 125.031 74.8438 125.25 74 125.688L73.7109 125.016C74.6432 124.578 75.5651 124.359 76.4766 124.359C77.4089 124.359 78.1042 124.602 78.5625 125.086C79.026 125.57 79.2578 126.326 79.2578 127.352V133H78.6875ZM75.5625 132.453C76.4688 132.453 77.1823 132.195 77.7031 131.68C78.2292 131.159 78.4922 130.438 78.4922 129.516V128.68L77.0078 128.742C75.8151 128.799 74.9635 128.987 74.4531 129.305C73.9479 129.617 73.6953 130.107 73.6953 130.773C73.6953 131.305 73.8568 131.719 74.1797 132.016C74.5078 132.307 74.9688 132.453 75.5625 132.453ZM85.4062 133.156C84.1927 133.156 83.2422 132.773 82.5547 132.008C81.8672 131.242 81.5234 130.174 81.5234 128.805C81.5234 127.398 81.8802 126.305 82.5938 125.523C83.3073 124.737 84.2839 124.344 85.5234 124.344C86.2578 124.344 86.9609 124.471 87.6328 124.727L87.4219 125.414C86.6875 125.169 86.0495 125.047 85.5078 125.047C84.4661 125.047 83.6771 125.37 83.1406 126.016C82.6042 126.656 82.3359 127.581 82.3359 128.789C82.3359 129.935 82.6042 130.833 83.1406 131.484C83.6771 132.13 84.4271 132.453 85.3906 132.453C86.1615 132.453 86.8776 132.315 87.5391 132.039V132.758C86.9974 133.023 86.2865 133.156 85.4062 133.156ZM91.8672 132.469C92.3568 132.469 92.7839 132.427 93.1484 132.344V132.969C92.7734 133.094 92.3411 133.156 91.8516 133.156C91.1016 133.156 90.5469 132.956 90.1875 132.555C89.8333 132.154 89.6562 131.523 89.6562 130.664V125.18H88.3984V124.727L89.6562 124.375L90.0469 122.453H90.4453V124.508H92.9375V125.18H90.4453V130.555C90.4453 131.206 90.5599 131.688 90.7891 132C91.0182 132.312 91.3776 132.469 91.8672 132.469ZM99.8125 124.508V130.008C99.8125 130.862 99.9922 131.484 100.352 131.875C100.711 132.26 101.268 132.453 102.023 132.453C103.034 132.453 103.776 132.198 104.25 131.688C104.729 131.177 104.969 130.346 104.969 129.195V124.508H105.734V133H105.078L104.938 131.828H104.891C104.339 132.714 103.357 133.156 101.945 133.156C100.013 133.156 99.0469 132.122 99.0469 130.055V124.508H99.8125ZM113.844 130.789C113.844 131.549 113.555 132.135 112.977 132.547C112.398 132.953 111.578 133.156 110.516 133.156C109.38 133.156 108.479 132.982 107.812 132.633V131.797C108.667 132.224 109.568 132.438 110.516 132.438C111.354 132.438 111.99 132.299 112.422 132.023C112.859 131.742 113.078 131.37 113.078 130.906C113.078 130.479 112.904 130.12 112.555 129.828C112.211 129.536 111.643 129.25 110.852 128.969C110.003 128.661 109.406 128.398 109.062 128.18C108.719 127.956 108.458 127.706 108.281 127.43C108.109 127.148 108.023 126.807 108.023 126.406C108.023 125.771 108.289 125.268 108.82 124.898C109.357 124.529 110.104 124.344 111.062 124.344C111.979 124.344 112.849 124.516 113.672 124.859L113.383 125.562C112.549 125.219 111.776 125.047 111.062 125.047C110.37 125.047 109.82 125.161 109.414 125.391C109.008 125.62 108.805 125.938 108.805 126.344C108.805 126.786 108.961 127.141 109.273 127.406C109.591 127.672 110.208 127.969 111.125 128.297C111.891 128.573 112.448 128.823 112.797 129.047C113.146 129.266 113.406 129.516 113.578 129.797C113.755 130.078 113.844 130.409 113.844 130.789ZM125.344 133L125.148 131.656H125.086C124.659 132.203 124.219 132.591 123.766 132.82C123.318 133.044 122.786 133.156 122.172 133.156C121.339 133.156 120.69 132.943 120.227 132.516C119.763 132.089 119.531 131.497 119.531 130.742C119.531 129.914 119.875 129.271 120.562 128.812C121.255 128.354 122.255 128.112 123.562 128.086L125.18 128.039V127.477C125.18 126.669 125.016 126.06 124.688 125.648C124.359 125.237 123.831 125.031 123.102 125.031C122.315 125.031 121.5 125.25 120.656 125.688L120.367 125.016C121.299 124.578 122.221 124.359 123.133 124.359C124.065 124.359 124.76 124.602 125.219 125.086C125.682 125.57 125.914 126.326 125.914 127.352V133H125.344ZM122.219 132.453C123.125 132.453 123.839 132.195 124.359 131.68C124.885 131.159 125.148 130.438 125.148 129.516V128.68L123.664 128.742C122.471 128.799 121.62 128.987 121.109 129.305C120.604 129.617 120.352 130.107 120.352 130.773C120.352 131.305 120.513 131.719 120.836 132.016C121.164 132.307 121.625 132.453 122.219 132.453ZM134.594 133V127.492C134.594 126.638 134.414 126.018 134.055 125.633C133.695 125.242 133.138 125.047 132.383 125.047C131.367 125.047 130.622 125.305 130.148 125.82C129.68 126.331 129.445 127.161 129.445 128.312V133H128.672V124.508H129.328L129.477 125.672H129.523C130.076 124.786 131.057 124.344 132.469 124.344C134.396 124.344 135.359 125.378 135.359 127.445V133H134.594ZM141.219 124.344C141.833 124.344 142.365 124.456 142.812 124.68C143.26 124.904 143.661 125.286 144.016 125.828H144.062C144.031 125.172 144.016 124.529 144.016 123.898V120.844H144.781V133H144.273L144.078 131.703H144.016C143.37 132.672 142.443 133.156 141.234 133.156C140.062 133.156 139.167 132.792 138.547 132.062C137.927 131.333 137.617 130.271 137.617 128.875C137.617 127.406 137.924 126.284 138.539 125.508C139.154 124.732 140.047 124.344 141.219 124.344ZM141.219 125.047C140.292 125.047 139.594 125.372 139.125 126.023C138.661 126.674 138.43 127.62 138.43 128.859C138.43 131.266 139.365 132.469 141.234 132.469C142.193 132.469 142.896 132.19 143.344 131.633C143.792 131.076 144.016 130.156 144.016 128.875V128.742C144.016 127.43 143.794 126.487 143.352 125.914C142.914 125.336 142.203 125.047 141.219 125.047ZM158.422 124.508V125.047L156.664 125.156C157.133 125.74 157.367 126.38 157.367 127.078C157.367 127.896 157.094 128.56 156.547 129.07C156.005 129.576 155.276 129.828 154.359 129.828C153.974 129.828 153.703 129.812 153.547 129.781C153.24 129.943 153.005 130.133 152.844 130.352C152.682 130.57 152.602 130.802 152.602 131.047C152.602 131.318 152.703 131.516 152.906 131.641C153.115 131.766 153.461 131.828 153.945 131.828H155.43C156.352 131.828 157.057 132.016 157.547 132.391C158.036 132.76 158.281 133.31 158.281 134.039C158.281 134.935 157.917 135.625 157.188 136.109C156.464 136.599 155.43 136.844 154.086 136.844C153.018 136.844 152.19 136.638 151.602 136.227C151.018 135.815 150.727 135.242 150.727 134.508C150.727 133.924 150.906 133.44 151.266 133.055C151.63 132.669 152.122 132.406 152.742 132.266C152.487 132.156 152.281 132.003 152.125 131.805C151.974 131.602 151.898 131.37 151.898 131.109C151.898 130.542 152.26 130.042 152.984 129.609C152.49 129.406 152.104 129.089 151.828 128.656C151.552 128.219 151.414 127.719 151.414 127.156C151.414 126.307 151.682 125.628 152.219 125.117C152.76 124.602 153.49 124.344 154.406 124.344C154.964 124.344 155.396 124.398 155.703 124.508H158.422ZM151.547 134.438C151.547 135.604 152.414 136.188 154.148 136.188C156.378 136.188 157.492 135.477 157.492 134.055C157.492 133.544 157.318 133.174 156.969 132.945C156.62 132.716 156.055 132.602 155.273 132.602H153.883C152.326 132.602 151.547 133.214 151.547 134.438ZM152.195 127.156C152.195 127.812 152.393 128.323 152.789 128.688C153.19 129.047 153.724 129.227 154.391 129.227C155.099 129.227 155.641 129.047 156.016 128.688C156.396 128.328 156.586 127.807 156.586 127.125C156.586 126.401 156.391 125.859 156 125.5C155.615 125.135 155.073 124.953 154.375 124.953C153.698 124.953 153.164 125.148 152.773 125.539C152.388 125.924 152.195 126.464 152.195 127.156ZM163.602 133.156C162.367 133.156 161.404 132.776 160.711 132.016C160.023 131.255 159.68 130.19 159.68 128.82C159.68 127.466 160.013 126.383 160.68 125.57C161.346 124.753 162.245 124.344 163.375 124.344C164.375 124.344 165.164 124.693 165.742 125.391C166.32 126.089 166.609 127.036 166.609 128.234V128.859H160.492C160.503 130.026 160.773 130.917 161.305 131.531C161.841 132.146 162.607 132.453 163.602 132.453C164.086 132.453 164.51 132.419 164.875 132.352C165.245 132.284 165.711 132.138 166.273 131.914V132.617C165.794 132.826 165.352 132.966 164.945 133.039C164.539 133.117 164.091 133.156 163.602 133.156ZM163.375 125.031C162.557 125.031 161.901 125.302 161.406 125.844C160.911 126.38 160.622 127.156 160.539 128.172H165.789C165.789 127.188 165.576 126.419 165.148 125.867C164.721 125.31 164.13 125.031 163.375 125.031ZM171.195 132.469C171.685 132.469 172.112 132.427 172.477 132.344V132.969C172.102 133.094 171.669 133.156 171.18 133.156C170.43 133.156 169.875 132.956 169.516 132.555C169.161 132.154 168.984 131.523 168.984 130.664V125.18H167.727V124.727L168.984 124.375L169.375 122.453H169.773V124.508H172.266V125.18H169.773V130.555C169.773 131.206 169.888 131.688 170.117 132C170.346 132.312 170.706 132.469 171.195 132.469ZM183.734 130.789C183.734 131.549 183.445 132.135 182.867 132.547C182.289 132.953 181.469 133.156 180.406 133.156C179.271 133.156 178.37 132.982 177.703 132.633V131.797C178.557 132.224 179.458 132.438 180.406 132.438C181.245 132.438 181.88 132.299 182.312 132.023C182.75 131.742 182.969 131.37 182.969 130.906C182.969 130.479 182.794 130.12 182.445 129.828C182.102 129.536 181.534 129.25 180.742 128.969C179.893 128.661 179.297 128.398 178.953 128.18C178.609 127.956 178.349 127.706 178.172 127.43C178 127.148 177.914 126.807 177.914 126.406C177.914 125.771 178.18 125.268 178.711 124.898C179.247 124.529 179.995 124.344 180.953 124.344C181.87 124.344 182.74 124.516 183.562 124.859L183.273 125.562C182.44 125.219 181.667 125.047 180.953 125.047C180.26 125.047 179.711 125.161 179.305 125.391C178.898 125.62 178.695 125.938 178.695 126.344C178.695 126.786 178.852 127.141 179.164 127.406C179.482 127.672 180.099 127.969 181.016 128.297C181.781 128.573 182.339 128.823 182.688 129.047C183.036 129.266 183.297 129.516 183.469 129.797C183.646 130.078 183.734 130.409 183.734 130.789ZM188.164 132.469C188.654 132.469 189.081 132.427 189.445 132.344V132.969C189.07 133.094 188.638 133.156 188.148 133.156C187.398 133.156 186.844 132.956 186.484 132.555C186.13 132.154 185.953 131.523 185.953 130.664V125.18H184.695V124.727L185.953 124.375L186.344 122.453H186.742V124.508H189.234V125.18H186.742V130.555C186.742 131.206 186.857 131.688 187.086 132C187.315 132.312 187.674 132.469 188.164 132.469ZM196.438 133L196.242 131.656H196.18C195.753 132.203 195.312 132.591 194.859 132.82C194.411 133.044 193.88 133.156 193.266 133.156C192.432 133.156 191.784 132.943 191.32 132.516C190.857 132.089 190.625 131.497 190.625 130.742C190.625 129.914 190.969 129.271 191.656 128.812C192.349 128.354 193.349 128.112 194.656 128.086L196.273 128.039V127.477C196.273 126.669 196.109 126.06 195.781 125.648C195.453 125.237 194.924 125.031 194.195 125.031C193.409 125.031 192.594 125.25 191.75 125.688L191.461 125.016C192.393 124.578 193.315 124.359 194.227 124.359C195.159 124.359 195.854 124.602 196.312 125.086C196.776 125.57 197.008 126.326 197.008 127.352V133H196.438ZM193.312 132.453C194.219 132.453 194.932 132.195 195.453 131.68C195.979 131.159 196.242 130.438 196.242 129.516V128.68L194.758 128.742C193.565 128.799 192.714 128.987 192.203 129.305C191.698 129.617 191.445 130.107 191.445 130.773C191.445 131.305 191.607 131.719 191.93 132.016C192.258 132.307 192.719 132.453 193.312 132.453ZM203.109 124.344C203.469 124.344 203.854 124.38 204.266 124.453L204.117 125.195C203.763 125.107 203.396 125.062 203.016 125.062C202.292 125.062 201.698 125.37 201.234 125.984C200.771 126.599 200.539 127.375 200.539 128.312V133H199.766V124.508H200.422L200.5 126.039H200.555C200.904 125.414 201.276 124.977 201.672 124.727C202.068 124.471 202.547 124.344 203.109 124.344ZM208.242 132.469C208.732 132.469 209.159 132.427 209.523 132.344V132.969C209.148 133.094 208.716 133.156 208.227 133.156C207.477 133.156 206.922 132.956 206.562 132.555C206.208 132.154 206.031 131.523 206.031 130.664V125.18H204.773V124.727L206.031 124.375L206.422 122.453H206.82V124.508H209.312V125.18H206.82V130.555C206.82 131.206 206.935 131.688 207.164 132C207.393 132.312 207.753 132.469 208.242 132.469ZM214.789 133.156C213.555 133.156 212.591 132.776 211.898 132.016C211.211 131.255 210.867 130.19 210.867 128.82C210.867 127.466 211.201 126.383 211.867 125.57C212.534 124.753 213.432 124.344 214.562 124.344C215.562 124.344 216.352 124.693 216.93 125.391C217.508 126.089 217.797 127.036 217.797 128.234V128.859H211.68C211.69 130.026 211.961 130.917 212.492 131.531C213.029 132.146 213.794 132.453 214.789 132.453C215.273 132.453 215.698 132.419 216.062 132.352C216.432 132.284 216.898 132.138 217.461 131.914V132.617C216.982 132.826 216.539 132.966 216.133 133.039C215.727 133.117 215.279 133.156 214.789 133.156ZM214.562 125.031C213.745 125.031 213.089 125.302 212.594 125.844C212.099 126.38 211.81 127.156 211.727 128.172H216.977C216.977 127.188 216.763 126.419 216.336 125.867C215.909 125.31 215.318 125.031 214.562 125.031ZM223.25 124.344C223.865 124.344 224.396 124.456 224.844 124.68C225.292 124.904 225.693 125.286 226.047 125.828H226.094C226.062 125.172 226.047 124.529 226.047 123.898V120.844H226.812V133H226.305L226.109 131.703H226.047C225.401 132.672 224.474 133.156 223.266 133.156C222.094 133.156 221.198 132.792 220.578 132.062C219.958 131.333 219.648 130.271 219.648 128.875C219.648 127.406 219.956 126.284 220.57 125.508C221.185 124.732 222.078 124.344 223.25 124.344ZM223.25 125.047C222.323 125.047 221.625 125.372 221.156 126.023C220.693 126.674 220.461 127.62 220.461 128.859C220.461 131.266 221.396 132.469 223.266 132.469C224.224 132.469 224.927 132.19 225.375 131.633C225.823 131.076 226.047 130.156 226.047 128.875V128.742C226.047 127.43 225.826 126.487 225.383 125.914C224.945 125.336 224.234 125.047 223.25 125.047Z" fill="#263238"/>
</g>
<defs>
<filter id="filter0_d" x="0.126953" y="0" width="307" height="189" filterUnits="userSpaceOnUse" color-interpolation-filters="sRGB">
<feFlood flood-opacity="0" result="BackgroundImageFix"/>
<feColorMatrix in="SourceAlpha" type="matrix" values="0 0 0 0 0 0 0 0 0 0 0 0 0 0 0 0 0 0 127 0"/>
<feOffset/>
<feGaussianBlur stdDeviation="1.5"/>
<feColorMatrix type="matrix" values="0 0 0 0 0 0 0 0 0 0 0 0 0 0 0 0 0 0 0.25 0"/>
<feBlend mode="normal" in2="BackgroundImageFix" result="effect1_dropShadow"/>
<feBlend mode="normal" in="SourceGraphic" in2="effect1_dropShadow" result="shape"/>
</filter>
</defs>
</svg>
