<svg width="28" height="27" viewBox="0 0 28 27" fill="none" xmlns="http://www.w3.org/2000/svg">
<path d="M5.30675 0.00756836C2.39839 0.00756836 0.0180664 2.38783 0.0180664 5.29625V21.708C0.0180664 24.6163 2.39833 26.9958 5.30675 26.9958H21.7185C24.6268 26.9958 27.0063 24.6163 27.0063 21.708V5.29625C27.0063 2.38789 24.6268 0.00756836 21.7185 0.00756836H5.30675ZM6.63693 4.46116C8.03142 4.46116 8.89037 5.37663 8.91689 6.57999C8.91689 7.75678 8.03137 8.69798 6.60995 8.69798H6.58379C5.21584 8.69798 4.33167 7.75684 4.33167 6.57999C4.33167 5.37665 5.24259 4.46116 6.6369 4.46116H6.63693ZM18.6541 10.0855C21.336 10.0855 23.3464 11.8384 23.3464 15.6053V22.6374H19.2707V16.0768C19.2707 14.4282 18.6808 13.3034 17.2058 13.3034C16.0798 13.3034 15.4087 14.0615 15.114 14.7938C15.0063 15.0559 14.9799 15.4218 14.9799 15.7883V22.6374H10.9041C10.9041 22.6374 10.9576 11.5239 10.9041 10.3731H14.9807V12.1099C15.5223 11.2742 16.4911 10.0855 18.6541 10.0855V10.0855ZM4.57208 10.374H8.64781V22.6375H4.57208V10.374Z" fill="#241F20"/>
</svg>
