<svg width="144" height="28" viewBox="0 0 144 28" fill="none" xmlns="http://www.w3.org/2000/svg">
<path d="M82.3067 0.0703125C79.3984 0.0703125 77.0181 2.45058 77.0181 5.35899V21.7707C77.0181 24.6791 79.3983 27.0585 82.3067 27.0585H98.7185C101.627 27.0585 104.006 24.6791 104.006 21.7707V5.35899C104.006 2.45063 101.627 0.0703125 98.7185 0.0703125H82.3067ZM83.6369 4.52391C85.0314 4.52391 85.8904 5.43937 85.9169 6.64273C85.9169 7.81953 85.0314 8.76072 83.61 8.76072H83.5838C82.2158 8.76072 81.3317 7.81958 81.3317 6.64273C81.3317 5.4394 82.2426 4.52391 83.6369 4.52391H83.6369ZM95.6541 10.1483C98.336 10.1483 100.346 11.9012 100.346 15.668V22.7002H96.2707V16.1395C96.2707 14.4909 95.6808 13.3661 94.2058 13.3661C93.0798 13.3661 92.4087 14.1242 92.114 14.8566C92.0063 15.1186 91.9799 15.4845 91.9799 15.8511V22.7002H87.9041C87.9041 22.7002 87.9576 11.5866 87.9041 10.4359H91.9807V12.1726C92.5223 11.337 93.4911 10.1483 95.6541 10.1483V10.1483ZM81.5721 10.4368H85.6478V22.7002H81.5721V10.4368Z" fill="#241F20"/>
<path d="M42.93 0.0625C40.199 0.0625 38 2.26151 38 4.99254V22.1325C38 24.8635 40.199 27.0625 42.93 27.0625H52.2197V16.5072H49.4286V12.707H52.2197V9.4602C52.2197 6.90938 53.8689 4.56729 57.6678 4.56729C59.206 4.56729 60.3434 4.71495 60.3434 4.71495L60.2539 8.26378C60.2539 8.26378 59.0939 8.25282 57.8281 8.25282C56.4582 8.25282 56.2385 8.88402 56.2385 9.93189V12.707H60.3628L60.183 16.5072H56.2385V27.0626H60.07C62.801 27.0626 65 24.8635 65 22.1325V4.99257C65 2.26154 62.801 0.062527 60.07 0.062527H42.93L42.93 0.0625Z" fill="#241F20"/>
<path d="M13.75 0.0625C17.4859 0.0625 17.952 0.0762499 19.4177 0.145C20.8821 0.21375 21.879 0.443375 22.7562 0.784375C23.6637 1.13363 24.4283 1.60662 25.1928 2.36975C25.8919 3.05711 26.4329 3.88856 26.7781 4.80625C27.1178 5.68212 27.3488 6.68037 27.4175 8.14475C27.4821 9.6105 27.5 10.0766 27.5 13.8125C27.5 17.5484 27.4862 18.0145 27.4175 19.4802C27.3488 20.9446 27.1178 21.9415 26.7781 22.8187C26.4339 23.7369 25.8928 24.5686 25.1928 25.2553C24.5052 25.9542 23.6738 26.4952 22.7562 26.8406C21.8804 27.1803 20.8821 27.4113 19.4177 27.48C17.952 27.5446 17.4859 27.5625 13.75 27.5625C10.0141 27.5625 9.548 27.5487 8.08225 27.48C6.61787 27.4113 5.621 27.1803 4.74375 26.8406C3.8257 26.4962 2.9941 25.955 2.30725 25.2553C1.60793 24.568 1.06691 23.7365 0.721875 22.8187C0.380875 21.9429 0.15125 20.9446 0.0824999 19.4802C0.0178749 18.0145 0 17.5484 0 13.8125C0 10.0766 0.0137499 9.6105 0.0824999 8.14475C0.15125 6.679 0.380875 5.6835 0.721875 4.80625C1.06595 3.888 1.60711 3.05632 2.30725 2.36975C2.9943 1.67019 3.82584 1.12913 4.74375 0.784375C5.621 0.443375 6.6165 0.21375 8.08225 0.145C9.548 0.0803749 10.0141 0.0625 13.75 0.0625ZM13.75 6.9375C11.9266 6.9375 10.178 7.66183 8.88864 8.95114C7.59933 10.2405 6.875 11.9891 6.875 13.8125C6.875 15.6359 7.59933 17.3845 8.88864 18.6739C10.178 19.9632 11.9266 20.6875 13.75 20.6875C15.5734 20.6875 17.322 19.9632 18.6114 18.6739C19.9007 17.3845 20.625 15.6359 20.625 13.8125C20.625 11.9891 19.9007 10.2405 18.6114 8.95114C17.322 7.66183 15.5734 6.9375 13.75 6.9375ZM22.6875 6.59375C22.6875 6.13791 22.5064 5.70074 22.1841 5.37841C21.8618 5.05608 21.4246 4.875 20.9688 4.875C20.5129 4.875 20.0757 5.05608 19.7534 5.37841C19.4311 5.70074 19.25 6.13791 19.25 6.59375C19.25 7.04959 19.4311 7.48676 19.7534 7.80909C20.0757 8.13142 20.5129 8.3125 20.9688 8.3125C21.4246 8.3125 21.8618 8.13142 22.1841 7.80909C22.5064 7.48676 22.6875 7.04959 22.6875 6.59375ZM13.75 9.6875C14.844 9.6875 15.8932 10.1221 16.6668 10.8957C17.4404 11.6693 17.875 12.7185 17.875 13.8125C17.875 14.9065 17.4404 15.9557 16.6668 16.7293C15.8932 17.5029 14.844 17.9375 13.75 17.9375C12.656 17.9375 11.6068 17.5029 10.8332 16.7293C10.0596 15.9557 9.625 14.9065 9.625 13.8125C9.625 12.7185 10.0596 11.6693 10.8332 10.8957C11.6068 10.1221 12.656 9.6875 13.75 9.6875Z" fill="#241F20"/>
<path d="M141 0H119C117.344 0 116 1.30176 116 2.90625V24.2188C116 25.8232 117.344 27.125 119 27.125H141C142.656 27.125 144 25.8232 144 24.2188V2.90625C144 1.30176 142.656 0 141 0ZM137.944 9.61484C137.956 9.78438 137.956 9.95996 137.956 10.1295C137.956 15.3789 133.831 21.4275 126.294 21.4275C123.969 21.4275 121.812 20.7736 120 19.6475C120.331 19.6838 120.65 19.6959 120.988 19.6959C122.906 19.6959 124.669 19.0662 126.075 18.0006C124.275 17.9643 122.763 16.8199 122.244 15.2457C122.875 15.3365 123.444 15.3365 124.094 15.173C122.219 14.8037 120.812 13.2053 120.812 11.2738V11.2254C121.356 11.5221 121.994 11.7037 122.662 11.7279C122.1 11.3656 121.639 10.8741 121.321 10.2973C121.002 9.72046 120.836 9.07622 120.838 8.42207C120.838 7.6834 121.038 7.00527 121.394 6.41797C123.413 8.82773 126.444 10.402 129.844 10.5715C129.262 7.87715 131.344 5.69141 133.844 5.69141C135.025 5.69141 136.087 6.16973 136.837 6.94473C137.762 6.7752 138.65 6.44219 139.438 5.98809C139.131 6.9084 138.488 7.6834 137.638 8.17383C138.463 8.08906 139.263 7.86504 140 7.55625C139.444 8.34941 138.744 9.05176 137.944 9.61484Z" fill="#241F20"/>
</svg>
