<svg width="28" height="29" viewBox="0 0 28 29" fill="none" xmlns="http://www.w3.org/2000/svg">
<path d="M25 0.9375H3C1.34375 0.9375 0 2.23926 0 3.84375V25.1562C0 26.7607 1.34375 28.0625 3 28.0625H25C26.6562 28.0625 28 26.7607 28 25.1562V3.84375C28 2.23926 26.6562 0.9375 25 0.9375ZM21.9438 10.5523C21.9563 10.7219 21.9562 10.8975 21.9562 11.067C21.9562 16.3164 17.8312 22.365 10.2937 22.365C7.96875 22.365 5.8125 21.7111 4 20.585C4.33125 20.6213 4.65 20.6334 4.9875 20.6334C6.90625 20.6334 8.66875 20.0037 10.075 18.9381C8.275 18.9018 6.7625 17.7574 6.24375 16.1832C6.875 16.274 7.44375 16.274 8.09375 16.1105C6.21875 15.7412 4.8125 14.1428 4.8125 12.2113V12.1629C5.35625 12.4596 5.99375 12.6412 6.6625 12.6654C6.10027 12.3031 5.63936 11.8116 5.32092 11.2348C5.00247 10.658 4.83639 10.0137 4.8375 9.35957C4.8375 8.6209 5.0375 7.94277 5.39375 7.35547C7.4125 9.76523 10.4438 11.3395 13.8438 11.509C13.2625 8.81465 15.3438 6.62891 17.8438 6.62891C19.025 6.62891 20.0875 7.10723 20.8375 7.88223C21.7625 7.7127 22.65 7.37969 23.4375 6.92559C23.1313 7.8459 22.4875 8.6209 21.6375 9.11133C22.4625 9.02656 23.2625 8.80254 24 8.49375C23.4438 9.28691 22.7437 9.98926 21.9438 10.5523Z" fill="#241F20"/>
</svg>
