<svg width="150" height="204" viewBox="0 0 150 204" fill="none" xmlns="http://www.w3.org/2000/svg">
<g opacity="0.6">
<path d="M126.884 159.375L106.278 168.53L102.606 159.148L117.143 153.454C115.049 151.174 115.049 151.174 109.726 153.151L101.657 156.14C100.73 153.731 99.9004 151.581 98.8986 148.976C100.705 148.288 102.405 147.852 103.873 147.007C104.94 146.395 105.702 145.229 106.586 144.325C105.269 144.33 103.915 144.143 102.645 144.38C101.056 144.791 99.4946 145.306 97.9716 145.92C97.4697 144.82 97.0576 143.891 96.6328 142.962C94.6831 138.738 91.4546 137.149 87.8416 138.634C84.3332 140.069 83.078 143.573 84.4689 147.917C84.9982 149.456 85.5799 150.967 86.1243 152.469C86.602 153.833 87.0663 155.209 87.5159 156.521C83.0694 159.573 77.1856 159.534 73.3446 163.274L73.9746 164.915L88.8081 159.888L93.8565 173.265L72.3528 179.682C71.91 178.739 71.2892 177.618 70.8454 176.409C61.3078 150.814 51.787 125.22 42.2831 99.6274C41.7856 98.2744 41.261 96.761 41.3672 95.373C42.0674 86.4849 39.0735 79.1589 31.3798 72.4449C34.0187 70.8553 36.129 68.5638 38.4139 68.3771C53.2236 67.1793 66.4883 62.0457 78.4801 53.4451C81.1416 51.521 83.5595 51.5209 86.4895 53.5026C84.9721 63.058 88.591 70.8768 95.7666 77.2955C96.3819 77.9209 96.8422 78.6821 97.1107 79.518C107.019 106.06 116.943 132.679 126.884 159.375ZM81.9588 72.5494L81.0682 73.18C79.6218 73.3224 78.0618 73.1781 76.7318 73.6582C68.8376 76.4942 60.9148 79.2838 53.1606 82.4844C48.1281 84.5578 46.1821 89.2958 47.9511 94.604C50.1 101.037 52.4581 107.405 55.0252 113.706C57.2851 119.244 61.9742 121.327 67.659 119.342C75.159 116.721 82.6188 113.944 89.9852 110.958C95.3408 108.786 97.4762 104.15 95.6468 98.7041C93.4851 92.2719 91.3071 85.8006 88.4416 79.6693C87.1417 76.8854 84.1681 74.8943 81.9588 72.5494ZM47.7775 72.573C53.9203 75.3444 69.7415 70.1251 72.7193 64.3539L47.7775 72.573Z" stroke="white" stroke-width="2" stroke-miterlimit="10"/>
<path d="M82.3561 41.8455C81.6432 46.4136 79.3725 49.3979 75.4009 51.9809C64.0809 59.4534 51.9471 64.2578 38.3943 65.1352C36.5436 65.2858 34.687 64.9223 33.0284 64.0847C19.5158 56.3848 13.5391 39.6037 18.7574 24.5305C23.7235 10.1947 39.2064 0.773595 54.0136 3.06998C70.1807 5.56684 82.034 18.5439 82.5292 34.3934C82.6103 36.8531 82.4229 39.3515 82.3561 41.8455ZM24.1051 27.7295C21.7428 40.5243 26.0569 50.9837 35.1421 56.5745C37.2169 57.8522 39.6292 58.4699 42.0607 58.346C52.3688 57.3757 62.2311 53.6699 70.6322 47.6101C72.043 46.6156 73.1448 45.2421 73.8106 43.6476C77.4354 33.9068 75.6289 24.9309 68.7947 17.3056C61.7075 9.39676 52.5307 6.76114 42.3203 9.50877C32.0132 12.2815 25.9611 19.4409 24.1068 27.7043L24.1051 27.7295Z" stroke="white" stroke-width="2" stroke-miterlimit="10"/>
<path d="M102.763 62.4534L101.675 67.2306L106.403 65.2572C113.219 69.3046 122.918 81.3741 127.164 91.5309L113.228 98.1911C110.994 94.8047 109.132 91.4436 106.761 88.5044C102.706 83.4972 98.5119 78.5757 94.0391 73.946C88.6547 68.379 85.2979 62.3096 86.9405 53.6195L99.0931 59.4321L94.6306 65.8247L95.4562 67.0985C96.6252 66.4888 97.7452 65.7891 98.8061 65.0058C99.9657 63.9188 101.064 62.7678 102.095 61.5582L102.763 62.4534Z" stroke="white" stroke-width="2" stroke-miterlimit="10"/>
<path d="M39.6141 123.716L25.2151 127.752C24.2703 119.286 23.3832 111.309 22.5539 103.823C23.5349 103.078 23.7592 102.757 23.9874 102.754C31.0046 102.642 30.992 102.641 32.3411 95.4962C32.754 93.317 32.9282 91.0138 33.7851 89.0108C35.4378 85.1591 34.2747 83.5323 30.2692 83.3989C29.4245 83.3414 28.5923 83.0056 27.1542 82.6412L31.3613 72.5511C37.2992 77.0848 39.406 82.8416 39.4861 89.4499C39.5947 100.614 39.5663 111.744 39.6141 123.716Z" stroke="white" stroke-width="2" stroke-miterlimit="10"/>
<path d="M108.317 173.147C110.246 171.376 111.836 169.1 114.006 168.075C118.702 165.972 123.514 164.14 128.42 162.589C133.017 161.045 136.524 162.907 138.217 167.468C139.99 172.236 138.484 176.084 133.852 177.95C127.999 180.284 121.994 182.335 116.111 184.648C113.417 185.733 111.904 184.907 111.101 182.259C110.287 179.413 109.424 176.628 108.317 173.147Z" stroke="white" stroke-width="2" stroke-miterlimit="10"/>
<path d="M91.0851 177.323C94.8424 177.915 100.326 185.669 99.457 189.262C99.237 190.18 98.0626 191.171 97.0883 191.542C90.7777 193.997 84.4525 196.388 78.0509 198.596C74.0996 199.944 71.1148 198.218 69.2728 194.656C67.2034 190.711 67.6808 185.975 71.059 184.398C77.017 181.633 83.3432 179.604 89.5348 177.318C90.0469 177.219 90.5734 177.22 91.0851 177.323V177.323Z" stroke="white" stroke-width="2" stroke-miterlimit="10"/>
<path d="M16.9878 54.7671L29.6282 66.8164L18.163 94.6267C17.1913 92.1377 16.1088 89.4128 15.0776 86.6788C13.5879 82.6703 12.1179 78.6506 10.6475 74.6371C7.24339 65.4053 8.9498 60.1876 16.9878 54.7671Z" stroke="white" stroke-width="2" stroke-miterlimit="10"/>
<path d="M85.7578 29.6275C91.9297 28.5832 97.1054 30.2994 99.5921 35.7579C103.29 43.8103 106.178 52.245 109.395 60.4739L83.9524 48.4347C84.4975 42.6945 85.1058 36.2039 85.7578 29.6275Z" stroke="white" stroke-width="2" stroke-miterlimit="10"/>
<path d="M128.549 94.2915C131.032 98.5826 134.011 102.743 130.845 107.169C129.444 109.179 126.02 110.867 123.549 110.819C117.784 110.712 116.801 105.286 114.544 100.934L128.549 94.2915Z" stroke="white" stroke-width="2" stroke-miterlimit="10"/>
<path d="M26.7215 130.559L41.4688 126.32C42.8971 130.482 45.1402 134.763 41.4012 138.218C40.2781 139.149 38.9808 139.846 37.5852 140.268C36.1895 140.691 34.7237 140.829 33.2737 140.676C28.171 139.853 27.7694 135.013 26.7215 130.559Z" stroke="white" stroke-width="2" stroke-miterlimit="10"/>
<path d="M43.9053 112.749C47.2539 121.774 50.6021 130.806 54.0543 140.079L47.4411 142.762C45.7573 132.613 44.1379 122.824 42.5185 113.035L43.9053 112.749Z" fill="#EEEEEE"/>
<path d="M125.254 124.385L118.994 126.737C115.686 117.861 112.487 109.258 109.288 100.656L110.332 100.093L125.254 124.385Z" fill="#EEEEEE"/>
<path d="M28.525 99.9617L23.7106 99.5322L26.1782 85.7468L30.9132 86.6022L28.525 99.9617Z" stroke="white" stroke-width="2" stroke-miterlimit="10"/>
<path d="M55.1731 105.545C59.1142 104.069 62.7347 102.845 66.2173 101.319C67.3064 100.842 68.0397 99.5409 68.9305 98.625C67.633 98.6254 66.2362 98.3146 65.0527 98.6905C61.5541 99.7965 58.1326 101.168 54.1607 102.628L51.5987 95.941L75.6325 86.7982C72.6415 84.7871 72.6474 84.7938 63.2524 88.3073C59.2721 89.799 55.2764 91.2389 50.6877 92.9301C50.1619 88.8991 51.4537 86.2603 54.8129 84.9672C62.2136 82.0894 69.6639 79.3207 77.1638 76.661C81.1574 75.2527 84.2517 76.8587 85.7938 80.6482C88.2975 86.7925 90.5927 93.0241 92.719 99.3202C94.1176 103.455 92.6355 106.664 88.577 108.284C81.4701 111.123 74.2999 113.805 67.0664 116.33C62.6043 117.929 59.6363 116.515 57.727 112.257C56.8425 110.262 56.1617 108.155 55.1731 105.545ZM84.6982 95.2161L82.6113 94.909C81.086 96.5045 78.8327 97.8222 78.1964 99.7511C77.2063 102.702 79.1769 104.923 82.1664 105.361C84.8996 105.75 87.5218 104.407 87.4898 101.501C87.4362 99.3851 85.6839 97.3062 84.6982 95.2161Z" stroke="white" stroke-width="2" stroke-miterlimit="10"/>
<path d="M55.424 19.1093C56.5108 19.1389 57.4903 18.8822 57.8026 19.227C62.3633 24.2564 65.5622 29.9541 65.6537 36.9559C65.6615 37.6858 64.6618 38.4295 64.131 39.1671C63.6346 38.5498 62.7079 37.9285 62.7172 37.3203C62.8131 30.826 59.535 25.8332 55.7719 20.9913C55.5369 20.7216 55.6037 20.1997 55.424 19.1093Z" fill="#EEEEEE"/>
</g>
</svg>
