<svg width="440" height="144" viewBox="0 0 440 144" fill="none" xmlns="http://www.w3.org/2000/svg">
<path d="M0.814494 140.759C10.7797 144.084 22.3796 143.189 32.719 142.484C46.8922 141.517 60.4995 139.553 74.3642 136.244C90.5363 132.384 105.643 127.099 121.105 121.195C157.598 107.261 193.699 92.5766 229.842 77.7818C242.609 72.5556 254.853 68.5913 268.64 67.5868C274.475 67.1617 280.266 67.1689 286.074 67.9476C289.892 68.4594 294.385 68.7187 297.85 70.5487C300.516 71.9566 305.346 75.388 305.58 78.5912C305.82 81.8943 304.246 84.1312 300.879 85.0926C292.482 87.49 285.431 81.561 287.144 72.5943C287.796 69.1843 290.515 66.4566 292.609 63.8437C295.629 60.0764 299.297 56.6857 303.092 53.715C311.928 46.7985 322.647 42.7603 333.057 38.8484C352.451 31.5599 373.996 28.306 394.323 24.7665C404.333 23.0234 413.79 20.5666 423.011 16.3205C426.885 14.5368 430.351 12.344 433.695 9.72066C437.24 6.94044 438.375 5.36232 439.134 1.00001" stroke="#606060" stroke-linecap="round" stroke-linejoin="round" stroke-dasharray="5 5"/>
</svg>
