<svg width="123" height="49" viewBox="0 0 123 49" fill="none" xmlns="http://www.w3.org/2000/svg">
<path d="M1.07715 1.40527C5.63898 2.60909 10.201 4.15171 14.6481 5.73158C19.5928 7.48825 24.7872 8.14244 29.6308 10.24C33.2207 11.7947 36.5515 14.042 40.0595 15.7959C43.6583 17.5953 46.4967 19.9088 49.4863 22.5586C52.2988 25.0515 54.7381 27.8985 56.3628 31.3251C59.7221 38.4102 58.4705 47.5647 49.2586 48.1066C45.3158 48.3386 41.3365 43.6139 43.0651 39.75C44.5764 36.3718 48.3072 34.2499 51.3989 32.4636C57.493 28.9426 66.0153 28.5746 72.7572 28.069C84.6516 27.1769 96.389 27.0221 108.233 25.3821C112.754 24.7561 118.55 23.6313 121.576 19.849" stroke="#606060" stroke-linecap="round" stroke-linejoin="round" stroke-dasharray="5 5"/>
</svg>
