<svg width="352" height="108" viewBox="0 0 352 108" fill="none" xmlns="http://www.w3.org/2000/svg">
<path d="M1 107C29.2116 107 55.2392 103.156 81.8671 94.0053C102.364 86.9614 123.359 79.0254 141.472 66.8841C154.026 58.4693 168.001 46.883 173.91 32.4278C176.216 26.7862 178.367 15.4392 174.319 10.0607C167.129 0.506458 149.286 -1.73059 139.383 4.49154C131.686 9.32729 123.864 23.7192 130.66 32.4278C134.277 37.0628 136.67 40.2365 142.018 42.9775C147.828 45.9557 154.129 49.1479 160.372 51.1275C187.582 59.7561 215.972 62.2381 244.146 65.7974C268.124 68.8265 293.97 70.396 317.063 78.0676C324.65 80.5881 332.172 83.4632 339.097 87.259C342.131 88.9217 344.34 91.14 347.093 93.1451C348.781 94.3744 351 100.119 351 98.035" stroke="#606060" stroke-linecap="round" stroke-linejoin="round" stroke-dasharray="5 5"/>
</svg>
