<svg width="103" height="236" viewBox="0 0 103 236" fill="none" xmlns="http://www.w3.org/2000/svg">
<path d="M69.187 66.6198C78.7993 61.2923 88.5631 55.5835 95.3553 46.9438C102.449 37.9209 105.477 24.4255 98.9029 15.0173C93.3809 7.11432 82.3849 4.33558 73.0183 6.61949C63.6517 8.90341 55.8103 15.4104 49.7201 22.8843C51.713 13.6981 42.0246 4.82822 32.66 5.64176C23.2954 6.4553 15.7816 14.6404 13.2812 23.7016C10.7807 32.7629 12.4076 42.46 15.0906 51.4688C19.6083 66.5742 26.9914 80.6687 36.837 92.9832C38.3467 90.2481 40.1712 87.699 42.2732 85.3879C49.6666 77.2566 59.5746 71.9473 69.187 66.6198Z" fill="#F2F2F2"/>
<path d="M35.9599 93.4231C23.381 79.5539 14.1681 62.9721 9.03644 44.9653C6.39902 35.6114 4.85401 24.9764 8.80652 15.7479C11.8636 8.61021 18.3791 2.1522 26.4559 1.55432C34.9794 0.92339 44.4416 8.81638 42.6158 17.8419C42.4794 18.5159 43.3672 19.227 43.8929 18.5853C50.7154 10.2579 60.0936 2.58721 71.2695 1.83526C81.2238 1.16551 91.6803 6.13979 94.5797 16.2517C97.5997 26.7841 92.3892 37.9266 85.092 45.3743C76.9972 53.636 66.4599 58.7896 56.5143 64.4163C46.7287 69.9526 36.7758 76.3455 30.757 86.1316C27.8974 90.658 26.1303 95.7876 25.5953 101.115C25.1227 106.613 26.4982 111.812 29.1601 116.607C31.9875 121.7 35.484 126.343 38.0372 131.602C40.5483 136.799 42.4584 142.266 43.7303 147.896C46.2994 159.119 46.3163 170.775 43.7799 182.005C39.088 202.472 25.3983 220.486 7.17911 230.849C4.97764 232.098 2.71457 233.236 0.398536 234.257C-0.499028 234.654 0.277672 235.972 1.16986 235.577C10.8207 231.246 19.4965 225.008 26.6761 217.239C33.8557 209.471 39.391 200.331 42.9493 190.369C50.6575 168.487 47.7024 143.275 35.3716 123.66C32.1445 118.526 28.4165 113.548 27.3538 107.431C26.38 101.827 27.5793 95.9802 29.9458 90.8674C35.0138 79.9176 45.0591 72.7998 55.2057 66.9254C65.3499 61.0525 76.1863 55.9662 84.783 47.8203C92.4359 40.5687 98.0816 30.2217 96.7564 19.3821C96.2095 14.4285 93.9034 9.83558 90.2574 6.43801C86.5817 3.20561 82.0217 1.14885 77.1657 0.533095C66.3324 -0.994224 56.1775 4.14568 48.456 11.4113C46.4453 13.3185 44.5601 15.3539 42.8123 17.5047L44.0894 18.2482C45.7374 10.1015 39.2615 2.6172 31.6787 0.556789C23.4324 -1.68389 15.2578 3.1369 10.506 9.67237C4.57063 17.8358 4.08513 28.3048 5.82013 37.9301C7.61994 47.9151 11.3459 57.6907 15.8716 66.7432C20.9173 76.817 27.312 86.1564 34.8793 94.5037C35.5409 95.2342 36.619 94.1508 35.9599 93.4231L35.9599 93.4231Z" fill="#3F3D56"/>
</svg>
