<svg width="385" height="247" viewBox="0 0 385 247" fill="none" xmlns="http://www.w3.org/2000/svg">
<path d="M95.226 30.3608L95.2778 30.1195L95.1177 29.9317C92.4772 26.8322 90.7272 23.0784 91.0202 18.9028C91.2308 15.9009 92.4244 13.862 94.112 12.5535C95.8136 11.2342 98.0655 10.6212 100.437 10.5792C102.807 10.5373 105.259 11.0669 107.318 11.9891C109.387 12.9156 111.003 14.2112 111.779 15.6572C113.411 18.6999 114.161 24.18 113.937 29.0836C113.826 31.5259 113.476 33.7818 112.895 35.4814C112.605 36.3315 112.264 37.0214 111.884 37.5233C111.504 38.0246 111.105 38.3108 110.701 38.4151C109.968 38.604 108.713 38.4779 107.11 37.9789C105.531 37.4875 103.69 36.6587 101.825 35.5345L100.924 34.9919L101.072 36.0327L103.369 52.2868H90.5218L95.226 30.3608Z" fill="white" stroke="#241F20"/>
<path fill-rule="evenodd" clip-rule="evenodd" d="M118.44 6.66035C118.149 5.63827 117.367 4.76316 116.313 4.50354C116.057 4.44057 115.794 4.41513 115.531 4.42574C115.436 4.4295 115.41 4.45671 115.366 4.39073C115.333 4.34182 115.332 4.22233 115.319 4.16485C115.277 3.98611 115.224 3.8096 115.16 3.63765C114.939 3.05121 114.569 2.5322 114.122 2.09499C113.286 1.27706 112.157 0.712554 110.984 0.610427C110.342 0.554561 109.705 0.658878 109.098 0.867742C108.783 0.975863 108.479 1.1105 108.182 1.25934C108.092 1.30414 107.802 1.52357 107.713 1.50936C107.614 1.49368 107.415 1.24755 107.334 1.18576C106.339 0.422042 105.109 0.12177 103.87 0.130749C102.47 0.141289 101.123 0.211218 99.9553 1.06435C99.7083 1.24497 99.4729 1.44273 99.2489 1.65095C99.1309 1.76056 99.0166 1.87429 98.9076 1.99275C98.8419 2.06422 98.7779 2.1373 98.7162 2.21234C98.6116 2.33971 98.6284 2.38155 98.482 2.29268C97.9203 1.95141 97.2693 1.7918 96.6137 1.87237C96.2244 1.92025 95.8456 2.03713 95.4859 2.19097C95.3635 2.24334 95.08 2.45224 94.9495 2.45428C94.82 2.45628 94.5406 2.26263 94.4072 2.21341C93.6868 1.94749 92.9104 1.88194 92.1533 2.00482C91.3722 2.13161 90.605 2.44322 89.9433 2.87382C89.625 3.08095 89.3473 3.31045 89.1243 3.61844C89.028 3.75142 88.9409 3.89209 88.8318 4.01539C88.7679 4.08758 88.6413 4.16166 88.607 4.25303C88.6275 4.19831 87.7529 3.86112 87.6703 3.83956C87.2306 3.72472 86.7829 3.748 86.3523 3.88971C85.5426 4.15617 84.8463 4.75371 84.274 5.36636C83.9801 5.68104 83.7228 6.02888 83.5045 6.39946C83.3999 6.57697 83.3042 6.75956 83.2166 6.94602C83.1742 7.03635 83.1461 7.14935 83.0902 7.23073C83.0181 7.33559 82.9697 7.33758 82.8393 7.38331C82.1766 7.61545 81.5725 8.0084 81.1125 8.53936C80.6472 9.07654 80.3453 9.73806 80.2187 10.4347C80.2113 10.4757 80.2068 10.6458 80.1828 10.668C80.1499 10.6986 80.0166 10.6851 79.9662 10.691C79.7916 10.7115 79.6183 10.7419 79.4473 10.7824C79.132 10.857 78.8252 10.9669 78.5349 11.1105C77.4034 11.6703 76.5942 12.7199 76.1982 13.9009C75.7826 15.1404 75.79 16.5604 76.2866 17.7767C76.3669 17.9731 76.4623 18.1638 76.5744 18.3442C76.6433 18.4549 76.6655 18.4552 76.6208 18.5714C76.571 18.7006 76.4799 18.8262 76.4208 18.9525C76.2277 19.3647 76.0928 19.8018 76.0076 20.2483C75.8677 20.9807 75.7984 21.7503 75.9364 22.4882C76.0004 22.8309 76.112 23.1659 76.2823 23.4711C76.3691 23.6267 76.4707 23.7742 76.5854 23.9108C76.645 23.9816 76.7082 24.0493 76.7744 24.1142C76.8122 24.1512 76.8618 24.1837 76.894 24.2251C76.9725 24.326 76.989 24.243 76.9485 24.3912C76.8919 24.5983 76.7635 24.8027 76.6849 25.0042C76.6039 25.2119 76.5307 25.4225 76.4638 25.6351C76.3282 26.0657 76.2135 26.504 76.1418 26.9499C76.0041 27.806 76.0283 28.7182 76.4332 29.5039C76.6064 29.84 76.8548 30.1348 77.156 30.3642C77.3035 30.4763 77.4632 30.5731 77.6307 30.6525C77.7168 30.6934 77.8267 30.7109 77.866 30.7941C77.9083 30.8837 77.8455 31.0614 77.8312 31.1615C77.7067 32.0323 77.6443 32.9465 77.9031 33.7998C78.1415 34.5857 78.6664 35.2796 79.3479 35.739C80.6699 36.6302 82.4519 36.58 83.841 35.8665C84.2031 35.6805 84.5419 35.4496 84.8441 35.1772C85.6136 36.2131 87.197 36.1803 88.3217 35.8852C89.7228 35.5174 90.8471 34.5432 91.4949 33.2631C92.3806 34.3413 94.2395 33.9915 94.8537 32.8218C95.004 32.5355 95.0932 32.22 95.1371 31.9007C95.1602 31.7328 95.1455 31.5634 95.1628 31.3968C95.1849 31.1846 95.3267 30.9783 95.4082 30.773C95.5669 30.3734 95.6655 29.9606 95.6697 29.5296C95.6719 29.3046 95.6434 29.0853 95.622 28.862C95.6028 28.6611 95.6585 28.4738 95.6902 28.2755C95.3308 28.3347 94.893 28.2378 94.5545 28.1336C94.2222 28.0313 93.9111 27.762 93.6766 27.5161C93.1321 26.945 92.7995 26.1963 92.572 25.4512C92.0726 23.8158 92.2773 21.8537 93.9222 20.9561C94.6885 20.538 96.9842 20.5394 97.8969 20.746C98.8566 20.9633 99.9445 23.0808 99.998 23.2798C100.031 23.403 100.014 23.5555 100.128 23.6375C100.376 23.818 100.786 23.5048 100.97 23.3503C101.286 23.0835 101.512 22.7285 101.708 22.3688C102.134 21.5849 102.477 20.7444 102.72 19.8863C102.907 19.2247 103.027 18.5425 103.271 17.8978C103.514 17.2563 103.898 16.683 104.494 16.3196C105.143 15.9242 105.887 15.716 106.599 15.4676C107.305 15.2214 107.998 14.9204 108.545 14.398C108.666 14.2831 108.783 14.1611 108.879 14.0258C108.956 13.919 109.031 13.7146 109.148 13.6469C109.329 13.5416 109.593 13.8155 109.75 13.9149C110.522 14.4056 111.167 15.0899 111.687 15.8374C112.204 16.5809 112.628 17.2963 112.973 18.1265C113.228 18.7422 113.388 19.5308 113.838 20.0354C114.038 20.2607 115.531 20.397 116.014 20.2003C116.497 20.0036 117.039 19.4928 117.201 19.1727C117.367 18.8451 117.407 18.4852 117.336 18.1265C117.294 17.9155 117.209 17.7184 117.162 17.5111C117.123 17.337 117.087 17.1725 117.003 17.013C116.842 16.7107 116.568 16.4935 116.237 16.4027C116.581 16.0852 116.867 15.7054 117.064 15.2808C117.269 14.8397 117.443 14.3033 117.492 13.8192C117.532 13.426 117.471 13.0186 117.255 12.6806C117.029 12.3262 116.629 12.0949 116.283 11.8738C116.812 11.4601 117.264 10.9571 117.636 10.4001C118.36 9.31695 118.807 7.95165 118.44 6.66035Z" fill="#241F20"/>
<path d="M113.865 175.462L85.9898 101.703H116.848L143.742 230.002H133.467L113.868 175.47L113.868 175.47L113.865 175.462Z" fill="#F2F2F2" stroke="#241F20"/>
<path d="M77.9728 162.926C78.0213 162.817 78.051 162.685 78.0724 162.567C78.0959 162.438 78.117 162.282 78.1365 162.103C78.1755 161.745 78.2104 161.271 78.2419 160.696C78.3051 159.545 78.3563 157.965 78.3984 156.04C78.4828 152.189 78.5315 146.94 78.5675 140.946C78.5899 137.213 78.6074 133.192 78.6255 129.037C78.6647 120.016 78.7067 110.37 78.8077 101.703H115.613C112.162 113.839 107.206 129.85 102.766 143.45C100.506 150.37 98.3811 156.663 96.6561 161.502C95.7935 163.922 95.032 165.975 94.4046 167.56C93.7721 169.158 93.2884 170.247 92.9812 170.763C92.8015 171.065 92.3742 171.544 91.6434 172.215C90.9246 172.875 89.9478 173.688 88.7088 174.658C86.2316 176.597 82.7289 179.141 78.1968 182.292C69.2107 188.539 56.1984 197.159 39.1572 208.152L33.8464 199.122C48.2142 187.692 59.0647 178.976 66.3966 172.974C70.091 169.95 72.8947 167.613 74.8058 165.965C75.7607 165.141 76.4969 164.485 77.0111 164C77.2677 163.758 77.4741 163.554 77.6265 163.39C77.7025 163.308 77.7694 163.231 77.8239 163.161C77.8734 163.098 77.9326 163.016 77.9728 162.926Z" fill="#F2F2F2" stroke="#241F20"/>
<path d="M27.3357 208.979L26.8224 209.409L23.7201 205.712L32.7114 198.869L40.2012 207.795C40.8278 214.831 43.1404 222.678 47.1191 231.33L46.0021 232.267L32.0573 215.648L28.0846 209.102L27.7822 208.604L27.3357 208.979Z" fill="white" stroke="#241F20"/>
<path d="M137.422 239.863V240.534H132.596L133.133 229.247H144.785C150.578 233.29 158.075 236.562 167.261 239.076V240.534H145.566L137.998 239.369L137.422 239.281V239.863Z" fill="white" stroke="#241F20"/>
<path d="M135.08 94.5853L153.224 107.909L153.299 107.964L153.39 107.989C158.398 109.34 162.567 111.015 165.905 113.007C166.073 113.163 166.236 113.346 166.348 113.523C166.481 113.73 166.489 113.841 166.484 113.868L166.484 113.87L135.08 94.5853ZM135.08 94.5853L131.381 103.728L135.08 94.5853ZM58.8847 120.669C60.1295 114.509 61.709 105.877 63.6232 94.7763L74.7511 94.82C71.0737 106.689 68.2345 115.798 66.2332 122.148C64.1908 128.628 63.0299 132.206 62.7386 132.928C61.9892 134.785 62.4245 137.054 63.1303 139.111C63.6526 140.633 64.3577 142.127 64.9308 143.342C65.047 143.588 65.1578 143.823 65.2606 144.045C64.6496 144.219 64.2198 144.122 63.8616 143.924C63.4149 143.676 63.0436 143.259 62.5901 142.75C62.5291 142.682 62.4667 142.612 62.4023 142.54C61.8919 141.972 61.2753 141.331 60.415 141.021C59.5273 140.702 58.4703 140.763 57.129 141.387C56.0755 141.877 55.0793 142.456 54.1283 143.009C54.0196 143.072 53.9115 143.135 53.804 143.197C52.7457 143.811 51.7425 144.375 50.7267 144.772C49.7165 145.167 48.7116 145.39 47.6571 145.331C46.6051 145.272 45.471 144.931 44.2051 144.15C44.0161 144.033 43.7607 143.698 43.7284 143.279C43.6999 142.907 43.8439 142.393 44.5854 141.884C46.7541 140.397 49.3951 138.357 51.6005 136.474C52.7032 135.532 53.7026 134.625 54.4821 133.843C55.2439 133.078 55.8468 132.383 56.0975 131.875C56.411 131.239 56.7939 129.972 57.2494 128.133C57.7095 126.276 58.2546 123.787 58.8847 120.669Z" fill="white" stroke="#241F20"/>
<path d="M107.624 85.9088C100.391 72.6638 98.0963 56.7201 98.4361 43.3948L102.858 42.6364C111.222 49.9311 117.378 60.2251 123.77 70.9113C124.421 72.0006 125.075 73.0939 125.734 74.1885C132.794 85.9164 140.416 97.7645 151.776 106.069L146.744 112.306C127.125 109.793 114.885 99.205 107.624 85.9088Z" fill="white" stroke="#241F20"/>
<path d="M120.658 106.049H120.602H120.546H120.489H120.433H120.376H120.32H120.263H120.206H120.149H120.092H120.034H119.977H119.92H119.862H119.804H119.746H119.688H119.63H119.572H119.513H119.455H119.396H119.337H119.279H119.219H119.16H119.101H119.042H118.982H118.923H118.863H118.803H118.743H118.683H118.623H118.562H118.502H118.441H118.38H118.32H118.259H118.198H118.136H118.075H118.014H117.952H117.89H117.828H117.766H117.704H117.642H117.58H117.517H117.455H117.392H117.329H117.266H117.203H117.14H117.077H117.013H116.95H116.886H116.822H116.758H116.694H116.63H116.566H116.502H116.437H116.372H116.308H116.243H116.178H116.112H116.047H115.982H115.916H115.851H115.785H115.719H115.653H115.587H115.521H115.454H115.388H115.321H115.254H115.188H115.121H115.053H114.986H114.919H114.851H114.784H114.716H114.648H114.58H114.512H114.444H114.376H114.307H114.239H114.17H114.101H114.032H113.963H113.894H113.824H113.755H113.685H113.616H113.546H113.476H113.406H113.336H113.265H113.195H113.124H113.054H112.983H112.912H112.841H112.77H112.699H112.627H112.556H112.484H112.412H112.34H112.268H112.196H112.124H112.051H111.979H111.906H111.834H111.761H111.688H111.615H111.541H111.468H111.394H111.321H111.247H111.173H111.099H111.025H110.951H110.877H110.802H110.727H110.653H110.578H110.503H110.428H110.353H110.277H110.202H110.126H110.051H109.975H109.899H109.823H109.746H109.67H109.594H109.517H109.44H109.364H109.287H109.21H109.132H109.055H108.978H108.9H108.823H108.745H108.667H108.589H108.511H108.432H108.354H108.275H108.197H108.118H108.039H107.96H107.881H107.802H107.722H107.643H107.563H107.483H107.403H107.323H107.243H107.163H107.083H107.002H106.922H106.841H106.76H106.679H106.598H106.517H106.435H106.354H106.272H106.191H106.109H106.027H105.945H105.862H105.78H105.698H105.615H105.532H105.45H105.367H105.284H105.2H105.117H105.034H104.95H104.866H104.782H104.699H104.615H104.53H104.446H104.362H104.277H104.192H104.108H104.023H103.938H103.852H103.767H103.682H103.596H103.511H103.425H103.339H103.253H103.167H103.081H102.994H102.908H102.821H102.734H102.647H102.56H102.473H102.386H102.299H102.211H102.124H102.036H101.948H101.86H101.772H101.684H101.595H101.507H101.418H101.329H101.241H101.152H101.063H100.973H100.884H100.795H100.705H100.615H100.525H100.436H100.345H100.255H100.165H100.075H99.984H99.8933H99.8025H99.7115H99.6205H99.5293H99.438H99.3466H99.255H99.1634H99.0716H98.9797H98.8876H98.7955H98.7032H98.6108H98.5183H98.4256H98.3329H98.24H98.147H98.0538H97.9606H97.8672H97.7737H97.68H97.5863H97.4924H97.3984H97.3043H97.21H97.1157H97.0212H96.9266H96.8318H96.737H96.642H96.5469H96.4517H96.3563H96.2609H96.1653H96.0695H95.9737H95.8777H95.7817H95.6854H95.5891H95.4927H95.3961H95.2994H95.2026H95.1056H95.0085H94.9114H94.814H94.7166H94.619H94.5214H94.4236H94.3256H94.2276H94.1294H94.0311H93.9327H93.8342H93.7355H93.6367H93.5378H93.4388H93.3396H93.2403H93.1409H93.0414H92.9418H92.842H92.7421H92.6421H92.542H92.4417H92.3413H92.2408H92.1402H92.0394H91.9386H91.8376H91.7364H91.6352H91.5338H91.4323H91.3307H91.229H91.1271H91.0252H90.9231H90.8208H90.7185H90.616H90.5134H90.4107H90.3079H90.2049H90.1018H89.9986H89.8953H89.7919H89.6883H89.5846H89.4808H89.3768H89.2728H89.1686H89.0643H88.9598H88.8553H88.7506H88.6458H88.5409H88.4358H88.3306H88.2253H88.1199H88.0144H87.9087H87.8029H87.697H87.591H87.4849H87.3786H87.2722H87.1657H87.059H86.9523H86.8454H86.7384H86.6312H86.524H86.4166H86.3091H86.2015H86.0937H85.9858H85.8778H85.7697H85.6615H85.5531H85.4446H85.336H85.2273H85.1184H85.0095H84.9004H84.7911H84.6818H84.5723H84.4627H84.353H84.2432H84.1332H84.0232H83.913H83.8026H83.6922H83.5816H83.4709H83.3601H83.2492H83.1381H83.0269H82.9156H82.8042H82.6926H82.5809H82.4691H82.3572H82.2452H82.133H82.0207H81.9083H81.7958H81.6831H81.5703H81.4574H81.3444H81.2312H81.118H81.0046H80.891H80.7774H80.6636H80.5497H80.4357H80.3216H80.2074H80.093H79.9785H79.8638H79.7491H79.6342H79.5192H79.4041H79.2889H79.1735H79.058H78.9424H78.8267H78.7109H78.5949H78.4788H78.3626H78.2462H78.1298H78.0132H77.8965H77.7796H77.6627H77.5456H77.4284H77.3111H77.1936H77.0761H76.9584H76.8405H76.7226H76.6045H76.4864H76.4324C78.5359 78.1109 82.2159 57.3043 92.6265 40.3972L104.789 42.3045C104.866 54.4612 108.188 65.1496 111.908 74.9008C112.867 77.413 113.85 79.8582 114.81 82.2483C117.634 89.2754 120.267 95.8261 121.532 102.203C121.679 102.943 121.833 103.984 121.722 104.821C121.667 105.238 121.552 105.549 121.389 105.747C121.245 105.923 121.032 106.049 120.658 106.049Z" fill="white" stroke="#241F20"/>
<path d="M76.6578 57.0293L77.0769 56.4521L76.3914 56.255C74.6636 55.7584 73.2769 54.6007 72.2354 52.7214C69.8967 48.5015 69.2085 45.3281 69.6422 43.07C70.0659 40.8643 71.5836 39.4266 73.9727 38.6966C76.3573 37.9679 78.6259 38.3444 81.3866 38.9457C81.6609 39.0054 81.9396 39.0673 82.2232 39.1302C84.778 39.697 87.7292 40.3518 91.4036 40.3518C91.8203 40.3518 92.1952 40.3779 92.53 40.4284L92.5529 40.4318L92.5761 40.4331L96.2667 40.6437C102.004 60.1324 105.662 76.3729 107.247 89.3717C108.818 102.249 108.346 111.884 105.9 118.336H71.0092H70.6796L70.5497 118.639C68.5197 123.372 66.5784 127.366 64.7263 130.622H55.9017C55.0923 101.711 62.0199 77.1901 76.6578 57.0293Z" fill="white" stroke="#241F20"/>
<path fill-rule="evenodd" clip-rule="evenodd" d="M79.4119 72.9197C80.5902 93.9549 82.5053 109.222 85.1572 118.72H71.2536C73.8429 105.837 76.5624 90.5703 79.4119 72.9197H79.4119Z" fill="black" fill-opacity="0.1"/>
<path d="M1 241.479C114.37 243.12 227.95 248.73 341.314 245.05C355.392 244.593 369.451 244.54 383.534 244.54" stroke="#606060" stroke-linecap="round" stroke-linejoin="round"/>
</svg>
