<svg width="377" height="325" viewBox="0 0 377 325" fill="none" xmlns="http://www.w3.org/2000/svg">
<g opacity="0.6">
<path d="M308.738 97.5838C309.085 97.4364 309.559 97.3206 309.764 97.2469C309.867 97.1563 309.98 97.0785 310.101 97.0152C310.212 96.9679 310.364 96.9152 310.48 96.8731C311.412 96.5414 311.723 96.4256 312.528 96.1887C313.334 95.9518 314.434 95.8202 315.334 95.5675C315.903 95.6465 316.798 95.3306 317.966 95.2516C318.38 95.3234 318.801 95.3428 319.219 95.3095C319.79 95.2545 320.355 95.1541 320.909 95.0094L321.483 94.862L322.01 94.6936C322.61 94.4858 323.175 94.1856 323.684 93.8039C324.121 93.4774 324.473 93.1458 324.858 92.7983C325.709 91.9547 326.616 91.1702 327.574 90.4503C327.857 90.2719 328.155 90.1186 328.464 89.9923C328.611 89.9186 328.764 89.8396 328.927 89.7396L329.454 89.3921C330.022 89.2553 330.391 89.0289 330.875 88.9236C331.215 88.7259 331.566 88.5501 331.928 88.3971C332.266 88.2516 332.619 88.1456 332.981 88.0813C334.95 87.2916 336.44 86.5598 338.525 86.0965C338.888 86.2176 339.667 85.9649 340.32 85.8965C340.762 85.8438 340.899 85.928 341.441 85.8438C342.128 85.6913 342.797 85.4653 343.436 85.1699C344.926 84.9804 346.743 84.0117 349.027 82.9957C350.781 82.3459 352.391 81.3586 353.766 80.0896C354.797 78.8112 355.745 77.4677 356.603 76.0675C357.019 75.5713 357.396 75.0432 357.73 74.4881C358.598 73.4826 359.651 72.6139 360.594 71.2346C361.388 69.9823 362.056 68.6544 362.589 67.2704L362.015 66.844C361.457 68.0496 360.867 69.192 360.352 70.287C360.225 70.1606 359.92 70.6818 359.741 70.7187C358.272 72.8245 356.64 74.4039 355.408 76.0464C354.613 77.0994 354.618 77.4573 354.05 78.2786C353.746 78.6788 353.421 79.0619 353.076 79.4263C352.981 79.5263 352.76 79.6264 352.628 79.7474C352.37 79.9843 352.239 80.2212 352.076 80.3529C351.863 80.5261 351.642 80.6878 351.412 80.8372C350.987 81.0837 350.549 81.3086 350.101 81.5111C349.991 81.5637 349.886 81.6216 349.77 81.669L349.422 81.8112C349.191 81.9112 348.959 82.0112 348.733 82.1323L348.432 82.2902L348.132 82.4271C347.932 82.5166 347.743 82.6114 347.553 82.7061L346.995 82.9957L346.432 83.2589C345.615 83.6608 344.775 84.0124 343.915 84.3118C343.178 84.3803 342.305 84.6856 341.72 84.5856C340.325 84.8225 338.746 85.112 337.319 85.4542C336.961 85.549 336.614 85.649 336.266 85.7491C335.919 85.8491 335.619 85.9702 335.329 86.086C334.811 86.2782 334.32 86.5384 333.871 86.8599C333.629 86.9546 333.397 87.0336 333.181 87.1073C332.965 87.181 332.77 87.26 332.576 87.3232C332.197 87.46 331.839 87.5337 331.523 87.6496L330.47 87.9918C330.062 88.1359 329.666 88.3119 329.285 88.5182L328.848 88.613C328.322 88.9289 327.795 89.2868 327.332 89.5869C326.869 89.887 326.453 90.2187 326.111 90.4187C325.511 91.0663 324.568 91.8507 324.163 92.3456C323.736 92.4666 323.373 93.0036 323.031 93.2827C322.157 93.8144 321.188 94.1719 320.178 94.3356C319.266 94.4826 318.341 94.5337 317.419 94.4882C316.892 94.5672 316.013 94.6988 315.518 94.7989C314.676 94.9726 314.071 94.9463 313.307 95.1095C312.425 95.3391 311.561 95.633 310.722 95.9887C310.713 96.0112 310.697 96.0301 310.676 96.0425C310.655 96.0549 310.631 96.06 310.607 96.0571H310.585L310.38 96.1308C310.017 96.2624 309.648 96.3782 309.285 96.4941C309.349 96.5408 309.393 96.6106 309.406 96.6888C309.406 96.7941 309.19 96.9679 309.08 96.8731C308.969 96.7783 308.927 96.7836 308.922 96.7046C308.925 96.6694 308.936 96.6353 308.953 96.6046C308.611 96.7204 308.274 96.8468 307.948 96.9889C307.932 97.0151 307.912 97.0379 307.888 97.056C307.863 97.0741 307.835 97.0871 307.806 97.0942C307.766 97.1067 307.724 97.1067 307.685 97.0942L307.574 97.1416C307.342 97.2627 307.121 97.389 306.906 97.5206C306.906 97.6049 306.753 97.6944 306.648 97.7365C306.637 97.7416 306.625 97.7443 306.613 97.7443C306.601 97.7443 306.59 97.7416 306.579 97.7365C306.426 97.8418 306.269 97.9418 306.121 98.0524C306.158 98.363 306.2 98.6736 306.237 98.9895C306.493 98.7796 306.762 98.5862 307.042 98.4104C307.674 98.1313 308.148 97.8365 308.738 97.5838ZM307.653 97.6575C307.707 97.6598 307.759 97.6802 307.8 97.7154C307.911 97.7944 307.832 97.9734 307.716 98.0313C307.691 98.0451 307.663 98.0524 307.635 98.0524C307.606 98.0524 307.578 98.0451 307.553 98.0313C307.506 97.9945 307.443 97.8944 307.458 97.8628C307.495 97.7724 307.565 97.6991 307.653 97.6575ZM306.321 98.5946C306.147 98.5525 306.142 98.4156 306.211 98.2682C306.279 98.1208 306.326 98.1945 306.411 98.184C306.495 98.1735 306.616 98.284 306.611 98.4156C306.608 98.4487 306.598 98.4807 306.581 98.5091C306.563 98.5374 306.54 98.5613 306.511 98.5788C306.483 98.5962 306.451 98.6068 306.418 98.6095C306.385 98.6123 306.352 98.6072 306.321 98.5946Z" fill="white"/>
<path d="M309.854 82.0112C310.159 81.8533 310.601 81.7374 310.78 81.6479C310.849 81.5684 310.929 81.4993 311.017 81.4426C310.975 81.3215 311.144 81.0741 311.28 81.0952C311.317 81.1028 311.349 81.1217 311.374 81.1491C311.398 81.1766 311.414 81.2112 311.417 81.2478C312.244 80.8846 312.523 80.7635 313.239 80.4792C313.955 80.1949 314.95 80.037 315.776 79.8001C316.303 79.9159 317.119 79.6105 318.172 79.7158C319.022 79.9949 319.909 80.1457 320.804 80.1633C321.136 80.1633 321.536 80.237 321.825 80.2528C322.86 80.3002 323.896 80.2206 324.91 80.0159C326.02 79.8595 327.119 79.6345 328.201 79.3421C328.532 79.2526 328.817 79.1894 329.133 79.1157C329.502 78.9988 329.849 78.8209 330.159 78.5892C330.623 78.4091 331.069 78.1852 331.491 77.9206C331.96 77.3555 332.49 76.8436 333.071 76.3939C333.739 75.6411 334.25 74.9514 334.829 74.3302C335.411 73.6586 336.146 73.1368 336.972 72.8087C337.309 72.893 337.972 72.6192 338.551 72.6087C338.946 72.6087 339.077 72.6929 339.551 72.6929C340.183 72.6556 340.81 72.564 341.425 72.4191C341.8 72.4476 342.177 72.43 342.547 72.3665C342.98 72.3008 343.409 72.2094 343.831 72.0927C344.737 71.8506 345.732 71.5347 346.848 71.2399C348.523 70.9159 350.14 70.3409 351.644 69.5342C352.867 68.6187 353.999 67.5873 355.024 66.4544C355.258 66.2658 355.482 66.0636 355.692 65.849C355.927 65.6446 356.139 65.4151 356.324 65.1646C356.714 64.8118 357.13 64.4749 357.551 64.1116C357.382 64.0274 357.214 63.9379 357.024 63.8379L356.808 63.7168L356.714 63.6642C356.519 63.8642 356.319 64.0537 356.124 64.238C355.361 64.9382 354.618 65.5489 353.924 66.1543C353.596 66.4331 353.293 66.7396 353.018 67.0703C352.798 67.3662 352.55 67.6396 352.276 67.8863C351.919 68.1798 351.546 68.4539 351.16 68.7076C351.054 68.7761 350.823 68.7971 350.675 68.8813C350.396 69.0393 350.233 69.2341 350.054 69.313C349.875 69.392 349.57 69.5394 349.364 69.6131C348.501 69.9237 347.601 70.0448 346.69 70.3238C345.879 70.5555 345.179 70.8134 344.442 71.0451C343.65 71.3106 342.838 71.5165 342.015 71.661C341.336 71.5821 340.494 71.7032 339.967 71.5136C339.253 71.5033 338.54 71.5562 337.835 71.6716C337.458 71.7396 337.086 71.8364 336.724 71.9611C336.369 72.0908 336.025 72.2511 335.698 72.4402C335.106 72.777 334.573 73.2072 334.118 73.7142C333.766 74.0936 333.475 74.5251 333.255 74.9935C332.766 75.58 332.214 76.1098 331.607 76.5729C331.081 76.9572 330.554 77.3047 329.875 77.7627L329.506 77.8469C328.74 78.3359 327.869 78.6354 326.964 78.7208C326.274 79.0104 325.163 79.0788 324.595 79.2736C324.373 79.2079 324.137 79.2079 323.915 79.2736C323.673 79.3263 323.426 79.4105 323.226 79.4473C321.399 79.4359 319.579 79.2365 317.793 78.8525C317.179 78.8633 316.567 78.9161 315.961 79.0104C315.561 79.0788 315.213 79.1209 314.876 79.1525C314.536 79.1833 314.2 79.2431 313.871 79.3315C312.959 79.6573 312.071 80.0443 311.212 80.4897C310.347 80.8033 309.501 81.169 308.68 81.5848C308.655 81.5957 308.632 81.6098 308.611 81.6269L308.527 81.8217C308.39 82.1165 308.311 82.4324 308.201 82.7324C308.269 82.7324 308.343 82.7324 308.369 82.7324C308.374 82.7479 308.374 82.7644 308.369 82.7798C308.627 82.6535 308.864 82.5271 309.085 82.4008C309.306 82.2744 309.591 82.1428 309.854 82.0112ZM308.869 82.1533C308.78 82.1533 308.701 82.1533 308.69 82.027C308.69 81.9888 308.699 81.9511 308.716 81.917C308.733 81.8829 308.758 81.8533 308.789 81.8307C308.82 81.8082 308.856 81.7932 308.893 81.787C308.931 81.7809 308.97 81.7837 309.006 81.7953C309.036 81.8069 309.063 81.8261 309.083 81.851C309.103 81.8759 309.117 81.9058 309.122 81.9375C309.164 82.1112 309.006 82.1533 308.869 82.1481V82.1533Z" fill="white"/>
<path d="M329.38 127.623C329.28 127.471 329.317 127.397 329.512 127.329C329.541 127.32 329.571 127.319 329.601 127.325C329.63 127.332 329.657 127.346 329.68 127.365C330.137 127.086 330.618 126.848 331.117 126.655C331.306 126.602 331.501 126.571 331.696 126.56C331.771 126.53 331.854 126.53 331.928 126.56H332.028C332.132 126.497 332.246 126.453 332.365 126.428H332.433C332.426 126.405 332.424 126.379 332.426 126.355C332.428 126.33 332.436 126.306 332.447 126.284C332.459 126.262 332.475 126.242 332.494 126.226C332.514 126.211 332.536 126.199 332.56 126.191C332.588 126.172 332.618 126.154 332.649 126.139C332.675 126.131 332.703 126.131 332.728 126.139C332.765 126.17 332.818 126.213 332.823 126.255C332.828 126.297 332.828 126.339 332.823 126.381C333.477 126.332 334.118 126.179 334.724 125.928C335.155 125.76 335.608 125.565 336.045 125.349C336.103 125.265 336.186 125.2 336.282 125.165C336.298 125.157 336.316 125.153 336.335 125.153C336.353 125.153 336.371 125.157 336.387 125.165C336.596 125.058 336.798 124.939 336.993 124.807C336.993 124.723 336.993 124.644 337.108 124.633C337.17 124.636 337.229 124.658 337.277 124.696C337.767 124.538 338.377 124.07 339.225 123.754C340.103 123.642 340.955 123.377 341.741 122.97L342.699 122.548C343.604 122.117 344.475 121.619 345.305 121.059C346.238 120.506 347.211 120.026 348.217 119.621C348.527 119.49 348.806 119.411 349.106 119.279C349.476 119.113 349.793 118.849 350.022 118.516C350.388 118.16 350.689 117.743 350.912 117.284C350.966 116.971 351.079 116.671 351.244 116.399C351.309 116.3 351.396 116.216 351.498 116.154C351.6 116.092 351.715 116.054 351.833 116.041C352.194 115.904 352.575 115.829 352.96 115.82C353.386 115.789 353.829 115.789 354.276 115.736C354.751 115.701 355.215 115.572 355.64 115.357C356.077 115.104 356.44 114.741 356.693 114.304C357.051 114.146 357.293 113.383 357.588 112.904C357.775 112.66 357.981 112.432 358.204 112.219C358.337 112.047 358.483 111.885 358.641 111.735C358.862 111.526 359.099 111.336 359.351 111.166C360.126 110.952 360.857 110.607 361.515 110.145C362.354 109.452 363.015 108.567 363.442 107.565C364.226 106.391 364.726 104.496 365.637 103.401C365.917 102.805 366.329 102.281 366.843 101.869C367.369 101.385 368.022 100.927 368.517 100.485C369.024 100.199 369.506 99.8711 369.959 99.5054C371.012 98.9789 372.218 98.6157 373.492 97.8523C374.374 97.2946 375.218 96.679 376.019 96.0097C376.016 95.9711 376.016 95.9324 376.019 95.8939V95.6359C376.017 95.4495 376.026 95.2632 376.045 95.0779C375.182 95.678 374.355 96.2782 373.624 96.9047C373.555 96.7257 373.097 97.0363 372.934 96.9889C370.923 98.1892 369.022 98.9684 367.459 99.995C366.458 100.658 366.343 101.048 365.706 101.716C365.378 102.062 365.084 102.437 364.826 102.838C364.703 102.963 364.587 103.095 364.479 103.233C364.371 103.468 364.279 103.711 364.205 103.959L363.874 104.644C363.468 105.47 363 106.255 362.626 107.081C362.356 107.743 362.002 108.368 361.573 108.939C361.038 109.521 360.377 109.971 359.641 110.256C359.276 110.33 358.923 110.451 358.588 110.614C358.24 110.777 357.919 110.972 357.63 111.103C357.102 111.631 356.685 112.26 356.403 112.951C356.199 113.477 355.889 113.956 355.492 114.357C354.887 114.883 353.523 114.725 352.728 115.052C352.284 115.063 351.844 115.148 351.428 115.304C351.072 115.453 350.759 115.688 350.517 115.989C350.131 116.573 349.78 117.18 349.464 117.805C349.377 117.867 349.283 117.92 349.185 117.963C348.547 118.559 347.762 118.977 346.911 119.174C346.171 119.56 345.453 119.985 344.758 120.448C344.331 120.448 343.916 120.932 343.584 121.18C341.987 122.003 340.3 122.639 338.556 123.075C338.309 123.196 337.988 123.354 337.682 123.517C337.888 123.464 337.972 123.643 337.882 123.865C337.83 123.98 337.688 123.933 337.598 123.838C337.562 123.808 337.537 123.767 337.528 123.721C337.52 123.674 337.528 123.627 337.551 123.586L337.024 123.886C336.493 124.175 335.944 124.432 335.382 124.654C335.419 124.749 335.424 124.87 335.345 124.912C335.266 124.954 335.197 125.017 335.129 124.991C335.079 124.957 335.033 124.916 334.992 124.87C334.671 125.028 334.36 125.186 334.034 125.312C334.113 125.349 334.134 125.46 334.134 125.56C334.134 125.66 334.134 125.728 334.008 125.739C333.969 125.739 333.932 125.73 333.898 125.713C333.863 125.696 333.834 125.671 333.811 125.64C333.789 125.609 333.774 125.573 333.768 125.536C333.761 125.498 333.764 125.459 333.776 125.423C333.438 125.549 333.083 125.627 332.723 125.655C332.455 125.655 332.197 125.691 331.891 125.707C331.834 125.742 331.769 125.762 331.702 125.765C331.671 125.762 331.642 125.751 331.617 125.733H331.354C331.113 125.774 330.874 125.826 330.638 125.891C330.408 125.965 330.184 126.058 329.97 126.17H329.933L329.996 126.197C330.037 126.221 330.072 126.255 330.099 126.295C330.125 126.335 330.142 126.381 330.149 126.428C330.152 126.459 330.148 126.49 330.139 126.519C330.13 126.548 330.116 126.575 330.096 126.599C330.076 126.622 330.052 126.641 330.025 126.656C329.998 126.67 329.969 126.678 329.938 126.681C329.875 126.681 329.696 126.528 329.706 126.476C329.726 126.386 329.766 126.301 329.822 126.228C329.615 126.346 329.418 126.48 329.233 126.628C329.312 126.697 329.233 126.944 329.154 126.997C329.11 127.023 329.06 127.037 329.009 127.037C328.958 127.037 328.908 127.023 328.864 126.997C328.848 126.989 328.835 126.976 328.827 126.96L328.69 127.092C328.532 127.239 328.39 127.397 328.253 127.544C328.547 127.635 328.835 127.742 329.117 127.866L329.38 127.623ZM330.859 126.044C330.969 126.049 331.077 126.07 331.181 126.107C331.181 126.17 331.217 126.376 331.154 126.434C331.106 126.459 331.051 126.473 330.996 126.473C330.941 126.473 330.887 126.459 330.838 126.434C330.723 126.334 330.591 126.044 330.859 126.028V126.044Z" fill="white"/>
<path d="M327.506 124.307C327.943 124.175 328.532 124.075 328.785 123.986C328.911 123.872 329.051 123.775 329.201 123.696C329.322 123.638 329.485 123.58 329.617 123.528C329.575 123.515 329.536 123.495 329.501 123.47C329.49 123.434 329.487 123.397 329.493 123.361C329.498 123.324 329.512 123.289 329.533 123.259C329.607 123.188 329.7 123.141 329.801 123.122C329.819 123.121 329.838 123.124 329.855 123.131C329.872 123.137 329.888 123.147 329.901 123.159C329.923 123.186 329.937 123.218 329.942 123.253C329.946 123.287 329.941 123.322 329.928 123.354C329.919 123.376 329.909 123.397 329.896 123.417L330.586 123.127C330.559 123.083 330.548 123.031 330.554 122.98C330.554 122.88 330.586 122.764 330.712 122.78C330.759 122.789 330.802 122.812 330.836 122.845C330.87 122.879 330.893 122.923 330.901 122.97C331.249 122.812 331.57 122.654 332.028 122.443C332.486 122.233 333.081 121.985 333.607 121.738C334.154 121.504 334.665 121.194 335.124 120.816C335.548 120.651 335.915 120.363 336.177 119.99C336.535 119.553 336.803 118.99 337.229 118.463C337.581 118.188 337.953 117.938 338.34 117.716C338.822 117.485 339.369 117.428 339.888 117.552C340.099 117.552 340.346 117.6 340.615 117.61C340.876 117.622 341.138 117.601 341.394 117.547C341.875 117.444 342.324 117.223 342.699 116.905C342.998 116.651 343.25 116.346 343.442 116.005C343.754 115.433 343.971 114.814 344.084 114.172C344.225 113.464 344.29 112.742 344.279 112.019C344.279 111.282 344.279 110.535 344.347 109.824C344.397 109.434 344.484 109.05 344.605 108.676C344.716 108.308 344.821 107.918 344.942 107.402C345.223 106.962 345.58 106.576 345.995 106.26C346.22 105.913 346.519 105.621 346.869 105.402C347.222 105.172 347.615 105.009 348.027 104.923C349.102 104.415 350.146 103.846 351.154 103.217C352.202 102.562 353.086 101.676 353.739 100.627C354.021 100.445 354.241 100.183 354.371 99.8739C354.56 99.5106 354.729 99.0894 354.897 98.7314C355.143 98.348 355.366 97.9507 355.566 97.5416C355.812 96.7788 356.004 95.9994 356.14 95.2094C356.562 94.3691 357.04 93.5583 357.572 92.7825C358.361 91.7796 359.382 90.983 360.546 90.4608C361.373 90.187 362.357 89.8448 363.4 89.45C364.442 89.0552 365.506 88.6024 366.527 88.1865C367.917 87.1757 369.954 86.0333 371.339 84.9593C372.033 84.6294 372.696 84.2364 373.318 83.7853C373.555 83.68 373.797 83.58 374.039 83.4852C373.924 83.1325 373.813 82.7798 373.692 82.4323C372.371 83.0272 371.123 83.5695 370.007 84.196C368.643 84.9541 368.491 85.4121 367.506 86.0965C367.274 86.2597 366.453 86.7545 365.958 87.0125C365.816 87.0862 365.516 87.1073 365.321 87.202C364.942 87.3863 364.721 87.6285 364.489 87.7285C364.258 87.8285 363.852 88.0022 363.584 88.1023C362.473 88.5129 361.283 88.6972 360.115 89.2763C359.134 89.7578 358.244 90.4042 357.482 91.1873C356.673 92.0185 356.034 93.0004 355.603 94.0776C355.034 94.8146 354.792 95.936 354.308 96.4729C353.997 97.2679 353.702 98.0997 353.355 98.8631C353.051 99.579 352.635 100.242 352.123 100.827C351.186 101.88 349.743 102.527 348.964 103.306C347.838 103.833 347.006 104.122 346.206 104.528L345.906 104.68L345.616 104.865C345.412 104.994 345.219 105.138 345.037 105.296C344.838 105.477 344.653 105.672 344.484 105.881C344.4 105.997 344.321 106.123 344.237 106.249C344.152 106.376 344.084 106.523 344.016 106.67C343.947 106.818 343.768 106.976 343.663 107.139C343.447 107.868 343.315 108.618 343.268 109.376C343.24 109.959 343.179 110.539 343.084 111.114C343.151 111.65 343.169 112.191 343.136 112.73C343.105 113.256 343.021 113.783 343.005 114.12C342.832 114.323 342.716 114.568 342.668 114.831C342.612 115.1 342.527 115.363 342.415 115.615C342.102 116.045 341.637 116.34 341.115 116.441C340.513 116.491 339.908 116.463 339.314 116.357C338.939 116.328 338.562 116.371 338.203 116.484C337.853 116.604 337.526 116.781 337.235 117.01C336.799 117.387 336.387 117.792 336.003 118.221C335.824 118.505 335.624 118.837 335.429 119.1C335.246 119.341 335.038 119.562 334.808 119.758C334.496 120.022 334.14 120.227 333.755 120.364C333.397 120.511 333.034 120.632 332.623 120.822C331.523 121.348 330.575 122.022 329.401 122.475C329.264 122.527 329.117 122.569 328.975 122.617C328.969 122.635 328.959 122.652 328.945 122.666C328.931 122.68 328.914 122.69 328.896 122.696C328.827 122.696 328.738 122.769 328.669 122.733C328.306 122.843 327.948 122.938 327.59 123.033C327.587 123.047 327.587 123.061 327.59 123.075C327.59 123.164 327.537 123.238 327.432 123.228C327.398 123.224 327.365 123.212 327.337 123.192C327.309 123.171 327.287 123.144 327.274 123.112C326.885 123.212 326.5 123.312 326.121 123.428C326.141 123.452 326.154 123.481 326.158 123.512C326.158 123.596 326.19 123.664 326.058 123.738C325.926 123.812 325.926 123.738 325.863 123.738C325.836 123.734 325.811 123.723 325.79 123.707C325.771 123.687 325.758 123.664 325.75 123.638C325.741 123.613 325.739 123.586 325.742 123.559L325.305 123.712C325.358 123.764 325.389 123.828 325.358 123.886C325.285 123.971 325.184 124.029 325.074 124.049C325.026 124.048 324.98 124.03 324.944 123.998C324.908 123.966 324.885 123.923 324.879 123.875C324.136 124.165 323.442 124.454 322.773 124.649H322.641L323.168 124.96C323.378 125.086 323.6 125.202 323.826 125.312C323.91 125.27 323.979 125.344 324.01 125.402H324.036C324.416 125.239 324.831 125.065 325.316 124.875C326.061 124.751 326.794 124.561 327.506 124.307ZM331.433 121.848C331.686 121.801 331.739 122.022 331.602 122.233C331.528 122.338 331.396 122.264 331.328 122.154C331.259 122.043 331.249 121.88 331.433 121.848ZM328.101 123.701C328.125 123.684 328.155 123.675 328.185 123.675C328.238 123.659 328.295 123.659 328.348 123.675C328.427 123.717 328.422 123.812 328.401 123.891C328.38 123.97 328.332 124.028 328.217 124.022C328.162 124.02 328.11 124 328.069 123.965C328.05 123.922 328.043 123.875 328.049 123.829C328.054 123.782 328.072 123.738 328.101 123.701ZM327.006 123.875C327.064 123.843 327.174 123.822 327.206 123.875C327.348 124.022 327.337 124.117 327.158 124.27C327.111 124.27 326.985 124.27 326.953 124.233C326.921 124.196 326.853 123.954 327.006 123.875ZM326.506 124.265C326.525 124.3 326.535 124.34 326.535 124.38C326.535 124.421 326.525 124.461 326.506 124.496C326.482 124.522 326.453 124.543 326.421 124.557C326.389 124.572 326.354 124.579 326.319 124.579C326.283 124.579 326.249 124.572 326.216 124.557C326.184 124.543 326.155 124.522 326.132 124.496C326.108 124.452 326.092 124.404 326.084 124.354C326.211 124.154 326.379 124.128 326.506 124.265ZM323.747 125.039C323.547 125.149 323.31 125.096 323.257 124.944C323.242 124.878 323.251 124.809 323.282 124.75C323.313 124.69 323.364 124.643 323.426 124.617C323.461 124.609 323.497 124.61 323.532 124.619C323.567 124.628 323.599 124.646 323.626 124.67C323.678 124.717 323.815 124.86 323.815 124.928C323.815 124.951 323.808 124.973 323.796 124.992C323.784 125.012 323.767 125.028 323.747 125.039ZM324.5 124.728C324.46 124.731 324.42 124.725 324.383 124.71C324.346 124.695 324.313 124.672 324.286 124.643C324.259 124.614 324.239 124.578 324.228 124.54C324.217 124.502 324.214 124.462 324.221 124.423C324.229 124.392 324.246 124.364 324.269 124.341C324.292 124.319 324.321 124.304 324.352 124.296C324.542 124.238 324.605 124.391 324.61 124.538C324.616 124.686 324.621 124.707 324.51 124.728H324.5Z" fill="white"/>
<path d="M314.624 116.889C314.679 116.842 314.737 116.798 314.797 116.757L314.971 116.631C314.939 116.547 314.939 116.431 315.055 116.394C315.088 116.379 315.124 116.371 315.161 116.371C315.197 116.371 315.233 116.379 315.266 116.394L315.676 116.052C316.084 115.774 316.476 115.474 316.85 115.152C317.098 115.152 317.34 114.888 317.703 114.688C317.703 114.662 317.703 114.63 317.703 114.615C317.698 114.578 317.704 114.54 317.721 114.507C317.738 114.474 317.765 114.448 317.798 114.43C317.856 114.408 317.919 114.403 317.98 114.417C318.041 114.43 318.096 114.46 318.14 114.504C318.14 114.504 318.14 114.504 318.14 114.536C318.331 114.553 318.522 114.54 318.709 114.499C318.819 114.467 318.93 114.441 319.062 114.394C319.075 114.372 319.093 114.354 319.114 114.341C319.142 114.32 319.175 114.305 319.21 114.299C319.245 114.292 319.28 114.294 319.314 114.304L319.541 114.209C319.761 114.125 319.967 114.008 320.151 113.862C320.351 113.692 320.493 113.463 320.557 113.209C320.604 112.998 320.593 112.778 320.525 112.572C320.415 112.246 320.251 112.046 320.188 111.856C320.106 111.603 320.106 111.33 320.188 111.077C320.279 110.792 320.442 110.536 320.662 110.335C320.941 110.092 321.231 110.098 321.573 109.771C321.878 109.745 322.057 109.645 322.31 109.645C322.618 109.4 322.996 109.26 323.389 109.245C323.928 109.02 324.399 108.657 324.753 108.192C324.843 108.071 324.916 107.938 324.968 107.797C325.033 107.653 325.068 107.497 325.068 107.339C325.068 107.17 325.021 107.004 324.932 106.86C324.85 106.736 324.76 106.619 324.663 106.507C324.705 106.26 324.368 105.949 324.052 105.681C323.958 105.586 323.894 105.517 323.826 105.439C323.736 105.338 323.624 105.259 323.5 105.207C323.304 105.136 323.096 105.107 322.889 105.123C322.643 105.137 322.403 105.202 322.183 105.312C321.713 105.349 321.262 105.513 320.878 105.786C320.37 106.073 319.842 106.323 319.298 106.534C318.503 106.649 317.535 107.018 316.698 107.06C316.103 107.423 315.118 107.586 314.387 107.844C314.148 107.856 313.911 107.884 313.676 107.929C313.688 107.959 313.691 107.993 313.685 108.025C313.68 108.057 313.666 108.088 313.644 108.113C313.624 108.132 313.6 108.147 313.574 108.156C313.547 108.165 313.519 108.169 313.492 108.166C313.464 108.165 313.437 108.16 313.412 108.149C313.386 108.138 313.363 108.122 313.344 108.102C313.32 108.077 313.302 108.046 313.292 108.013C312.976 108.013 312.644 107.971 312.286 107.966C311.859 107.953 311.433 108.025 311.033 108.176C310.375 108.464 309.784 108.887 309.301 109.419C309.306 109.437 309.306 109.457 309.301 109.476C309.312 109.516 309.312 109.558 309.301 109.598C309.349 109.709 309.39 109.823 309.422 109.94C309.422 109.94 309.464 110.05 309.517 110.171L309.812 109.924C309.727 109.787 309.843 109.587 310.059 109.529C310.082 109.522 310.105 109.521 310.128 109.526C310.151 109.53 310.173 109.541 310.191 109.555C310.208 109.57 310.22 109.591 310.222 109.613L310.575 109.329C310.576 109.31 310.576 109.29 310.575 109.271C310.608 109.253 310.644 109.238 310.68 109.229L310.98 108.987C311.038 109.15 311.312 108.987 311.423 109.103C311.692 109.003 311.971 108.93 312.254 108.887C312.257 108.845 312.269 108.805 312.292 108.77C312.314 108.735 312.344 108.707 312.381 108.687C312.409 108.671 312.441 108.662 312.473 108.662C312.505 108.662 312.537 108.671 312.565 108.687C312.591 108.699 312.613 108.718 312.627 108.743C312.642 108.767 312.65 108.795 312.649 108.824C313.418 108.76 314.144 108.824 314.829 108.76C315.513 108.697 315.64 108.413 316.14 108.234C316.256 108.187 316.666 108.066 316.903 108.002C316.972 108.002 317.108 108.034 317.203 108.002C317.387 107.955 317.493 107.823 317.598 107.797L318.024 107.692C318.559 107.628 319.087 107.521 319.604 107.371C320.009 107.2 320.398 106.993 320.767 106.755L321.357 106.407C321.564 106.279 321.778 106.163 321.999 106.06C322.189 106.06 322.383 106.06 322.557 106.06C322.636 106.052 322.716 106.064 322.79 106.094C322.863 106.124 322.928 106.172 322.978 106.233C323.105 106.278 323.225 106.338 323.336 106.412C323.449 106.489 323.555 106.575 323.652 106.67C323.805 106.828 324.147 107.281 324.179 107.276V107.281C324.331 107.281 324.284 107.281 324.179 107.318C324.18 107.328 324.18 107.339 324.179 107.35C324.154 107.445 324.117 107.537 324.068 107.623C323.963 107.823 323.794 108.039 323.673 108.266C323.314 108.485 322.908 108.618 322.489 108.655C322.053 108.694 321.63 108.823 321.246 109.034H320.983C320.459 109.408 319.982 109.842 319.562 110.329C319.442 110.639 319.362 110.963 319.325 111.293C319.312 111.458 319.321 111.624 319.351 111.788C319.377 111.918 319.425 112.042 319.493 112.156C319.404 112.472 319.735 112.683 319.82 112.819C319.835 112.908 319.824 112.998 319.788 113.081C319.753 113.163 319.694 113.233 319.62 113.283C319.425 113.427 319.203 113.529 318.967 113.583C318.487 113.721 317.998 113.827 317.503 113.899C317.218 114.056 316.944 114.231 316.682 114.425C316.74 114.499 316.682 114.609 316.635 114.694C316.587 114.778 316.524 114.825 316.429 114.773C316.405 114.761 316.384 114.744 316.368 114.723C316.351 114.702 316.34 114.678 316.335 114.652C316.096 114.763 315.865 114.892 315.645 115.036C315.47 115.166 315.308 115.312 315.161 115.473C315.158 115.495 315.151 115.516 315.141 115.535C315.13 115.554 315.115 115.57 315.097 115.583H315.034C314.881 115.749 314.714 115.901 314.534 116.036C314.532 116.055 314.527 116.073 314.518 116.089C314.509 116.105 314.496 116.12 314.481 116.131C314.46 116.148 314.436 116.161 314.41 116.168C314.383 116.175 314.356 116.177 314.329 116.173C314.09 116.315 313.842 116.442 313.586 116.552L313.671 116.657C313.707 116.694 313.739 116.742 313.776 116.778C313.763 116.74 313.76 116.699 313.768 116.66C313.775 116.62 313.792 116.583 313.818 116.552C313.86 116.494 314.018 116.52 314.076 116.578C314.116 116.613 314.146 116.659 314.161 116.711C314.176 116.762 314.175 116.817 314.16 116.868C314.139 116.904 314.105 116.931 314.066 116.944C314.026 116.956 313.982 116.954 313.944 116.936L314.176 117.205C314.323 117.136 314.481 117.084 314.555 117.036C314.571 116.984 314.594 116.935 314.624 116.889ZM311.075 108.634C311.023 108.703 311.017 108.776 310.87 108.766C310.722 108.755 310.754 108.713 310.712 108.66C310.69 108.641 310.673 108.615 310.665 108.587C310.66 108.552 310.666 108.517 310.68 108.485C310.694 108.453 310.717 108.426 310.746 108.407C310.775 108.387 310.809 108.376 310.844 108.374C310.878 108.373 310.913 108.38 310.944 108.397C310.975 108.394 311.007 108.394 311.038 108.397C311.038 108.397 311.091 108.434 311.091 108.455C311.109 108.515 311.104 108.579 311.075 108.634ZM314.934 108.145C314.839 108.176 314.671 108.187 314.608 108.108C314.591 108.09 314.58 108.068 314.576 108.044C314.534 107.86 314.755 107.755 314.903 107.834C315.05 107.913 315.097 108.081 314.934 108.145ZM315.74 115.178C315.808 115.178 315.919 115.178 315.934 115.236C316.013 115.431 315.966 115.515 315.74 115.583C315.697 115.583 315.576 115.531 315.561 115.473C315.547 115.442 315.541 115.408 315.543 115.374C315.546 115.34 315.556 115.308 315.573 115.279C315.591 115.25 315.615 115.226 315.644 115.208C315.673 115.191 315.706 115.18 315.74 115.178Z" fill="white"/>
<path d="M320.346 67.8284C320.525 67.9452 320.718 68.0389 320.92 68.1074C320.998 68.0793 321.079 68.0616 321.162 68.0548C321.225 68.0548 321.32 68.0548 321.388 68.0548C321.785 68.0447 322.173 67.9342 322.515 67.7337C322.967 67.5266 323.356 67.2032 323.642 66.7966C323.942 66.7071 324.105 66.2333 324.505 65.8595C324.943 65.676 325.328 65.3865 325.626 65.0171C325.747 64.9013 325.905 64.775 326.011 64.6749C326.372 64.3046 326.715 63.9163 327.037 63.5115C327.428 63.0955 327.904 62.7687 328.432 62.5533C328.759 62.4375 329.017 62.5165 329.401 62.3796C329.609 62.4344 329.81 62.5121 330.001 62.6112C330.352 62.5769 330.703 62.6787 330.98 62.8955C331.459 63.0236 331.949 63.1013 332.444 63.1272C332.927 63.1487 333.409 63.1997 333.886 63.2798C334.018 63.4746 334.413 63.4746 334.739 63.5641C334.95 63.6273 335.003 63.7378 335.266 63.7905C335.418 63.8051 335.571 63.8051 335.724 63.7905C335.918 63.7704 336.11 63.7334 336.298 63.6799C336.725 63.7411 337.161 63.7032 337.572 63.5694C338.098 63.4128 338.635 63.2914 339.177 63.2061C340.084 63.1909 340.982 63.0273 341.836 62.7218C342.522 62.2621 343.159 61.7329 343.736 61.1424C344.012 60.978 344.254 60.7617 344.447 60.5054C344.647 60.3738 344.863 60.2474 345.084 60.1053C344.7 60.0913 344.317 60.0562 343.937 60C343.605 60.2211 343.268 60.4159 342.973 60.6317C342.484 60.9687 342.473 61.2214 342.104 61.532C341.91 61.6754 341.704 61.8022 341.489 61.911C341.431 61.9374 341.299 61.911 341.22 61.9426C341.141 61.9742 340.983 62.1269 340.883 62.1585C340.783 62.1901 340.615 62.2322 340.504 62.2532C340.03 62.3427 339.541 62.2532 339.056 62.3638C338.198 62.5165 337.577 62.8481 336.608 63.0061C336.256 62.906 335.819 62.964 335.555 62.7534L333.518 62.3849C332.943 62.2582 332.35 62.2457 331.77 62.348C331.377 62.2603 331 62.1111 330.654 61.9058C330.448 61.8008 330.233 61.7145 330.012 61.6478C329.522 61.8058 329.027 61.9532 328.548 62.1322C328.467 62.1587 328.387 62.1922 328.311 62.2322C328.14 62.3113 327.964 62.3798 327.785 62.4375L327.285 62.6376C327.035 62.7387 326.791 62.8529 326.553 62.9797V63.0113C326.29 63.0113 326.174 63.4009 326.058 63.601C325.721 63.9484 325.321 64.3064 324.926 64.6539C324.585 64.9672 324.217 65.2491 323.826 65.4962C323.663 65.7015 323.426 66.0227 323.299 66.1911C323.09 66.4243 322.843 66.6202 322.568 66.7702C322.267 67.0741 321.878 67.275 321.457 67.3441C321.27 67.3404 321.086 67.2962 320.918 67.2144C320.75 67.1325 320.601 67.0151 320.483 66.8703C320.42 66.7966 320.357 66.7229 320.304 66.6492L320.067 66.8176L319.867 66.9808C319.939 66.9932 320.004 67.0305 320.051 67.0861C320.104 67.144 320.12 67.2914 320.051 67.3283C320.013 67.3516 319.969 67.3639 319.925 67.3639C319.88 67.3639 319.837 67.3516 319.798 67.3283C319.943 67.5325 320.13 67.7031 320.346 67.8284Z" fill="white"/>
<path d="M367.864 115.831C367.884 115.856 367.898 115.886 367.905 115.918C367.911 115.951 367.91 115.984 367.901 116.015C367.868 116.088 367.81 116.146 367.738 116.178C367.706 116.178 367.58 116.126 367.559 116.073C367.533 115.995 367.524 115.912 367.532 115.831C367.188 115.908 366.851 116.017 366.527 116.157C366.406 116.189 366 116.263 365.779 116.32C365.711 116.32 365.579 116.263 365.484 116.289C365.305 116.331 365.211 116.468 365.111 116.494C365.011 116.52 364.821 116.568 364.7 116.594C364.463 116.673 364.174 116.694 363.931 116.778C363.8 116.821 363.668 116.857 363.537 116.91C363.414 116.969 363.296 117.038 363.184 117.115C362.888 117.337 362.63 117.605 362.42 117.91C362.469 117.951 362.507 118.004 362.531 118.063C362.584 118.184 362.447 118.253 362.32 118.247C362.284 118.255 362.246 118.255 362.21 118.247C362.01 118.579 361.82 118.926 361.578 119.3C361.591 119.341 361.588 119.386 361.568 119.425C361.548 119.463 361.514 119.492 361.473 119.505C361.434 119.52 361.391 119.52 361.352 119.505C361.179 119.701 360.952 119.84 360.699 119.906C360.172 120.337 359.609 120.801 359.12 121.206C358.851 121.443 358.593 121.659 358.404 121.885C358.418 121.929 358.418 121.978 358.404 122.022H358.277C358.17 122.146 358.075 122.28 357.993 122.422C357.709 122.578 357.39 122.661 357.066 122.664C357.032 122.691 356.993 122.711 356.951 122.722C356.921 122.729 356.889 122.728 356.86 122.718C356.831 122.707 356.806 122.689 356.787 122.664C356.437 122.625 356.084 122.625 355.734 122.664L355.508 122.569C354.934 122.675 354.329 122.838 353.881 122.87C353.676 123.006 353.418 123.154 353.186 123.328C352.966 123.472 352.785 123.669 352.66 123.901C352.587 123.919 352.521 123.957 352.468 124.01C352.415 124.063 352.378 124.129 352.36 124.201C352.312 124.347 352.278 124.497 352.26 124.649C352.051 125.104 351.78 125.527 351.454 125.907C351.224 126.152 350.918 126.313 350.586 126.365C350.512 126.434 350.449 126.449 350.391 126.407C350.28 126.481 350.133 126.571 349.991 126.65V126.681C350.004 126.706 350.01 126.734 350.01 126.763C350.01 126.791 350.004 126.819 349.991 126.844C349.949 126.892 349.854 126.955 349.817 126.939C349.767 126.907 349.722 126.866 349.685 126.818C349.397 126.916 349.101 126.991 348.801 127.044C348.595 127.117 348.394 127.205 348.201 127.308C348.253 127.365 348.259 127.444 348.201 127.581C348.159 127.581 348.069 127.687 348.011 127.666C347.967 127.655 347.927 127.631 347.897 127.597C347.867 127.563 347.848 127.521 347.843 127.476C347.694 127.548 347.541 127.611 347.385 127.666C347.269 127.702 347.153 127.729 347.037 127.76V127.787C346.953 127.902 346.943 127.871 346.879 127.892C346.816 127.913 346.822 127.892 346.795 127.892C346.768 127.882 346.743 127.868 346.722 127.85C346.687 127.858 346.654 127.869 346.621 127.881C346.337 127.978 346.077 128.134 345.858 128.339C345.665 128.533 345.513 128.764 345.411 129.019L345.505 129.082C345.7 129.192 345.432 129.498 345.258 129.487C345.258 129.561 345.221 129.635 345.211 129.708L346.158 129.571C346.156 129.554 346.156 129.536 346.158 129.519C346.101 129.528 346.042 129.517 345.991 129.49C345.939 129.462 345.898 129.419 345.874 129.366C345.864 129.336 345.862 129.303 345.869 129.272C345.875 129.24 345.89 129.211 345.911 129.187C346.037 129.034 346.174 129.129 346.263 129.245C346.449 129.07 346.648 128.91 346.858 128.766C347 128.713 347.146 128.676 347.295 128.655C347.295 128.655 347.364 128.529 347.416 128.503C347.468 128.475 347.523 128.454 347.58 128.439L348.527 128.097C348.775 128.008 349.054 127.945 349.333 127.845C349.312 127.82 349.298 127.791 349.291 127.76C349.291 127.634 349.343 127.487 349.48 127.497C349.617 127.508 349.617 127.608 349.664 127.697C349.728 127.66 349.796 127.629 349.854 127.587C350.101 127.639 350.38 127.423 350.723 127.213C350.723 127.171 350.723 127.118 350.723 127.055C350.723 127.055 350.723 126.997 350.77 126.986C350.912 126.939 351.065 126.907 351.112 127.039C351.565 127.008 351.897 126.771 352.312 126.181C352.418 126.023 352.549 125.849 352.623 125.718C352.769 125.469 352.891 125.206 352.986 124.933C352.983 124.909 352.983 124.884 352.986 124.86C352.997 124.829 353.017 124.803 353.044 124.786C353.1 124.652 353.171 124.525 353.255 124.407C353.604 123.977 354.102 123.695 354.65 123.617C354.738 123.609 354.826 123.609 354.913 123.617V123.58C354.916 123.519 354.937 123.46 354.972 123.409C355.008 123.359 355.056 123.32 355.113 123.296C355.219 123.296 355.429 123.454 355.355 123.575L355.329 123.638C355.461 123.639 355.591 123.614 355.713 123.564C355.884 123.62 356.061 123.652 356.24 123.659C356.2 123.621 356.173 123.571 356.161 123.517C356.156 123.415 356.188 123.314 356.25 123.233C356.262 123.218 356.277 123.206 356.295 123.199C356.312 123.191 356.332 123.189 356.35 123.191C356.385 123.195 356.418 123.209 356.446 123.23C356.473 123.251 356.495 123.28 356.508 123.312C356.54 123.385 356.556 123.533 356.508 123.591C356.461 123.633 356.403 123.661 356.34 123.67L356.487 123.696C356.841 123.513 357.237 123.425 357.635 123.443C357.89 123.348 358.134 123.225 358.361 123.075C358.575 122.931 358.778 122.775 358.972 122.606C359.33 122.259 359.651 121.927 360.025 121.553C360.096 121.558 360.167 121.548 360.234 121.525C360.301 121.501 360.362 121.464 360.415 121.417C360.539 121.3 360.672 121.194 360.815 121.101C361.004 120.98 361.125 121.011 361.341 120.848C361.587 120.609 361.777 120.32 361.899 120C362.152 119.821 362.361 119.587 362.51 119.316C362.442 119.248 362.373 119.179 362.452 119.084C362.484 119.053 362.524 119.03 362.567 119.019C362.611 119.008 362.656 119.009 362.699 119.021C362.942 118.583 363.283 118.206 363.694 117.921C364.037 117.805 364.395 117.637 364.747 117.531L365.026 117.447L365.311 117.394C365.484 117.357 365.66 117.337 365.837 117.336C366.364 117 367.248 116.994 367.943 116.9L368.138 116.942L368.501 116.473L368.417 116.441C368.335 116.39 368.277 116.309 368.254 116.215C368.254 116.136 368.364 116.047 368.433 116.01C368.203 115.938 367.966 115.887 367.727 115.857L367.864 115.831ZM346.385 128.566C346.36 128.582 346.333 128.593 346.304 128.598C346.276 128.602 346.247 128.601 346.218 128.595C346.19 128.588 346.164 128.575 346.141 128.557C346.118 128.54 346.099 128.517 346.084 128.492C346.084 128.492 346.058 128.392 346.053 128.382C345.953 128.145 346.511 128.06 346.527 128.271C346.512 128.382 346.462 128.485 346.385 128.566ZM347.511 128.355C347.469 128.331 347.43 128.301 347.395 128.266C347.364 128.024 347.459 127.918 347.669 127.955C347.732 127.955 347.827 128.076 347.817 128.134C347.804 128.2 347.766 128.258 347.711 128.297C347.656 128.335 347.588 128.35 347.522 128.339L347.511 128.355ZM351.754 126.486C351.712 126.56 351.597 126.718 351.496 126.713C351.461 126.709 351.428 126.694 351.402 126.671C351.378 126.654 351.359 126.634 351.344 126.61C351.329 126.585 351.318 126.559 351.314 126.531C351.31 126.503 351.311 126.474 351.318 126.446C351.325 126.419 351.337 126.393 351.354 126.37C351.444 126.234 351.565 126.265 351.697 126.334L351.749 126.37C351.762 126.386 351.771 126.406 351.774 126.426C351.776 126.447 351.773 126.467 351.765 126.486H351.754ZM354.05 123.675C354.044 123.702 354.034 123.727 354.018 123.75C354.003 123.772 353.983 123.792 353.96 123.807C353.928 123.827 353.891 123.839 353.853 123.84C353.816 123.842 353.778 123.833 353.744 123.816C353.71 123.798 353.682 123.772 353.662 123.74C353.642 123.708 353.63 123.671 353.629 123.633C353.629 123.438 353.934 123.37 354.029 123.517C354.044 123.54 354.055 123.566 354.061 123.593C354.066 123.62 354.066 123.648 354.06 123.675H354.05ZM358.204 123.149C358.176 123.184 358.14 123.211 358.098 123.228C358.056 123.245 358.011 123.25 357.967 123.243C357.928 123.243 357.892 123.229 357.863 123.203C357.834 123.178 357.815 123.144 357.809 123.106C357.803 123.075 357.803 123.043 357.809 123.012C357.813 122.962 357.834 122.916 357.867 122.879C357.9 122.842 357.944 122.816 357.993 122.806C358.156 122.754 358.304 123.022 358.214 123.143L358.204 123.149ZM360.109 121.08C360.083 121.107 360.049 121.127 360.012 121.137C359.974 121.147 359.935 121.146 359.898 121.135C359.862 121.124 359.828 121.104 359.802 121.075C359.776 121.047 359.759 121.012 359.751 120.974C359.699 120.785 359.999 120.658 360.12 120.78C360.138 120.8 360.151 120.825 360.159 120.851C360.167 120.877 360.17 120.905 360.167 120.932C360.17 120.984 360.153 121.035 360.12 121.074L360.109 121.08ZM361.352 120.785C361.293 120.795 361.232 120.795 361.173 120.785C361.104 120.785 361.041 120.722 361.015 120.658C361.004 120.597 361.012 120.535 361.036 120.478C361.06 120.421 361.1 120.372 361.152 120.337C361.252 120.295 361.494 120.427 361.452 120.564C361.41 120.701 361.436 120.748 361.362 120.78L361.352 120.785ZM364.484 117.194C364.484 117.31 364.163 117.431 364.063 117.336C364.031 117.303 364.013 117.259 364.013 117.213C364.013 117.167 364.031 117.122 364.063 117.089C364.1 117.026 364.152 116.905 364.242 116.915C364.331 116.926 364.505 117.079 364.495 117.184L364.484 117.194ZM365.606 117.194C365.584 117.226 365.555 117.251 365.52 117.267C365.486 117.283 365.448 117.289 365.41 117.286C365.373 117.282 365.336 117.268 365.306 117.245C365.275 117.223 365.252 117.192 365.237 117.157C365.148 116.984 365.416 116.805 365.563 116.9C365.606 116.935 365.632 116.986 365.637 117.042C365.644 117.066 365.646 117.092 365.643 117.118C365.639 117.143 365.63 117.167 365.616 117.189L365.606 117.194ZM366.769 116.668C366.714 116.692 366.655 116.708 366.595 116.715C366.559 116.718 366.522 116.71 366.491 116.692C366.459 116.675 366.433 116.648 366.416 116.615C366.393 116.558 366.388 116.495 366.401 116.435C366.414 116.375 366.445 116.32 366.49 116.278C366.579 116.22 366.843 116.278 366.822 116.447C366.801 116.615 366.843 116.615 366.78 116.657L366.769 116.668Z" fill="white"/>
<path d="M306.032 95.5517C306.055 95.5084 306.085 95.4692 306.121 95.4359C306.342 95.4043 306.447 95.4885 306.432 95.6675C306.7 95.499 306.982 95.3529 307.274 95.2305C307.91 94.9649 308.565 94.745 309.232 94.5725C309.396 94.5251 309.559 94.4882 309.717 94.4514C309.675 94.3303 309.717 94.0987 309.854 94.0723C309.898 94.0638 309.944 94.072 309.983 94.0953C310.022 94.1186 310.051 94.1554 310.064 94.1987C310.088 94.2461 310.107 94.2954 310.122 94.3461C310.491 94.2619 310.859 94.1829 311.233 94.1144L313.592 93.7143C314.897 93.4985 315.945 93.409 317.114 93.1879C317.335 93.1458 317.582 93.0668 317.803 93.0405C317.924 93.0405 318.035 93.0668 318.14 93.0405C318.245 93.0141 318.403 92.9826 318.54 92.9562C319.067 92.8457 319.709 92.7614 320.283 92.5877C320.546 92.5087 320.809 92.3403 321.094 92.2297C321.415 92.0966 321.716 91.9194 321.989 91.7033C322.278 91.4835 322.54 91.2289 322.768 90.9452C323.215 90.4187 323.936 89.5711 323.484 89.1499C323.358 89.3439 323.252 89.5503 323.168 89.7659C322.879 90.2296 322.538 90.6588 322.152 91.0452C321.996 91.2265 321.819 91.389 321.625 91.5295C321.254 91.7902 320.841 91.986 320.404 92.1086C319.846 92.2666 319.046 92.235 318.609 92.3455C318.456 92.3925 318.299 92.426 318.14 92.4456C318.061 92.4456 317.987 92.4087 317.914 92.4456C317.54 92.4982 317.14 92.5877 316.756 92.6509C315.324 92.8878 313.434 93.1773 312.123 93.2932C311.654 93.3458 311.175 93.3669 310.701 93.4406C310.391 93.4932 310.091 93.5933 309.785 93.6564C309.364 93.7407 308.959 93.7933 308.559 93.8986C308.46 93.9235 308.36 93.9428 308.258 93.9565C307.465 94.1371 306.703 94.437 306 94.8462C306 94.9778 306 95.1094 306 95.2411C306 95.478 306 95.7201 306.042 95.9623C306.089 95.9092 306.14 95.8599 306.195 95.8149C306.142 95.7961 306.097 95.7598 306.067 95.712C306.037 95.6641 306.025 95.6076 306.032 95.5517ZM307.974 94.304C308.032 94.2513 308.19 94.304 308.253 94.304C308.316 94.304 308.385 94.6251 308.327 94.6356C308.218 94.6618 308.104 94.6618 307.995 94.6356C307.879 94.5988 307.922 94.3882 307.953 94.304H307.974ZM306.827 94.7515C306.827 94.7515 306.879 94.7883 306.9 94.8146C306.909 94.8245 306.916 94.8361 306.921 94.8488C306.925 94.8615 306.927 94.8749 306.927 94.8883C306.927 94.9357 306.895 94.9989 306.853 95.0199C306.811 95.041 306.748 95.1305 306.611 95.0673C306.474 95.0042 306.521 94.9673 306.505 94.9041C306.495 94.877 306.495 94.8471 306.505 94.8199C306.516 94.7882 306.534 94.7598 306.559 94.7375C306.583 94.7152 306.614 94.6999 306.646 94.6929C306.679 94.686 306.713 94.6877 306.744 94.698C306.776 94.7083 306.804 94.7267 306.827 94.7515Z" fill="white"/>
<path d="M371.818 87.6495C371.149 88.033 370.454 88.369 369.738 88.6551C368.912 88.9867 368.048 89.2868 367.195 89.5816C365.785 90.066 364.637 90.3818 363.394 90.8872L362.663 91.2084C362.536 91.261 362.415 91.2715 362.299 91.3189C362.184 91.3663 362.031 91.4558 361.889 91.5295C361.282 91.8199 360.724 92.2036 360.236 92.6667C359.499 93.5485 358.88 94.5217 358.393 95.5622C358.061 96.3045 357.53 97.41 357.867 97.668C357.958 97.4198 358.035 97.1667 358.098 96.9099C358.323 96.3061 358.581 95.7155 358.872 95.141C358.995 94.8709 359.132 94.6074 359.283 94.3513C359.563 93.8797 359.889 93.437 360.257 93.0299C360.75 92.5843 361.307 92.2152 361.91 91.9349C362.06 91.8437 362.217 91.7628 362.378 91.6927C362.457 91.6611 362.542 91.6927 362.615 91.6295C363 91.4663 363.426 91.2821 363.831 91.1031C365.358 90.5187 367.417 89.9028 368.833 89.4342C369.359 89.271 369.854 89.1236 370.354 88.9078C370.681 88.7761 370.996 88.6024 371.312 88.4497C371.755 88.2444 372.17 88.0444 372.565 87.8127C372.665 87.7548 372.771 87.7074 372.865 87.6548C373.602 87.2494 374.266 86.7914 374.971 86.3229C374.971 86.286 374.971 86.2439 374.971 86.207C374.924 86.0438 374.829 85.6806 374.824 85.6806C374.513 85.9017 374.187 86.1175 373.855 86.3386C373.144 86.8335 372.492 87.2757 371.818 87.6495Z" fill="white"/>
<path d="M330.501 105.754C330.165 105.815 329.865 106.004 329.664 106.281C328.836 107.099 328.284 108.156 328.085 109.303C327.922 111.066 329.664 112.435 331.244 111.361C332.058 110.721 332.617 109.812 332.823 108.797C332.924 108.099 333.079 107.409 333.286 106.734C333.444 106.328 333.618 106.149 333.613 105.828C334.071 105.265 333.755 104.565 332.855 105.012C332.273 105.394 331.616 105.647 330.928 105.754C330.786 105.745 330.643 105.745 330.501 105.754ZM331.381 106.06C331.907 105.954 332.27 105.707 332.749 105.565C333.228 105.423 333.123 105.481 333.007 105.739C332.644 106.153 332.397 106.656 332.291 107.197C332.029 108.141 331.676 109.058 331.238 109.934C331.185 109.927 331.13 109.931 331.078 109.948C331.026 109.964 330.978 109.992 330.938 110.029C330.873 110.088 330.8 110.139 330.723 110.182C330.038 110.103 329.38 109.924 329.117 109.182C329.102 109.133 329.077 109.087 329.044 109.048C329.011 109.009 328.971 108.977 328.925 108.954C328.879 108.932 328.829 108.919 328.777 108.916C328.726 108.913 328.675 108.921 328.627 108.939C328.762 108.291 329.031 107.677 329.417 107.139C329.586 106.829 329.8 106.547 330.054 106.302C330.544 105.965 330.923 106.155 331.381 106.06Z" fill="white"/>
<path d="M328.485 72.9509C327.959 73.2088 327.485 73.351 327.432 74.0038C327.434 74.1234 327.475 74.2391 327.548 74.3339C327.621 74.4287 327.722 74.4975 327.837 74.5302H327.895C327.976 74.552 328.06 74.5523 328.141 74.531C328.221 74.5098 328.294 74.4677 328.353 74.4091C328.453 74.3196 328.617 74.2723 328.727 74.1933L328.901 74.0406C328.996 74.0262 329.088 73.9978 329.175 73.9564C329.373 73.855 329.539 73.7 329.654 73.5089C329.848 73.3417 329.995 73.126 330.079 72.8838C330.163 72.6415 330.182 72.3813 330.133 72.1296C329.87 70.9609 328.485 70.8661 327.701 71.54C327.645 71.6012 327.61 71.6787 327.601 71.7611C327.593 71.8435 327.61 71.9265 327.652 71.9981C327.694 72.0698 327.757 72.1262 327.833 72.1593C327.909 72.1924 327.994 72.2005 328.074 72.1822C328.365 72.0828 328.676 72.0557 328.98 72.1033C329.026 72.1493 329.057 72.2079 329.069 72.2717C329.117 72.6034 328.685 72.8561 328.485 72.9509Z" fill="white"/>
<path d="M338.593 94.9778C338.764 95.0798 338.96 95.1337 339.159 95.1337C339.358 95.1337 339.554 95.0798 339.725 94.9778C339.93 94.9252 340.135 94.8567 340.314 94.7936C341.146 94.5093 341.794 94.0776 342.584 94.2671C342.699 94.3724 342.726 94.5882 342.857 94.683C343.231 94.9515 343.463 95.3937 343.91 95.6148C344.18 95.756 344.472 95.8504 344.774 95.8939C345.007 95.9869 345.258 96.0301 345.51 96.0209C345.761 96.0116 346.008 95.95 346.234 95.8401C346.461 95.7301 346.662 95.5742 346.824 95.3822C346.987 95.1902 347.108 94.9664 347.179 94.7251C347.275 94.3076 347.275 93.8739 347.179 93.4564C347.207 93.2574 347.221 93.057 347.222 92.8562C347.224 92.7221 347.175 92.5922 347.085 92.4929C347.127 92.0811 347.26 91.6838 347.474 91.3295C347.806 90.7346 348.132 90.445 347.816 89.7027C347.122 88.0918 345.479 88.9604 344.458 89.5342C343.189 90.2502 342.399 89.6606 341.109 89.7606H340.999C340.063 89.8449 339.188 90.2635 338.535 90.9399C337.608 91.9086 337.066 94.1934 338.593 94.9778ZM340.873 93.8038C340.983 93.6248 341.146 93.5195 341.483 93.6143C341.276 93.6652 341.072 93.7285 340.873 93.8038ZM344.616 90.066C346.802 90.1362 347.525 90.5099 346.785 91.1873C346.723 91.2418 346.667 91.3017 346.616 91.3663C346.574 91.519 346.406 91.6506 346.342 91.8085C346.276 92.0013 346.247 92.2051 346.258 92.4087C346.201 92.4592 346.155 92.5216 346.124 92.5916C346.093 92.6616 346.078 92.7376 346.079 92.8141C346.079 93.6196 346.127 93.867 345.347 94.3145C344.431 94.8409 344.163 94.2882 343.421 93.6301C343.152 93.3879 342.968 93.1036 342.62 92.9299C342.359 92.8308 342.08 92.789 341.801 92.8071C341.522 92.8253 341.25 92.9031 341.004 93.0352C340.23 93.3721 340.225 93.8617 339.309 93.409C338.709 93.3669 338.509 93.1142 338.714 92.6509C338.728 92.3556 338.801 92.0662 338.929 91.7995C339.056 91.5329 339.236 91.2943 339.456 91.0978C340.038 90.5824 340.785 90.2912 341.562 90.2765C342.236 90.2765 343.068 90.803 343.7 90.6661C344.131 90.5766 344.279 90.1923 344.616 90.066Z" fill="white"/>
<path d="M327.901 84.4961C329.059 84.096 329.791 83.101 330.801 82.4639C332.528 81.411 334.197 81.9375 336.066 82.1323C338.288 82.3744 340.494 81.2004 342.357 80.1002C342.452 80.0475 342.415 79.8738 342.299 79.8843C341.015 79.9843 339.951 80.7898 338.751 81.2004C337.051 81.7795 335.592 81.2426 333.892 81.1425C332.706 81.0576 331.524 81.3627 330.528 82.0112C328.975 83.0167 328.275 84.3065 326.163 84.375C323.268 84.4645 321.267 84.933 318.793 86.4808C316.456 87.9286 313.865 86.4124 311.754 88.4814C311.538 88.6972 311.86 89.0078 312.086 88.813C312.547 88.425 313.086 88.1414 313.667 87.9814C314.247 87.8215 314.856 87.7891 315.45 87.8865C315.932 88.0269 316.433 88.0891 316.935 88.0707C317.793 87.9549 318.43 87.3758 319.093 86.8704C320.413 85.8156 321.977 85.1096 323.642 84.8172C325.026 84.575 326.548 84.9699 327.901 84.4961Z" fill="white"/>
<path d="M348.459 115.136C349.454 113.783 350.133 112.156 351.844 111.561C352.592 111.298 353.423 111.398 353.95 110.714C354.187 110.408 354.16 110.124 354.313 109.798C354.589 109.18 355.056 108.667 355.645 108.334C356.172 108.029 356.498 107.95 356.803 107.376C356.813 107.364 356.819 107.35 356.823 107.335C356.827 107.32 356.829 107.305 356.827 107.29C356.825 107.275 356.82 107.26 356.812 107.247C356.804 107.234 356.794 107.222 356.782 107.213C356.77 107.203 356.756 107.196 356.742 107.193C356.727 107.189 356.711 107.187 356.696 107.189C356.681 107.191 356.666 107.196 356.653 107.204C356.64 107.211 356.628 107.222 356.619 107.234C355.835 108.044 354.597 107.813 353.781 108.524C353.627 108.661 353.494 108.821 353.387 108.997C352.86 109.84 352.955 109.861 351.976 110.319C350.065 111.214 348.906 113.109 348.38 115.11C348.378 115.115 348.378 115.12 348.378 115.126C348.378 115.131 348.38 115.136 348.382 115.141C348.385 115.146 348.388 115.151 348.392 115.154C348.396 115.158 348.401 115.16 348.406 115.162C348.411 115.164 348.417 115.165 348.422 115.164C348.428 115.164 348.433 115.162 348.438 115.16C348.443 115.157 348.447 115.154 348.451 115.15C348.454 115.146 348.457 115.141 348.459 115.136Z" fill="white"/>
<path d="M350.759 120C351.084 119.778 351.345 119.475 351.518 119.121C351.571 119.173 351.639 119.206 351.712 119.216C351.986 119.216 352.155 119.079 352.444 119.111C352.702 119.165 352.97 119.146 353.218 119.058C353.823 118.826 353.397 117.931 352.886 118.263C352.623 118.432 352.36 118.305 352.107 118.395C351.996 118.446 351.894 118.514 351.802 118.595C351.745 118.535 351.674 118.49 351.597 118.463C351.535 118.429 351.462 118.42 351.394 118.438C351.325 118.456 351.266 118.498 351.228 118.558C351.057 118.944 350.824 119.3 350.538 119.611C350.323 119.79 350.507 120.143 350.759 120Z" fill="white"/>
<path d="M341.02 129.792C360.285 129.792 375.903 114.175 375.903 94.9094C375.903 75.644 360.285 60.0263 341.02 60.0263C321.755 60.0263 306.137 75.644 306.137 94.9094C306.137 114.175 321.755 129.792 341.02 129.792Z" stroke="white" stroke-miterlimit="10"/>
</g>
<path d="M204.748 94.96C203.284 93.5009 202.179 97.8952 203.723 98.3403C205.267 98.7853 207.064 97.2755 204.748 94.96Z" stroke="#FEFDFF" stroke-opacity="0.7" stroke-miterlimit="10"/>
<path d="M255.345 142.734C260.483 142.988 267.931 135.799 266.9 132.971C265.869 130.143 259.711 131.438 257.914 127.067C256.117 122.695 253.289 119.106 255.097 118.334C256.905 117.563 260.488 129.602 271.401 127.45C271.389 127.421 271.38 127.39 271.373 127.36C271.142 126.734 269.683 122.734 267.807 117.827C264.469 110.011 260.268 102.593 255.283 95.7094C256.004 96.7854 258.922 106.261 255.097 106.52C251.272 106.78 250.472 97.2755 250.472 95.991C250.472 94.7066 246.77 85.394 246.703 85.2419L246.241 84.7461C245.756 84.2391 244.9 83.3377 243.79 82.1884C237.316 75.6618 230.084 69.9346 222.247 65.1295C221.79 66.4422 222.602 68.7351 221.683 69.8168C220.399 71.3548 216.545 75.2082 212.179 74.9547C207.813 74.7012 205.757 72.6393 208.326 71.1013C210.895 69.5633 212.371 70.5886 213.464 65.7042C214.467 61.2535 213.402 60.2902 213.205 60.1549C208.324 57.7407 203.277 55.6809 198.101 53.9917C196.258 58.7747 195.746 63.3943 199.853 63.6535C203.96 63.9126 206.275 64.938 204.985 68.0196C203.695 71.1013 201.926 71.5914 199.098 73.4111C196.27 75.2308 193.188 77.7772 192.675 75.2082C192.163 72.6393 189.081 68.5323 188.056 65.7042C187.03 62.876 186.771 60.0704 184.715 62.6225C182.659 65.1746 180.208 67.5013 178.231 70.3294C176.253 73.1576 180.349 73.4111 184.202 74.9547C188.056 76.4984 188.828 79.0448 187.774 80.8363C186.721 82.6279 189.464 83.2307 190.343 85.2025C190.963 86.5658 192.399 89.3094 190.343 90.5939C188.287 91.8784 181.611 88.025 179.56 89.3095C177.509 90.5939 179.042 98.3234 178.276 99.8445C177.509 101.366 183.492 101.895 184.861 103.18C186.23 104.464 191.374 101.642 192.653 99.5854C193.932 97.529 193.684 95.2192 196.253 92.9094C198.822 90.5996 201.132 91.6249 203.188 90.8531C205.244 90.0813 203.188 88.7968 205.239 90.0813C207.289 91.3658 215.537 96.5093 215.019 98.0417C214.5 99.5741 210.912 98.56 210.658 100.611C210.405 102.661 212.455 103.568 213.74 103.506C215.024 103.444 217.075 100.126 218.36 99.3262C219.644 98.5262 222.213 101.777 225.295 103.506C228.376 105.236 229.402 98.3009 230.928 97.2755C232.455 96.2502 243.773 96.5037 244.027 98.0417C244.28 99.5797 233.497 97.7882 232.196 101.123C230.895 104.459 236.303 105.489 239.131 107.546C241.959 109.602 243.762 116.791 244.015 121.929C244.269 127.067 250.207 142.475 255.345 142.734Z" stroke="#FEFDFF" stroke-opacity="0.7" stroke-miterlimit="10"/>
<path d="M183.43 104.723C181.515 104.16 178.411 105.489 177.712 110.115C177.014 114.74 173.16 115.748 170.591 119.36C168.022 122.971 166.997 137.607 168.281 142.74C169.566 147.872 176.732 155.832 181.633 156.604C187.345 157.371 193.133 157.371 198.844 156.604C203.464 155.832 208.089 160.711 208.089 165.336C208.089 169.962 213.227 174.835 212.968 178.948C212.709 183.06 209.391 191.533 212.968 198.722C216.545 205.911 221.689 212.592 221.948 214.902C222.207 217.212 232.218 213.877 237.097 207.967C241.976 202.057 242.235 202.575 243.779 196.412C245.322 190.249 248.658 187.962 249.17 184.581C249.683 181.201 249.683 177.646 249.17 172.75C248.658 167.855 258.156 156.57 258.674 152.204C259.193 147.838 253.277 147.833 250.967 144.497C248.658 141.162 240.731 125.805 239.937 120.903C239.142 116.002 229.92 114.994 227.351 113.456C224.782 111.918 221.188 114.74 217.334 112.171C213.481 109.602 206.292 102.413 202.951 102.413C199.61 102.413 186.771 105.749 183.43 104.723Z" stroke="#FEFDFF" stroke-opacity="0.7" stroke-miterlimit="10"/>
<path d="M81.725 153.973C82.4642 156.88 82.0988 159.957 80.6996 162.61C78.6433 166.339 77.8828 169.421 80.6996 175.567C83.5165 181.714 87.6348 183.832 90.7164 189.466C93.798 195.099 93.2854 204.113 93.798 217.46C94.3107 230.806 98.936 241.347 106.643 244.428C114.35 247.51 103.826 239.803 104.587 234.665C105.347 229.527 105.099 226.705 107.922 222.834C110.744 218.964 112.468 220.524 115.972 213.589C119.477 206.654 118.457 204.344 122.564 202.035C126.671 199.725 132.581 202.288 133.865 194.328C135.15 186.367 130.012 188.694 135.662 181.488C141.313 174.283 135.403 173.038 130.524 170.187C125.645 167.336 120.767 167.105 118.457 164.277C116.147 161.449 116.401 162.227 112.294 157.855C108.187 153.483 105.099 154.007 99.7078 150.407C94.3163 146.807 89.6516 143.99 86.7165 146.3C83.7813 148.61 81.3588 152.531 81.725 153.973Z" stroke="#FEFDFF" stroke-opacity="0.7" stroke-miterlimit="10"/>
<path d="M101.015 66.3633C98.3275 68.0872 95.7191 69.9294 93.1895 71.8674C94.1022 75.9857 89.9558 78.0138 88.6825 79.811C87.4093 81.6081 88.9417 86.2278 87.6572 86.4869C86.3727 86.7461 85.0882 81.3546 84.9192 78.8589C71.0366 91.7284 60.5642 107.842 54.4408 125.754C56.2745 130.134 57.5978 134.711 58.3844 139.393C59.1562 144.019 66.3448 141.45 68.6547 145.027C70.9645 148.604 75.3363 151.703 78.1588 153.478C80.9813 155.252 78.1588 151.68 76.3616 147.573C74.5644 143.466 72.2265 138.881 72.7391 135.945C73.2518 133.01 70.1701 132.002 68.1138 134.283C66.0575 136.565 64.7787 137.1 63.7477 131.714C62.7167 126.329 68.6265 125.523 71.7194 124.239C74.8123 122.954 76.3391 125.269 78.3954 127.055C80.4517 128.841 80.17 125.805 80.6996 120.132C81.2291 114.458 90.2037 103.692 93.0261 98.4361C95.8486 93.1798 98.9359 91.3658 99.6965 88.5433C100.457 85.7208 106.643 86.9996 111.775 88.7968C116.907 90.5939 116.66 87.2588 114.592 84.6898C112.524 82.1208 110.739 81.349 112.795 79.5518C114.851 77.7547 112.282 76.2279 110.237 73.6421C108.192 71.0562 108.181 67.4788 107.42 66.3633C106.66 65.2478 103.561 70.0309 101.015 70.3069C98.4683 70.583 100.299 66.8253 101.015 66.3633Z" stroke="#FEFDFF" stroke-opacity="0.7" stroke-miterlimit="10"/>
<path d="M122.31 55.6649C123.848 57.4676 125.127 58.4817 126.93 61.5746C128.733 64.6675 132.068 66.9661 133.865 61.5746C135.097 57.9716 136.519 54.4362 138.124 50.9832C132.746 52.1561 127.46 53.7208 122.31 55.6649V55.6649Z" stroke="#FEFDFF" stroke-opacity="0.7" stroke-miterlimit="10"/>
<path d="M243.448 243.448C288.082 198.815 288.082 126.45 243.448 81.8161C198.815 37.1826 126.45 37.1826 81.8161 81.8161C37.1826 126.45 37.1826 198.815 81.8161 243.448C126.45 288.082 198.815 288.082 243.448 243.448Z" stroke="#FEFDFF" stroke-opacity="0.7" stroke-miterlimit="10"/>
</svg>
