<svg width="28" height="28" viewBox="0 0 28 28" fill="none" xmlns="http://www.w3.org/2000/svg">
<path d="M13.75 0C17.4859 0 17.952 0.0137499 19.4177 0.0824999C20.8821 0.15125 21.879 0.380875 22.7562 0.721875C23.6637 1.07113 24.4283 1.54412 25.1928 2.30725C25.8919 2.99461 26.4329 3.82606 26.7781 4.74375C27.1178 5.61962 27.3488 6.61787 27.4175 8.08225C27.4821 9.548 27.5 10.0141 27.5 13.75C27.5 17.4859 27.4862 17.952 27.4175 19.4177C27.3488 20.8821 27.1178 21.879 26.7781 22.7562C26.4339 23.6744 25.8928 24.5061 25.1928 25.1928C24.5052 25.8917 23.6738 26.4327 22.7562 26.7781C21.8804 27.1178 20.8821 27.3488 19.4177 27.4175C17.952 27.4821 17.4859 27.5 13.75 27.5C10.0141 27.5 9.548 27.4862 8.08225 27.4175C6.61787 27.3488 5.621 27.1178 4.74375 26.7781C3.8257 26.4337 2.9941 25.8925 2.30725 25.1928C1.60793 24.5055 1.06691 23.674 0.721875 22.7562C0.380875 21.8804 0.15125 20.8821 0.0824999 19.4177C0.0178749 17.952 0 17.4859 0 13.75C0 10.0141 0.0137499 9.548 0.0824999 8.08225C0.15125 6.6165 0.380875 5.621 0.721875 4.74375C1.06595 3.8255 1.60711 2.99382 2.30725 2.30725C2.9943 1.60769 3.82584 1.06663 4.74375 0.721875C5.621 0.380875 6.6165 0.15125 8.08225 0.0824999C9.548 0.0178749 10.0141 0 13.75 0ZM13.75 6.875C11.9266 6.875 10.178 7.59933 8.88864 8.88864C7.59933 10.178 6.875 11.9266 6.875 13.75C6.875 15.5734 7.59933 17.322 8.88864 18.6114C10.178 19.9007 11.9266 20.625 13.75 20.625C15.5734 20.625 17.322 19.9007 18.6114 18.6114C19.9007 17.322 20.625 15.5734 20.625 13.75C20.625 11.9266 19.9007 10.178 18.6114 8.88864C17.322 7.59933 15.5734 6.875 13.75 6.875ZM22.6875 6.53125C22.6875 6.07541 22.5064 5.63824 22.1841 5.31591C21.8618 4.99358 21.4246 4.8125 20.9688 4.8125C20.5129 4.8125 20.0757 4.99358 19.7534 5.31591C19.4311 5.63824 19.25 6.07541 19.25 6.53125C19.25 6.98709 19.4311 7.42426 19.7534 7.74659C20.0757 8.06892 20.5129 8.25 20.9688 8.25C21.4246 8.25 21.8618 8.06892 22.1841 7.74659C22.5064 7.42426 22.6875 6.98709 22.6875 6.53125ZM13.75 9.625C14.844 9.625 15.8932 10.0596 16.6668 10.8332C17.4404 11.6068 17.875 12.656 17.875 13.75C17.875 14.844 17.4404 15.8932 16.6668 16.6668C15.8932 17.4404 14.844 17.875 13.75 17.875C12.656 17.875 11.6068 17.4404 10.8332 16.6668C10.0596 15.8932 9.625 14.844 9.625 13.75C9.625 12.656 10.0596 11.6068 10.8332 10.8332C11.6068 10.0596 12.656 9.625 13.75 9.625Z" fill="#241F20"/>
</svg>
