<svg width="45" height="41" viewBox="0 0 45 41" fill="none" xmlns="http://www.w3.org/2000/svg">
<path d="M34.6401 39.4939C39.5856 39.4939 43.5947 35.5181 43.5947 30.6137C43.5947 25.7092 39.5856 21.7334 34.6401 21.7334C29.6947 21.7334 25.6855 25.7092 25.6855 30.6137C25.6855 35.5181 29.6947 39.4939 34.6401 39.4939Z" fill="#FFC062"/>
<path d="M25.4029 4.20639H13.6201C13.2296 4.20639 12.9131 3.89248 12.9131 3.50529C12.9131 3.11811 13.2296 2.8042 13.6201 2.8042H25.4029C25.7933 2.8042 26.1099 3.11811 26.1099 3.50529C26.1099 3.89248 25.7933 4.20639 25.4029 4.20639Z" fill="#241F20"/>
<path d="M28.9849 7.01071C28.5944 7.01071 28.2778 6.6968 28.2778 6.30961V0.701098C28.2778 0.313915 28.5944 0 28.9849 0C29.3753 0 29.6919 0.313915 29.6919 0.701098V6.3097C29.6919 6.69689 29.3753 7.01071 28.9849 7.01071Z" fill="#241F20"/>
<path d="M10.1323 7.01071C9.74187 7.01071 9.42529 6.6968 9.42529 6.30961V0.701098C9.42529 0.313915 9.74187 0 10.1323 0C10.5228 0 10.8394 0.313915 10.8394 0.701098V6.3097C10.8393 6.69689 10.5228 7.01071 10.1323 7.01071Z" fill="#241F20"/>
<path d="M33.6978 13.0868H5.41986C5.02944 13.0868 4.71289 12.7728 4.71289 12.3857C4.71289 11.9985 5.02944 11.6846 5.41986 11.6846H33.6978C34.0882 11.6846 34.4048 11.9985 34.4048 12.3857C34.4048 12.7728 34.0882 13.0868 33.6978 13.0868Z" fill="#241F20"/>
<path d="M27.0991 18.6954H5.41985C5.02943 18.6954 4.71289 18.3815 4.71289 17.9943C4.71289 17.6071 5.02943 17.2932 5.41985 17.2932H27.0992C27.4896 17.2932 27.8062 17.6071 27.8062 17.9943C27.8061 18.3815 27.4895 18.6954 27.0991 18.6954Z" fill="#241F20"/>
<path d="M17.6738 24.304H5.41987C5.02944 24.304 4.71289 23.9901 4.71289 23.603C4.71289 23.2158 5.02944 22.9019 5.41987 22.9019H17.6739C18.0643 22.9019 18.3809 23.2158 18.3809 23.603C18.3808 23.9902 18.0642 24.304 17.6738 24.304Z" fill="#241F20"/>
<path d="M39.1178 22.154V3.50539C39.1178 3.1182 38.8013 2.80429 38.4109 2.80429H31.8127C31.4222 2.80429 31.1057 3.1182 31.1057 3.50539C31.1057 3.89257 31.4222 4.20649 31.8127 4.20649H37.7039V21.5465C36.7191 21.2056 35.6835 21.0319 34.6405 21.0323C29.3045 21.0323 24.9788 25.322 24.9788 30.6137C24.9784 31.648 25.1536 32.6751 25.4973 33.6517H1.41385V4.2064H6.36248C6.75291 4.2064 7.06945 3.89248 7.06945 3.5053C7.06945 3.11812 6.75291 2.8042 6.36248 2.8042H0.706972C0.316545 2.80429 0 3.1182 0 3.50539V34.3527C0 34.7399 0.316545 35.0538 0.706972 35.0538H26.11C28.5472 39.7613 34.3709 41.6181 39.1178 39.2012C43.8647 36.7842 45.7371 31.0088 43.2999 26.3014C42.3773 24.5193 40.9147 23.0689 39.1178 22.154ZM34.6405 38.7929C30.0853 38.7929 26.3927 35.1309 26.3927 30.6136C26.3927 26.0963 30.0853 22.4344 34.6405 22.4344C39.1956 22.4344 42.8882 26.0963 42.8882 30.6136C42.8624 35.1203 39.1849 38.7673 34.6405 38.7929Z" fill="#241F20"/>
<path d="M39.0235 31.7821H34.6401C34.2497 31.7821 33.9331 31.4682 33.9331 31.081V25.4723C33.9331 25.0852 34.2497 24.7712 34.6401 24.7712C35.0306 24.7712 35.3471 25.0852 35.3471 25.4723V30.3799H39.0235C39.4139 30.3799 39.7305 30.6938 39.7305 31.081C39.7305 31.4682 39.4139 31.7821 39.0235 31.7821Z" fill="#241F20"/>
</svg>
