<svg width="45" height="39" viewBox="0 0 45 39" fill="none" xmlns="http://www.w3.org/2000/svg">
<rect x="13.1089" y="8.41235" width="30.2515" height="22" rx="3" fill="#FFC062"/>
<path d="M39.8312 37.9124L33.2764 30.4124L40.3354 28.9124V37.9124H39.8312Z" fill="#FFC062"/>
<path d="M38.5244 13.8386H17.8999C17.541 13.8386 17.25 14.1272 17.25 14.4832C17.25 14.8391 17.541 15.1277 17.8999 15.1277H38.5244C38.8833 15.1277 39.1743 14.8391 39.1743 14.4832C39.1743 14.1272 38.8833 13.8386 38.5244 13.8386Z" fill="black"/>
<path d="M38.5244 18.7656H17.8999C17.541 18.7656 17.25 19.0542 17.25 19.4102C17.25 19.7661 17.541 20.0547 17.8999 20.0547H38.5244C38.8833 20.0547 39.1743 19.7661 39.1743 19.4102C39.1743 19.0542 38.8833 18.7656 38.5244 18.7656Z" fill="black"/>
<path d="M38.5244 23.6926H17.8999C17.541 23.6926 17.25 23.9812 17.25 24.3372C17.25 24.6931 17.541 24.9817 17.8999 24.9817H38.5244C38.8833 24.9817 39.1743 24.6931 39.1743 24.3372C39.1743 23.9812 38.8833 23.6926 38.5244 23.6926Z" fill="black"/>
<path d="M40.5884 8.20166H15.8349C13.7505 8.20166 12.0547 9.88329 12.0547 11.9504V27.3863C12.0547 29.4533 13.7504 31.135 15.8349 31.135H33.1848C33.3703 31.135 33.5427 31.2178 33.6578 31.3622L39.2607 38.3965C39.4815 38.6737 39.8037 38.8248 40.141 38.8248C40.2664 38.8248 40.394 38.8039 40.5191 38.7608C40.9808 38.6018 41.279 38.1859 41.279 37.7013V31.071C43.0317 30.7463 44.3687 29.2097 44.3687 27.3863V11.9503C44.3687 9.88328 42.6729 8.20166 40.5884 8.20166ZM43.0688 27.3863C43.0688 28.7249 41.9706 29.8279 40.6207 29.8449C40.265 29.8495 39.9791 30.1367 39.9791 30.4895V37.2188L34.6778 30.5632C34.3148 30.1073 33.7706 29.8459 33.1848 29.8459H15.8349C14.4673 29.8459 13.3546 28.7424 13.3546 27.3862V11.9503C13.3546 10.5941 14.4672 9.49064 15.8349 9.49064H40.5884C41.9561 9.49064 43.0688 10.5941 43.0688 11.9503V27.3863Z" fill="black"/>
<path d="M9.57516 18.8591C9.1306 18.9216 8.7325 19.1486 8.45415 19.498L3.98946 25.1034V19.4855C3.98946 19.1328 3.70349 18.8456 3.34785 18.841C2.21861 18.8267 1.29987 17.904 1.29987 16.7841V3.34683C1.29987 2.2122 2.23074 1.28906 3.37489 1.28906H24.9235C26.0676 1.28906 26.9985 2.2122 26.9985 3.34683V5.83318C26.9985 6.18913 27.2895 6.47771 27.6484 6.47771C28.0073 6.47771 28.2983 6.18913 28.2983 5.83318V3.34683C28.2983 1.50141 26.7843 0 24.9235 0H3.37489C1.514 0 0 1.50141 0 3.34683V16.7841C0 18.3883 1.1587 19.7436 2.68968 20.0604V25.7637C2.68968 26.2216 2.97149 26.6146 3.40773 26.7648C3.52602 26.8055 3.64647 26.8253 3.76502 26.8253C4.08366 26.8253 4.38826 26.6825 4.59685 26.4206L9.47429 20.2971C9.54466 20.2086 9.64544 20.1512 9.75792 20.1353C10.1133 20.0853 10.3605 19.759 10.31 19.4066C10.2596 19.0541 9.93106 18.8088 9.57516 18.8591Z" fill="black"/>
</svg>
