<svg width="45" height="37" viewBox="0 0 45 37" fill="none" xmlns="http://www.w3.org/2000/svg">
<path d="M24.2013 28L16.1343 20C18.5544 10.8 28.571 4.5 33.2767 2.5L41.3437 11C38.5203 21.4 28.739 26.6667 24.2013 28Z" fill="#FFC062"/>
<path d="M23.2826 20.9129C22.9436 20.5769 22.3948 20.5769 22.0558 20.9129C21.7177 21.2481 21.7177 21.792 22.0558 22.1281C22.3948 22.4632 22.9436 22.4632 23.2826 22.1281C23.6207 21.792 23.6207 21.2481 23.2826 20.9129Z" fill="black"/>
<path d="M34.311 9.97471C32.6176 8.29558 29.8762 8.2955 28.1828 9.97471C26.4938 11.6495 26.4937 14.3755 28.183 16.0517C29.8726 17.7261 32.6216 17.7268 34.311 16.0515C36.0042 14.3725 36.0046 11.654 34.311 9.97471ZM33.0854 14.8361C32.072 15.841 30.4225 15.841 29.4086 14.8363C28.3951 13.8306 28.395 12.1949 29.4084 11.19C30.4244 10.1826 32.0693 10.1824 33.0854 11.19C34.1014 12.1974 34.1015 13.8286 33.0854 14.8361Z" fill="black"/>
<path d="M44.1149 0.251719C43.9447 0.0830238 43.7124 -0.00841343 43.471 0.000609983C43.2751 0.0075709 38.6099 0.193539 33.0642 2.13735C28.6204 3.69334 24.9164 5.92109 22.0551 8.75874C21.4139 9.39459 20.79 10.0689 20.193 10.7693C17.3638 9.11778 15.0966 9.63564 13.6634 10.3963C10.3634 12.1477 8.3208 16.9031 8.3208 20.3045C8.32106 20.652 8.53225 20.9654 8.856 21.0984C8.96319 21.1425 9.07585 21.1639 9.18746 21.1639C9.41303 21.1639 9.63462 21.0765 9.80039 20.9122C11.5407 19.1863 13.6873 19.2942 14.3886 19.3857L14.692 19.6866C14.0948 21.096 13.6137 22.4974 13.2608 23.8605C13.1334 24.3538 13.1764 24.8758 13.3657 25.3532C12.5314 25.7345 11.7264 26.2944 11.0256 26.9895C8.7949 29.2017 8.34195 34.5929 8.32375 34.8213C8.30382 35.072 8.3955 35.3188 8.57479 35.4966C8.73797 35.6583 8.95869 35.7483 9.18746 35.7483C9.21017 35.7483 9.23296 35.7474 9.25575 35.7456C9.48609 35.7277 14.9226 35.2785 17.1533 33.0664C17.8539 32.3716 18.4184 31.5734 18.8029 30.7461C19.3126 30.9449 19.8372 30.9694 20.309 30.8495C21.6829 30.4997 23.0959 30.0227 24.5173 29.4304L24.8207 29.7313C24.9129 30.4268 25.0217 32.5555 23.2814 34.2813C23.0337 34.527 22.9595 34.8967 23.0937 35.2177C23.2277 35.5389 23.5437 35.7482 23.8942 35.7482C27.3241 35.7482 32.1193 33.7226 33.8854 30.45C34.6524 29.0289 35.1746 26.7806 33.5092 23.9748C34.2152 23.383 34.8952 22.7643 35.5366 22.1282C38.3981 19.2905 40.6444 15.6173 42.2134 11.2108C44.1736 5.71097 44.3611 1.08445 44.3681 0.890233C44.3768 0.651757 44.285 0.4205 44.1149 0.251719ZM10.2583 18.4561C10.7966 15.8725 12.3602 13.0376 14.4815 11.9116C15.8992 11.1593 17.4487 11.233 19.0962 12.1274C17.6926 13.958 16.4724 15.9303 15.4553 18.013C15.4424 18.0051 15.2864 17.8106 14.9966 17.7458C14.8775 17.7191 12.5846 17.23 10.2583 18.4561ZM15.9278 31.851C14.7362 33.0326 11.9411 33.6558 10.1744 33.9103C10.4311 32.1582 11.0596 29.3864 12.2511 28.2048C12.9183 27.5431 13.692 27.0414 14.4697 26.7588L17.3859 29.6508C17.1009 30.422 16.5951 31.1892 15.9278 31.851ZM19.8785 29.1846C19.6277 29.2483 19.3372 29.1548 19.1213 28.9409C18.0002 27.8292 17.5616 27.3942 17.424 27.2579C17.1717 27.0076 16.5528 26.3939 15.186 25.0384C14.9699 24.8236 14.8756 24.5356 14.9396 24.2873C15.2172 23.2154 15.5802 22.1155 16.0216 21.0051L23.1878 28.1117C22.0679 28.5496 20.959 28.9095 19.8785 29.1846ZM32.3575 29.639C31.2221 31.7427 28.3635 33.2933 25.7584 33.8271C26.589 32.277 26.7721 30.3038 26.4686 29.1073C26.3982 28.8294 26.2153 28.6897 26.2051 28.6732C28.3051 27.6646 30.2938 26.4545 32.1399 25.0626C33.0418 26.6966 33.116 28.2334 32.3575 29.639ZM34.3113 20.9128C33.5304 21.6871 32.6896 22.4352 31.8121 23.1362C29.7027 24.8206 27.381 26.2473 24.9039 27.3831L16.7564 19.3034C17.9017 16.8468 19.3403 14.5444 21.0387 12.4528C21.7461 11.5819 22.5004 10.748 23.2809 9.97406C25.8482 7.42808 29.1614 5.40186 33.1314 3.94333L40.3926 11.1442C38.922 15.0811 36.8788 18.3668 34.3113 20.9128ZM41.0161 9.33168L34.9591 3.32501C38.2591 2.30854 41.13 1.92793 42.5629 1.79111C42.4249 3.21243 42.041 6.05945 41.0161 9.33168Z" fill="black"/>
<path d="M8.57541 23.3433C8.23706 23.0077 7.68838 23.0077 7.34978 23.3432L4.898 25.7735C4.55948 26.109 4.55939 26.6531 4.89774 26.9888C5.23599 27.3243 5.78468 27.3246 6.12337 26.989L8.57515 24.5587C8.91367 24.2232 8.91375 23.679 8.57541 23.3433Z" fill="black"/>
<path d="M7.34866 29.4196C7.01035 29.0841 6.46154 29.0841 6.12314 29.4197L0.253789 35.241C-0.0846108 35.5767 -0.0846108 36.1208 0.253876 36.4565C0.592276 36.792 1.14099 36.792 1.47939 36.4564L7.34875 30.635C7.68715 30.2993 7.68715 29.7553 7.34866 29.4196Z" fill="black"/>
<path d="M26.9582 17.2663C26.6197 16.9308 26.0713 16.9308 25.7328 17.2663L24.5077 18.4815C24.1693 18.8171 24.1693 19.3612 24.5077 19.6969C24.8461 20.0325 25.3946 20.0325 25.733 19.6969L26.9582 18.4818C27.2965 18.1462 27.2965 17.602 26.9582 17.2663Z" fill="black"/>
<ellipse cx="31.2603" cy="13" rx="3.02539" ry="3" fill="white"/>
</svg>
