<svg width="33" height="33" viewBox="0 0 33 33" fill="none" xmlns="http://www.w3.org/2000/svg">
<circle cx="16.5" cy="16.5" r="16.5" fill="#F2F2F2"/>
<path d="M22.6249 16.4062H13.4827L18.9546 11.6562C19.0421 11.5797 18.989 11.4375 18.8734 11.4375H17.4905C17.4296 11.4375 17.3718 11.4594 17.3265 11.4984L11.4218 16.6219C11.3677 16.6688 11.3243 16.7267 11.2946 16.7918C11.2649 16.8569 11.2495 16.9276 11.2495 16.9992C11.2495 17.0708 11.2649 17.1415 11.2946 17.2066C11.3243 17.2717 11.3677 17.3297 11.4218 17.3766L17.3609 22.5312C17.3843 22.5516 17.4124 22.5625 17.4421 22.5625H18.8718C18.9874 22.5625 19.0405 22.4187 18.953 22.3438L13.4827 17.5938H22.6249C22.6937 17.5938 22.7499 17.5375 22.7499 17.4688V16.5312C22.7499 16.4625 22.6937 16.4062 22.6249 16.4062Z" fill="#263238"/>
</svg>
