<svg width="41" height="41" viewBox="0 0 41 41" fill="none" xmlns="http://www.w3.org/2000/svg">
<path d="M31.2625 9.75454C30.9433 9.43465 30.51 9.25488 30.0581 9.25488C29.6062 9.25488 29.1729 9.43465 28.8537 9.75454L20.5 18.0912L12.1462 9.73746C11.8271 9.41757 11.3937 9.23779 10.9419 9.23779C10.49 9.23779 10.0567 9.41757 9.73748 9.73746C9.07123 10.4037 9.07123 11.48 9.73748 12.1462L18.0912 20.5L9.73748 28.8537C9.07123 29.52 9.07123 30.5962 9.73748 31.2625C10.4037 31.9287 11.48 31.9287 12.1462 31.2625L20.5 22.9087L28.8537 31.2625C29.52 31.9287 30.5962 31.9287 31.2625 31.2625C31.9287 30.5962 31.9287 29.52 31.2625 28.8537L22.9087 20.5L31.2625 12.1462C31.9116 11.497 31.9116 10.4037 31.2625 9.75454Z" fill="black" fill-opacity="0.54"/>
</svg>
