<svg width="28" height="28" viewBox="0 0 28 28" fill="none" xmlns="http://www.w3.org/2000/svg">
<path d="M14 26.4444C11.9372 26.4444 9.9589 25.625 8.50028 24.1664C7.04166 22.7078 6.22222 20.7294 6.22222 18.6667V9.33332C6.22222 7.27052 7.04166 5.29222 8.50028 3.8336C9.9589 2.37498 11.9372 1.55554 14 1.55554C16.0628 1.55554 18.0411 2.37498 19.4997 3.8336C20.9583 5.29222 21.7778 7.27052 21.7778 9.33332V18.6667C21.7778 19.688 21.5766 20.6994 21.1857 21.6431C20.7949 22.5867 20.222 23.4441 19.4997 24.1664C18.7775 24.8886 17.9201 25.4615 16.9764 25.8524C16.0328 26.2433 15.0214 26.4444 14 26.4444ZM14 3.1111C12.3498 3.1111 10.7671 3.76665 9.60022 4.93354C8.43333 6.10044 7.77778 7.68308 7.77778 9.33332V18.6667C7.77778 20.3169 8.43333 21.8995 9.60022 23.0664C10.7671 24.2333 12.3498 24.8889 14 24.8889C15.6502 24.8889 17.2329 24.2333 18.3998 23.0664C19.5667 21.8995 20.2222 20.3169 20.2222 18.6667V9.33332C20.2222 7.68308 19.5667 6.10044 18.3998 4.93354C17.2329 3.76665 15.6502 3.1111 14 3.1111Z" fill="#5F5F5F"/>
<path d="M14 11.6667C13.7937 11.6667 13.5959 11.5847 13.45 11.4389C13.3042 11.293 13.2222 11.0952 13.2222 10.8889V7.77778C13.2222 7.5715 13.3042 7.37367 13.45 7.22781C13.5959 7.08194 13.7937 7 14 7C14.2063 7 14.4041 7.08194 14.55 7.22781C14.6958 7.37367 14.7778 7.5715 14.7778 7.77778V10.8889C14.7778 11.0952 14.6958 11.293 14.55 11.4389C14.4041 11.5847 14.2063 11.6667 14 11.6667Z" fill="#5F5F5F"/>
</svg>
